# Tiled2Unity generated file. Do not modify by hand.
# Wavefront file for 'RiverRules_mesh_0005.obj'

# Vertices (Count = 16)
v -513 -375 0
v -855 -375 0
v -855 -90 0
v -513 -90 0
v -1197 -875 0
v -1539 -875 0
v -1539 -590 0
v -1197 -590 0
v -171 -875 0
v -513 -875 0
v -513 -590 0
v -171 -590 0
v -513 -1125 0
v -855 -1125 0
v -855 -840 0
v -513 -840 0

# Texture cooridinates (Count = 4)
vt 0 0
vt 1 0
vt 1 1
vt 0 1

# Normal
vn 0 0 -1

# Mesh description
g RiverRules_mesh_0005

# Faces
f 1/1/1 2/2/1 3/3/1 4/4/1
f 5/1/1 6/2/1 7/3/1 8/4/1
f 9/2/1 10/1/1 11/4/1 12/3/1
f 13/2/1 14/1/1 15/4/1 16/3/1

