# Tiled2Unity generated file. Do not modify by hand.
# Wavefront file for 'TestRenderOrder_mesh_0002.obj'

# Vertices (Count = 20)
v -5.13 -3.75 0
v -8.55 -3.75 0
v -8.55 -1.25 0
v -5.13 -1.25 0
v -6.84 -5 0
v -10.26 -5 0
v -10.26 -2.5 0
v -6.84 -2.5 0
v -8.55 -6.25 0
v -11.97 -6.25 0
v -11.97 -3.75 0
v -8.55 -3.75 0
v -10.26 -7.5 0
v -13.68 -7.5 0
v -13.68 -5 0
v -10.26 -5 0
v -11.97 -8.75 0
v -15.39 -8.75 0
v -15.39 -6.25 0
v -11.97 -6.25 0

# Texture cooridinates (Count = 4)
vt 0 0
vt 1 0
vt 1 1
vt 0 1

# Normal
vn 0 0 -1

# Mesh description
g TestRenderOrder_mesh_0002

# Faces
f 1/1/1 2/2/1 3/3/1 4/4/1
f 5/1/1 6/2/1 7/3/1 8/4/1
f 9/1/1 10/2/1 11/3/1 12/4/1
f 13/1/1 14/2/1 15/3/1 16/4/1
f 17/1/1 18/2/1 19/3/1 20/4/1

