# Tiled2Unity generated file. Do not modify by hand.
# Wavefront file for 'GameMap_mesh_0038.obj'

# Vertices (Count = 924)
v -145.35 -67.5 0
v -148.77 -67.5 0
v -148.77 -65 0
v -145.35 -65 0
v -141.93 -67.5 0
v -145.35 -67.5 0
v -145.35 -65 0
v -141.93 -65 0
v -145.35 -70 0
v -148.77 -70 0
v -148.77 -67.5 0
v -145.35 -67.5 0
v -159.03 -80 0
v -162.45 -80 0
v -162.45 -77.5 0
v -159.03 -77.5 0
v -140.22 -68.75 0
v -143.64 -68.75 0
v -143.64 -66.25 0
v -140.22 -66.25 0
v -145.35 -72.5 0
v -148.77 -72.5 0
v -148.77 -70 0
v -145.35 -70 0
v -155.61 -80 0
v -159.03 -80 0
v -159.03 -77.5 0
v -155.61 -77.5 0
v -160.74 -83.75 0
v -164.16 -83.75 0
v -164.16 -81.25 0
v -160.74 -81.25 0
v -171 -91.25 0
v -174.42 -91.25 0
v -174.42 -88.75 0
v -171 -88.75 0
v -140.22 -71.25 0
v -143.64 -71.25 0
v -143.64 -68.75 0
v -140.22 -68.75 0
v -145.35 -75 0
v -148.77 -75 0
v -148.77 -72.5 0
v -145.35 -72.5 0
v -153.9 -81.25 0
v -157.32 -81.25 0
v -157.32 -78.75 0
v -153.9 -78.75 0
v -157.32 -83.75 0
v -160.74 -83.75 0
v -160.74 -81.25 0
v -157.32 -81.25 0
v -164.16 -88.75 0
v -167.58 -88.75 0
v -167.58 -86.25 0
v -164.16 -86.25 0
v -165.87 -90 0
v -169.29 -90 0
v -169.29 -87.5 0
v -165.87 -87.5 0
v -171 -93.75 0
v -174.42 -93.75 0
v -174.42 -91.25 0
v -171 -91.25 0
v -138.51 -72.5 0
v -141.93 -72.5 0
v -141.93 -70 0
v -138.51 -70 0
v -143.64 -76.25 0
v -147.06 -76.25 0
v -147.06 -73.75 0
v -143.64 -73.75 0
v -145.35 -77.5 0
v -148.77 -77.5 0
v -148.77 -75 0
v -145.35 -75 0
v -150.48 -81.25 0
v -153.9 -81.25 0
v -153.9 -78.75 0
v -150.48 -78.75 0
v -157.32 -86.25 0
v -160.74 -86.25 0
v -160.74 -83.75 0
v -157.32 -83.75 0
v -160.74 -88.75 0
v -164.16 -88.75 0
v -164.16 -86.25 0
v -160.74 -86.25 0
v -167.58 -93.75 0
v -171 -93.75 0
v -171 -91.25 0
v -167.58 -91.25 0
v -138.51 -75 0
v -141.93 -75 0
v -141.93 -72.5 0
v -138.51 -72.5 0
v -145.35 -80 0
v -148.77 -80 0
v -148.77 -77.5 0
v -145.35 -77.5 0
v -153.9 -86.25 0
v -157.32 -86.25 0
v -157.32 -83.75 0
v -153.9 -83.75 0
v -167.58 -96.25 0
v -171 -96.25 0
v -171 -93.75 0
v -167.58 -93.75 0
v -138.51 -77.5 0
v -141.93 -77.5 0
v -141.93 -75 0
v -138.51 -75 0
v -141.93 -80 0
v -145.35 -80 0
v -145.35 -77.5 0
v -141.93 -77.5 0
v -147.06 -83.75 0
v -150.48 -83.75 0
v -150.48 -81.25 0
v -147.06 -81.25 0
v -162.45 -95 0
v -165.87 -95 0
v -165.87 -92.5 0
v -162.45 -92.5 0
v -150.48 -88.75 0
v -153.9 -88.75 0
v -153.9 -86.25 0
v -150.48 -86.25 0
v -153.9 -91.25 0
v -157.32 -91.25 0
v -157.32 -88.75 0
v -153.9 -88.75 0
v -145.35 -87.5 0
v -148.77 -87.5 0
v -148.77 -85 0
v -145.35 -85 0
v -147.06 -88.75 0
v -150.48 -88.75 0
v -150.48 -86.25 0
v -147.06 -86.25 0
v -150.48 -91.25 0
v -153.9 -91.25 0
v -153.9 -88.75 0
v -150.48 -88.75 0
v -155.61 -95 0
v -159.03 -95 0
v -159.03 -92.5 0
v -155.61 -92.5 0
v -126.54 -76.25 0
v -129.96 -76.25 0
v -129.96 -73.75 0
v -126.54 -73.75 0
v -128.25 -77.5 0
v -131.67 -77.5 0
v -131.67 -75 0
v -128.25 -75 0
v -129.96 -78.75 0
v -133.38 -78.75 0
v -133.38 -76.25 0
v -129.96 -76.25 0
v -131.67 -80 0
v -135.09 -80 0
v -135.09 -77.5 0
v -131.67 -77.5 0
v -133.38 -81.25 0
v -136.8 -81.25 0
v -136.8 -78.75 0
v -133.38 -78.75 0
v -135.09 -82.5 0
v -138.51 -82.5 0
v -138.51 -80 0
v -135.09 -80 0
v -136.8 -83.75 0
v -140.22 -83.75 0
v -140.22 -81.25 0
v -136.8 -81.25 0
v -138.51 -85 0
v -141.93 -85 0
v -141.93 -82.5 0
v -138.51 -82.5 0
v -140.22 -86.25 0
v -143.64 -86.25 0
v -143.64 -83.75 0
v -140.22 -83.75 0
v -150.48 -93.75 0
v -153.9 -93.75 0
v -153.9 -91.25 0
v -150.48 -91.25 0
v -153.9 -96.25 0
v -157.32 -96.25 0
v -157.32 -93.75 0
v -153.9 -93.75 0
v -123.12 -76.25 0
v -126.54 -76.25 0
v -126.54 -73.75 0
v -123.12 -73.75 0
v -140.22 -88.75 0
v -143.64 -88.75 0
v -143.64 -86.25 0
v -140.22 -86.25 0
v -150.48 -96.25 0
v -153.9 -96.25 0
v -153.9 -93.75 0
v -150.48 -93.75 0
v -155.61 -100 0
v -159.03 -100 0
v -159.03 -97.5 0
v -155.61 -97.5 0
v -157.32 -101.25 0
v -160.74 -101.25 0
v -160.74 -98.75 0
v -157.32 -98.75 0
v -121.41 -77.5 0
v -124.83 -77.5 0
v -124.83 -75 0
v -121.41 -75 0
v -138.51 -90 0
v -141.93 -90 0
v -141.93 -87.5 0
v -138.51 -87.5 0
v -140.22 -91.25 0
v -143.64 -91.25 0
v -143.64 -88.75 0
v -140.22 -88.75 0
v -152.19 -100 0
v -155.61 -100 0
v -155.61 -97.5 0
v -152.19 -97.5 0
v -157.32 -103.75 0
v -160.74 -103.75 0
v -160.74 -101.25 0
v -157.32 -101.25 0
v -119.7 -78.75 0
v -123.12 -78.75 0
v -123.12 -76.25 0
v -119.7 -76.25 0
v -140.22 -93.75 0
v -143.64 -93.75 0
v -143.64 -91.25 0
v -140.22 -91.25 0
v -155.61 -105 0
v -159.03 -105 0
v -159.03 -102.5 0
v -155.61 -102.5 0
v -117.99 -80 0
v -121.41 -80 0
v -121.41 -77.5 0
v -117.99 -77.5 0
v -141.93 -97.5 0
v -145.35 -97.5 0
v -145.35 -95 0
v -141.93 -95 0
v -147.06 -101.25 0
v -150.48 -101.25 0
v -150.48 -98.75 0
v -147.06 -98.75 0
v -153.9 -106.25 0
v -157.32 -106.25 0
v -157.32 -103.75 0
v -153.9 -103.75 0
v -114.57 -80 0
v -117.99 -80 0
v -117.99 -77.5 0
v -114.57 -77.5 0
v -138.51 -97.5 0
v -141.93 -97.5 0
v -141.93 -95 0
v -138.51 -95 0
v -147.06 -103.75 0
v -150.48 -103.75 0
v -150.48 -101.25 0
v -147.06 -101.25 0
v -150.48 -106.25 0
v -153.9 -106.25 0
v -153.9 -103.75 0
v -150.48 -103.75 0
v -112.86 -81.25 0
v -116.28 -81.25 0
v -116.28 -78.75 0
v -112.86 -78.75 0
v -131.67 -95 0
v -135.09 -95 0
v -135.09 -92.5 0
v -131.67 -92.5 0
v -133.38 -96.25 0
v -136.8 -96.25 0
v -136.8 -93.75 0
v -133.38 -93.75 0
v -135.09 -97.5 0
v -138.51 -97.5 0
v -138.51 -95 0
v -135.09 -95 0
v -147.06 -106.25 0
v -150.48 -106.25 0
v -150.48 -103.75 0
v -147.06 -103.75 0
v -112.86 -83.75 0
v -116.28 -83.75 0
v -116.28 -81.25 0
v -112.86 -81.25 0
v -129.96 -96.25 0
v -133.38 -96.25 0
v -133.38 -93.75 0
v -129.96 -93.75 0
v -111.15 -85 0
v -114.57 -85 0
v -114.57 -82.5 0
v -111.15 -82.5 0
v -128.25 -97.5 0
v -131.67 -97.5 0
v -131.67 -95 0
v -128.25 -95 0
v -129.96 -98.75 0
v -133.38 -98.75 0
v -133.38 -96.25 0
v -129.96 -96.25 0
v -131.67 -100 0
v -135.09 -100 0
v -135.09 -97.5 0
v -131.67 -97.5 0
v -133.38 -101.25 0
v -136.8 -101.25 0
v -136.8 -98.75 0
v -133.38 -98.75 0
v -135.09 -102.5 0
v -138.51 -102.5 0
v -138.51 -100 0
v -135.09 -100 0
v -136.8 -103.75 0
v -140.22 -103.75 0
v -140.22 -101.25 0
v -136.8 -101.25 0
v -138.51 -105 0
v -141.93 -105 0
v -141.93 -102.5 0
v -138.51 -102.5 0
v -140.22 -106.25 0
v -143.64 -106.25 0
v -143.64 -103.75 0
v -140.22 -103.75 0
v -141.93 -107.5 0
v -145.35 -107.5 0
v -145.35 -105 0
v -141.93 -105 0
v -143.64 -108.75 0
v -147.06 -108.75 0
v -147.06 -106.25 0
v -143.64 -106.25 0
v -109.44 -86.25 0
v -112.86 -86.25 0
v -112.86 -83.75 0
v -109.44 -83.75 0
v -143.64 -111.25 0
v -147.06 -111.25 0
v -147.06 -108.75 0
v -143.64 -108.75 0
v -152.19 -117.5 0
v -155.61 -117.5 0
v -155.61 -115 0
v -152.19 -115 0
v -107.73 -87.5 0
v -111.15 -87.5 0
v -111.15 -85 0
v -107.73 -85 0
v -141.93 -112.5 0
v -145.35 -112.5 0
v -145.35 -110 0
v -141.93 -110 0
v -148.77 -117.5 0
v -152.19 -117.5 0
v -152.19 -115 0
v -148.77 -115 0
v -152.19 -120 0
v -155.61 -120 0
v -155.61 -117.5 0
v -152.19 -117.5 0
v -106.02 -88.75 0
v -109.44 -88.75 0
v -109.44 -86.25 0
v -106.02 -86.25 0
v -140.22 -113.75 0
v -143.64 -113.75 0
v -143.64 -111.25 0
v -140.22 -111.25 0
v -141.93 -115 0
v -145.35 -115 0
v -145.35 -112.5 0
v -141.93 -112.5 0
v -143.64 -116.25 0
v -147.06 -116.25 0
v -147.06 -113.75 0
v -143.64 -113.75 0
v -145.35 -117.5 0
v -148.77 -117.5 0
v -148.77 -115 0
v -145.35 -115 0
v -147.06 -118.75 0
v -150.48 -118.75 0
v -150.48 -116.25 0
v -147.06 -116.25 0
v -104.31 -90 0
v -107.73 -90 0
v -107.73 -87.5 0
v -104.31 -87.5 0
v -148.77 -122.5 0
v -152.19 -122.5 0
v -152.19 -120 0
v -148.77 -120 0
v -102.6 -91.25 0
v -106.02 -91.25 0
v -106.02 -88.75 0
v -102.6 -88.75 0
v -147.06 -123.75 0
v -150.48 -123.75 0
v -150.48 -121.25 0
v -147.06 -121.25 0
v -141.93 -122.5 0
v -145.35 -122.5 0
v -145.35 -120 0
v -141.93 -120 0
v -143.64 -123.75 0
v -147.06 -123.75 0
v -147.06 -121.25 0
v -143.64 -121.25 0
v -99.18 -93.75 0
v -102.6 -93.75 0
v -102.6 -91.25 0
v -99.18 -91.25 0
v -140.22 -123.75 0
v -143.64 -123.75 0
v -143.64 -121.25 0
v -140.22 -121.25 0
v -141.93 -125 0
v -145.35 -125 0
v -145.35 -122.5 0
v -141.93 -122.5 0
v -143.64 -126.25 0
v -147.06 -126.25 0
v -147.06 -123.75 0
v -143.64 -123.75 0
v -97.47 -95 0
v -100.89 -95 0
v -100.89 -92.5 0
v -97.47 -92.5 0
v -143.64 -128.75 0
v -147.06 -128.75 0
v -147.06 -126.25 0
v -143.64 -126.25 0
v -95.75999 -96.25 0
v -99.18 -96.25 0
v -99.18 -93.75 0
v -95.75999 -93.75 0
v -141.93 -130 0
v -145.35 -130 0
v -145.35 -127.5 0
v -141.93 -127.5 0
v -94.05 -97.5 0
v -97.47 -97.5 0
v -97.47 -95 0
v -94.05 -95 0
v -92.34 -98.75 0
v -95.75999 -98.75 0
v -95.75999 -96.25 0
v -92.34 -96.25 0
v -136.8 -131.25 0
v -140.22 -131.25 0
v -140.22 -128.75 0
v -136.8 -128.75 0
v -90.63 -100 0
v -94.05 -100 0
v -94.05 -97.5 0
v -90.63 -97.5 0
v -135.09 -132.5 0
v -138.51 -132.5 0
v -138.51 -130 0
v -135.09 -130 0
v -141.93 -137.5 0
v -145.35 -137.5 0
v -145.35 -135 0
v -141.93 -135 0
v -143.64 -138.75 0
v -147.06 -138.75 0
v -147.06 -136.25 0
v -143.64 -136.25 0
v -145.35 -140 0
v -148.77 -140 0
v -148.77 -137.5 0
v -145.35 -137.5 0
v -87.21 -100 0
v -90.63 -100 0
v -90.63 -97.5 0
v -87.21 -97.5 0
v -135.09 -135 0
v -138.51 -135 0
v -138.51 -132.5 0
v -135.09 -132.5 0
v -138.51 -137.5 0
v -141.93 -137.5 0
v -141.93 -135 0
v -138.51 -135 0
v -145.35 -142.5 0
v -148.77 -142.5 0
v -148.77 -140 0
v -145.35 -140 0
v -85.5 -101.25 0
v -88.92 -101.25 0
v -88.92 -98.75 0
v -85.5 -98.75 0
v -135.09 -137.5 0
v -138.51 -137.5 0
v -138.51 -135 0
v -135.09 -135 0
v -138.51 -140 0
v -141.93 -140 0
v -141.93 -137.5 0
v -138.51 -137.5 0
v -140.22 -141.25 0
v -143.64 -141.25 0
v -143.64 -138.75 0
v -140.22 -138.75 0
v -141.93 -142.5 0
v -145.35 -142.5 0
v -145.35 -140 0
v -141.93 -140 0
v -83.79 -102.5 0
v -87.21 -102.5 0
v -87.21 -100 0
v -83.79 -100 0
v -106.02 -118.75 0
v -109.44 -118.75 0
v -109.44 -116.25 0
v -106.02 -116.25 0
v -107.73 -120 0
v -111.15 -120 0
v -111.15 -117.5 0
v -107.73 -117.5 0
v -109.44 -121.25 0
v -112.86 -121.25 0
v -112.86 -118.75 0
v -109.44 -118.75 0
v -131.67 -137.5 0
v -135.09 -137.5 0
v -135.09 -135 0
v -131.67 -135 0
v -135.09 -140 0
v -138.51 -140 0
v -138.51 -137.5 0
v -135.09 -137.5 0
v -82.08 -103.75 0
v -85.5 -103.75 0
v -85.5 -101.25 0
v -82.08 -101.25 0
v -104.31 -120 0
v -107.73 -120 0
v -107.73 -117.5 0
v -104.31 -117.5 0
v -109.44 -123.75 0
v -112.86 -123.75 0
v -112.86 -121.25 0
v -109.44 -121.25 0
v -117.99 -130 0
v -121.41 -130 0
v -121.41 -127.5 0
v -117.99 -127.5 0
v -119.7 -131.25 0
v -123.12 -131.25 0
v -123.12 -128.75 0
v -119.7 -128.75 0
v -121.41 -132.5 0
v -124.83 -132.5 0
v -124.83 -130 0
v -121.41 -130 0
v -123.12 -133.75 0
v -126.54 -133.75 0
v -126.54 -131.25 0
v -123.12 -131.25 0
v -124.83 -135 0
v -128.25 -135 0
v -128.25 -132.5 0
v -124.83 -132.5 0
v -126.54 -136.25 0
v -129.96 -136.25 0
v -129.96 -133.75 0
v -126.54 -133.75 0
v -128.25 -137.5 0
v -131.67 -137.5 0
v -131.67 -135 0
v -128.25 -135 0
v -78.66 -103.75 0
v -82.08 -103.75 0
v -82.08 -101.25 0
v -78.66 -101.25 0
v -102.6 -121.25 0
v -106.02 -121.25 0
v -106.02 -118.75 0
v -102.6 -118.75 0
v -107.73 -125 0
v -111.15 -125 0
v -111.15 -122.5 0
v -107.73 -122.5 0
v -116.28 -131.25 0
v -119.7 -131.25 0
v -119.7 -128.75 0
v -116.28 -128.75 0
v -76.95 -105 0
v -80.37 -105 0
v -80.37 -102.5 0
v -76.95 -102.5 0
v -100.89 -122.5 0
v -104.31 -122.5 0
v -104.31 -120 0
v -100.89 -120 0
v -106.02 -126.25 0
v -109.44 -126.25 0
v -109.44 -123.75 0
v -106.02 -123.75 0
v -114.57 -132.5 0
v -117.99 -132.5 0
v -117.99 -130 0
v -114.57 -130 0
v -75.24 -106.25 0
v -78.66 -106.25 0
v -78.66 -103.75 0
v -75.24 -103.75 0
v -99.18 -123.75 0
v -102.6 -123.75 0
v -102.6 -121.25 0
v -99.18 -121.25 0
v -104.31 -127.5 0
v -107.73 -127.5 0
v -107.73 -125 0
v -104.31 -125 0
v -112.86 -133.75 0
v -116.28 -133.75 0
v -116.28 -131.25 0
v -112.86 -131.25 0
v -73.53 -107.5 0
v -76.95 -107.5 0
v -76.95 -105 0
v -73.53 -105 0
v -99.18 -126.25 0
v -102.6 -126.25 0
v -102.6 -123.75 0
v -99.18 -123.75 0
v -104.31 -130 0
v -107.73 -130 0
v -107.73 -127.5 0
v -104.31 -127.5 0
v -109.44 -133.75 0
v -112.86 -133.75 0
v -112.86 -131.25 0
v -109.44 -131.25 0
v -73.53 -110 0
v -76.95 -110 0
v -76.95 -107.5 0
v -73.53 -107.5 0
v -97.47 -127.5 0
v -100.89 -127.5 0
v -100.89 -125 0
v -97.47 -125 0
v -104.31 -132.5 0
v -107.73 -132.5 0
v -107.73 -130 0
v -104.31 -130 0
v -106.02 -133.75 0
v -109.44 -133.75 0
v -109.44 -131.25 0
v -106.02 -131.25 0
v -71.82 -111.25 0
v -75.24 -111.25 0
v -75.24 -108.75 0
v -71.82 -108.75 0
v -95.75999 -128.75 0
v -99.18 -128.75 0
v -99.18 -126.25 0
v -95.75999 -126.25 0
v -121.41 -147.5 0
v -124.83 -147.5 0
v -124.83 -145 0
v -121.41 -145 0
v -123.12 -148.75 0
v -126.54 -148.75 0
v -126.54 -146.25 0
v -123.12 -146.25 0
v -70.11 -112.5 0
v -73.53 -112.5 0
v -73.53 -110 0
v -70.11 -110 0
v -94.05 -130 0
v -97.47 -130 0
v -97.47 -127.5 0
v -94.05 -127.5 0
v -117.99 -147.5 0
v -121.41 -147.5 0
v -121.41 -145 0
v -117.99 -145 0
v -123.12 -151.25 0
v -126.54 -151.25 0
v -126.54 -148.75 0
v -123.12 -148.75 0
v -68.4 -113.75 0
v -71.82 -113.75 0
v -71.82 -111.25 0
v -68.4 -111.25 0
v -92.34 -131.25 0
v -95.75999 -131.25 0
v -95.75999 -128.75 0
v -92.34 -128.75 0
v -104.31 -140 0
v -107.73 -140 0
v -107.73 -137.5 0
v -104.31 -137.5 0
v -121.41 -152.5 0
v -124.83 -152.5 0
v -124.83 -150 0
v -121.41 -150 0
v -66.68999 -115 0
v -70.11 -115 0
v -70.11 -112.5 0
v -66.68999 -112.5 0
v -90.63 -132.5 0
v -94.05 -132.5 0
v -94.05 -130 0
v -90.63 -130 0
v -100.89 -140 0
v -104.31 -140 0
v -104.31 -137.5 0
v -100.89 -137.5 0
v -106.02 -143.75 0
v -109.44 -143.75 0
v -109.44 -141.25 0
v -106.02 -141.25 0
v -107.73 -145 0
v -111.15 -145 0
v -111.15 -142.5 0
v -107.73 -142.5 0
v -109.44 -146.25 0
v -112.86 -146.25 0
v -112.86 -143.75 0
v -109.44 -143.75 0
v -111.15 -147.5 0
v -114.57 -147.5 0
v -114.57 -145 0
v -111.15 -145 0
v -66.68999 -117.5 0
v -70.11 -117.5 0
v -70.11 -115 0
v -66.68999 -115 0
v -68.4 -118.75 0
v -71.82 -118.75 0
v -71.82 -116.25 0
v -68.4 -116.25 0
v -70.11 -120 0
v -73.53 -120 0
v -73.53 -117.5 0
v -70.11 -117.5 0
v -83.79 -130 0
v -87.21 -130 0
v -87.21 -127.5 0
v -83.79 -127.5 0
v -85.5 -131.25 0
v -88.92 -131.25 0
v -88.92 -128.75 0
v -85.5 -128.75 0
v -87.21 -132.5 0
v -90.63 -132.5 0
v -90.63 -130 0
v -87.21 -130 0
v -97.47 -140 0
v -100.89 -140 0
v -100.89 -137.5 0
v -97.47 -137.5 0
v -99.18 -141.25 0
v -102.6 -141.25 0
v -102.6 -138.75 0
v -99.18 -138.75 0
v -117.99 -155 0
v -121.41 -155 0
v -121.41 -152.5 0
v -117.99 -152.5 0
v -68.4 -121.25 0
v -71.82 -121.25 0
v -71.82 -118.75 0
v -68.4 -118.75 0
v -82.08 -131.25 0
v -85.5 -131.25 0
v -85.5 -128.75 0
v -82.08 -128.75 0
v -114.57 -155 0
v -117.99 -155 0
v -117.99 -152.5 0
v -114.57 -152.5 0
v -68.4 -123.75 0
v -71.82 -123.75 0
v -71.82 -121.25 0
v -68.4 -121.25 0
v -71.82 -126.25 0
v -75.24 -126.25 0
v -75.24 -123.75 0
v -71.82 -123.75 0
v -75.24 -128.75 0
v -78.66 -128.75 0
v -78.66 -126.25 0
v -75.24 -126.25 0
v -80.37 -132.5 0
v -83.79 -132.5 0
v -83.79 -130 0
v -80.37 -130 0
v -92.34 -141.25 0
v -95.75999 -141.25 0
v -95.75999 -138.75 0
v -92.34 -138.75 0
v -112.86 -156.25 0
v -116.28 -156.25 0
v -116.28 -153.75 0
v -112.86 -153.75 0
v -71.82 -128.75 0
v -75.24 -128.75 0
v -75.24 -126.25 0
v -71.82 -126.25 0
v -88.92 -141.25 0
v -92.34 -141.25 0
v -92.34 -138.75 0
v -88.92 -138.75 0
v -109.44 -156.25 0
v -112.86 -156.25 0
v -112.86 -153.75 0
v -109.44 -153.75 0
v -64.98 -126.25 0
v -68.4 -126.25 0
v -68.4 -123.75 0
v -64.98 -123.75 0
v -75.24 -133.75 0
v -78.66 -133.75 0
v -78.66 -131.25 0
v -75.24 -131.25 0
v -85.5 -141.25 0
v -88.92 -141.25 0
v -88.92 -138.75 0
v -85.5 -138.75 0
v -106.02 -156.25 0
v -109.44 -156.25 0
v -109.44 -153.75 0
v -106.02 -153.75 0
v -64.98 -128.75 0
v -68.4 -128.75 0
v -68.4 -126.25 0
v -64.98 -126.25 0
v -73.53 -135 0
v -76.95 -135 0
v -76.95 -132.5 0
v -73.53 -132.5 0
v -85.5 -143.75 0
v -88.92 -143.75 0
v -88.92 -141.25 0
v -85.5 -141.25 0
v -102.6 -156.25 0
v -106.02 -156.25 0
v -106.02 -153.75 0
v -102.6 -153.75 0
v -64.98 -131.25 0
v -68.4 -131.25 0
v -68.4 -128.75 0
v -64.98 -128.75 0
v -70.11 -135 0
v -73.53 -135 0
v -73.53 -132.5 0
v -70.11 -132.5 0
v -85.5 -146.25 0
v -88.92 -146.25 0
v -88.92 -143.75 0
v -85.5 -143.75 0
v -99.18 -156.25 0
v -102.6 -156.25 0
v -102.6 -153.75 0
v -99.18 -153.75 0
v -61.56 -131.25 0
v -64.98 -131.25 0
v -64.98 -128.75 0
v -61.56 -128.75 0
v -66.68999 -135 0
v -70.11 -135 0
v -70.11 -132.5 0
v -66.68999 -132.5 0
v -63.27 -135 0
v -66.68999 -135 0
v -66.68999 -132.5 0
v -63.27 -132.5 0
v -82.08 -148.75 0
v -85.5 -148.75 0
v -85.5 -146.25 0
v -82.08 -146.25 0
v -92.34 -156.25 0
v -95.75999 -156.25 0
v -95.75999 -153.75 0
v -92.34 -153.75 0
v -94.05 -157.5 0
v -97.47 -157.5 0
v -97.47 -155 0
v -94.05 -155 0
v -88.92 -156.25 0
v -92.34 -156.25 0
v -92.34 -153.75 0
v -88.92 -153.75 0
v -56.43 -135 0
v -59.85 -135 0
v -59.85 -132.5 0
v -56.43 -132.5 0
v -80.37 -152.5 0
v -83.79 -152.5 0
v -83.79 -150 0
v -80.37 -150 0
v -82.08 -153.75 0
v -85.5 -153.75 0
v -85.5 -151.25 0
v -82.08 -151.25 0
v -83.79 -155 0
v -87.21 -155 0
v -87.21 -152.5 0
v -83.79 -152.5 0
v -85.5 -156.25 0
v -88.92 -156.25 0
v -88.92 -153.75 0
v -85.5 -153.75 0

# Texture cooridinates (Count = 4)
vt 1 0
vt 0 0
vt 0 1
vt 1 1

# Normal
vn 0 0 -1

# Mesh description
g GameMap_mesh_0038

# Faces
f 1/1/1 2/2/1 3/3/1 4/4/1
f 5/2/1 6/1/1 7/4/1 8/3/1
f 9/4/1 10/3/1 11/2/1 12/1/1
f 13/1/1 14/2/1 15/3/1 16/4/1
f 17/2/1 18/1/1 19/4/1 20/3/1
f 21/4/1 22/3/1 23/2/1 24/1/1
f 25/2/1 26/1/1 27/4/1 28/3/1
f 29/4/1 30/3/1 31/2/1 32/1/1
f 33/1/1 34/2/1 35/3/1 36/4/1
f 37/3/1 38/4/1 39/1/1 40/2/1
f 41/4/1 42/3/1 43/2/1 44/1/1
f 45/1/1 46/2/1 47/3/1 48/4/1
f 49/1/1 50/2/1 51/3/1 52/4/1
f 53/1/1 54/2/1 55/3/1 56/4/1
f 57/2/1 58/1/1 59/4/1 60/3/1
f 61/4/1 62/3/1 63/2/1 64/1/1
f 65/2/1 66/1/1 67/4/1 68/3/1
f 69/4/1 70/3/1 71/2/1 72/1/1
f 73/1/1 74/2/1 75/3/1 76/4/1
f 77/2/1 78/1/1 79/4/1 80/3/1
f 81/4/1 82/3/1 83/2/1 84/1/1
f 85/2/1 86/1/1 87/4/1 88/3/1
f 89/3/1 90/4/1 91/1/1 92/2/1
f 93/3/1 94/4/1 95/1/1 96/2/1
f 97/4/1 98/3/1 99/2/1 100/1/1
f 101/4/1 102/3/1 103/2/1 104/1/1
f 105/4/1 106/3/1 107/2/1 108/1/1
f 109/3/1 110/4/1 111/1/1 112/2/1
f 113/3/1 114/4/1 115/1/1 116/2/1
f 117/2/1 118/1/1 119/4/1 120/3/1
f 121/3/1 122/4/1 123/1/1 124/2/1
f 125/4/1 126/3/1 127/2/1 128/1/1
f 129/1/1 130/2/1 131/3/1 132/4/1
f 133/3/1 134/4/1 135/1/1 136/2/1
f 137/3/1 138/4/1 139/1/1 140/2/1
f 141/2/1 142/1/1 143/4/1 144/3/1
f 145/4/1 146/3/1 147/2/1 148/1/1
f 149/1/1 150/2/1 151/3/1 152/4/1
f 153/1/1 154/2/1 155/3/1 156/4/1
f 157/1/1 158/2/1 159/3/1 160/4/1
f 161/1/1 162/2/1 163/3/1 164/4/1
f 165/1/1 166/2/1 167/3/1 168/4/1
f 169/1/1 170/2/1 171/3/1 172/4/1
f 173/1/1 174/2/1 175/3/1 176/4/1
f 177/1/1 178/2/1 179/3/1 180/4/1
f 181/1/1 182/2/1 183/3/1 184/4/1
f 185/2/1 186/1/1 187/4/1 188/3/1
f 189/4/1 190/3/1 191/2/1 192/1/1
f 193/2/1 194/1/1 195/4/1 196/3/1
f 197/4/1 198/3/1 199/2/1 200/1/1
f 201/3/1 202/4/1 203/1/1 204/2/1
f 205/1/1 206/2/1 207/3/1 208/4/1
f 209/1/1 210/2/1 211/3/1 212/4/1
f 213/2/1 214/1/1 215/4/1 216/3/1
f 217/4/1 218/3/1 219/2/1 220/1/1
f 221/1/1 222/2/1 223/3/1 224/4/1
f 225/1/1 226/2/1 227/3/1 228/4/1
f 229/4/1 230/3/1 231/2/1 232/1/1
f 233/2/1 234/1/1 235/4/1 236/3/1
f 237/1/1 238/2/1 239/3/1 240/4/1
f 241/4/1 242/3/1 243/2/1 244/1/1
f 245/2/1 246/1/1 247/4/1 248/3/1
f 249/4/1 250/3/1 251/2/1 252/1/1
f 253/2/1 254/1/1 255/4/1 256/3/1
f 257/4/1 258/3/1 259/2/1 260/1/1
f 261/2/1 262/1/1 263/4/1 264/3/1
f 265/3/1 266/4/1 267/1/1 268/2/1
f 269/2/1 270/1/1 271/4/1 272/3/1
f 273/4/1 274/3/1 275/2/1 276/1/1
f 277/2/1 278/1/1 279/4/1 280/3/1
f 281/4/1 282/3/1 283/2/1 284/1/1
f 285/3/1 286/4/1 287/1/1 288/2/1
f 289/3/1 290/4/1 291/1/1 292/2/1
f 293/3/1 294/4/1 295/1/1 296/2/1
f 297/2/1 298/1/1 299/4/1 300/3/1
f 301/4/1 302/3/1 303/2/1 304/1/1
f 305/2/1 306/1/1 307/4/1 308/3/1
f 309/4/1 310/3/1 311/2/1 312/1/1
f 313/1/1 314/2/1 315/3/1 316/4/1
f 317/1/1 318/2/1 319/3/1 320/4/1
f 321/1/1 322/2/1 323/3/1 324/4/1
f 325/1/1 326/2/1 327/3/1 328/4/1
f 329/1/1 330/2/1 331/3/1 332/4/1
f 333/1/1 334/2/1 335/3/1 336/4/1
f 337/1/1 338/2/1 339/3/1 340/4/1
f 341/1/1 342/2/1 343/3/1 344/4/1
f 345/1/1 346/2/1 347/3/1 348/4/1
f 349/2/1 350/1/1 351/4/1 352/3/1
f 353/4/1 354/3/1 355/2/1 356/1/1
f 357/1/1 358/2/1 359/3/1 360/4/1
f 361/2/1 362/1/1 363/4/1 364/3/1
f 365/4/1 366/3/1 367/2/1 368/1/1
f 369/2/1 370/1/1 371/4/1 372/3/1
f 373/4/1 374/3/1 375/2/1 376/1/1
f 377/2/1 378/1/1 379/4/1 380/3/1
f 381/4/1 382/3/1 383/2/1 384/1/1
f 385/1/1 386/2/1 387/3/1 388/4/1
f 389/1/1 390/2/1 391/3/1 392/4/1
f 393/1/1 394/2/1 395/3/1 396/4/1
f 397/1/1 398/2/1 399/3/1 400/4/1
f 401/2/1 402/1/1 403/4/1 404/3/1
f 405/4/1 406/3/1 407/2/1 408/1/1
f 409/2/1 410/1/1 411/4/1 412/3/1
f 413/4/1 414/3/1 415/2/1 416/1/1
f 417/3/1 418/4/1 419/1/1 420/2/1
f 421/3/1 422/4/1 423/1/1 424/2/1
f 425/2/1 426/1/1 427/4/1 428/3/1
f 429/1/1 430/2/1 431/3/1 432/4/1
f 433/1/1 434/2/1 435/3/1 436/4/1
f 437/1/1 438/2/1 439/3/1 440/4/1
f 441/2/1 442/1/1 443/4/1 444/3/1
f 445/4/1 446/3/1 447/2/1 448/1/1
f 449/2/1 450/1/1 451/4/1 452/3/1
f 453/4/1 454/3/1 455/2/1 456/1/1
f 457/2/1 458/1/1 459/4/1 460/3/1
f 461/2/1 462/1/1 463/4/1 464/3/1
f 465/4/1 466/3/1 467/2/1 468/1/1
f 469/2/1 470/1/1 471/4/1 472/3/1
f 473/1/1 474/2/1 475/3/1 476/4/1
f 477/1/1 478/2/1 479/3/1 480/4/1
f 481/1/1 482/2/1 483/3/1 484/4/1
f 485/1/1 486/2/1 487/3/1 488/4/1
f 489/2/1 490/1/1 491/4/1 492/3/1
f 493/4/1 494/3/1 495/2/1 496/1/1
f 497/2/1 498/1/1 499/4/1 500/3/1
f 501/4/1 502/3/1 503/2/1 504/1/1
f 505/2/1 506/1/1 507/4/1 508/3/1
f 509/4/1 510/3/1 511/2/1 512/1/1
f 513/3/1 514/4/1 515/1/1 516/2/1
f 517/3/1 518/4/1 519/1/1 520/2/1
f 521/3/1 522/4/1 523/1/1 524/2/1
f 525/2/1 526/1/1 527/4/1 528/3/1
f 529/4/1 530/3/1 531/2/1 532/1/1
f 533/3/1 534/4/1 535/1/1 536/2/1
f 537/2/1 538/1/1 539/4/1 540/3/1
f 541/4/1 542/3/1 543/2/1 544/1/1
f 545/3/1 546/4/1 547/1/1 548/2/1
f 549/2/1 550/1/1 551/4/1 552/3/1
f 553/4/1 554/3/1 555/2/1 556/1/1
f 557/2/1 558/1/1 559/4/1 560/3/1
f 561/4/1 562/3/1 563/2/1 564/1/1
f 565/3/1 566/4/1 567/1/1 568/2/1
f 569/3/1 570/4/1 571/1/1 572/2/1
f 573/3/1 574/4/1 575/1/1 576/2/1
f 577/3/1 578/4/1 579/1/1 580/2/1
f 581/3/1 582/4/1 583/1/1 584/2/1
f 585/3/1 586/4/1 587/1/1 588/2/1
f 589/2/1 590/1/1 591/4/1 592/3/1
f 593/4/1 594/3/1 595/2/1 596/1/1
f 597/2/1 598/1/1 599/4/1 600/3/1
f 601/4/1 602/3/1 603/2/1 604/1/1
f 605/2/1 606/1/1 607/4/1 608/3/1
f 609/4/1 610/3/1 611/2/1 612/1/1
f 613/2/1 614/1/1 615/4/1 616/3/1
f 617/4/1 618/3/1 619/2/1 620/1/1
f 621/2/1 622/1/1 623/4/1 624/3/1
f 625/4/1 626/3/1 627/2/1 628/1/1
f 629/2/1 630/1/1 631/4/1 632/3/1
f 633/4/1 634/3/1 635/2/1 636/1/1
f 637/2/1 638/1/1 639/4/1 640/3/1
f 641/4/1 642/3/1 643/2/1 644/1/1
f 645/3/1 646/4/1 647/1/1 648/2/1
f 649/3/1 650/4/1 651/1/1 652/2/1
f 653/2/1 654/1/1 655/4/1 656/3/1
f 657/4/1 658/3/1 659/2/1 660/1/1
f 661/3/1 662/4/1 663/1/1 664/2/1
f 665/3/1 666/4/1 667/1/1 668/2/1
f 669/2/1 670/1/1 671/4/1 672/3/1
f 673/4/1 674/3/1 675/2/1 676/1/1
f 677/1/1 678/2/1 679/3/1 680/4/1
f 681/1/1 682/2/1 683/3/1 684/4/1
f 685/2/1 686/1/1 687/4/1 688/3/1
f 689/4/1 690/3/1 691/2/1 692/1/1
f 693/1/1 694/2/1 695/3/1 696/4/1
f 697/4/1 698/3/1 699/2/1 700/1/1
f 701/2/1 702/1/1 703/4/1 704/3/1
f 705/4/1 706/3/1 707/2/1 708/1/1
f 709/1/1 710/2/1 711/3/1 712/4/1
f 713/4/1 714/3/1 715/2/1 716/1/1
f 717/2/1 718/1/1 719/4/1 720/3/1
f 721/4/1 722/3/1 723/2/1 724/1/1
f 725/2/1 726/1/1 727/4/1 728/3/1
f 729/1/1 730/2/1 731/3/1 732/4/1
f 733/1/1 734/2/1 735/3/1 736/4/1
f 737/1/1 738/2/1 739/3/1 740/4/1
f 741/1/1 742/2/1 743/3/1 744/4/1
f 745/3/1 746/4/1 747/1/1 748/2/1
f 749/3/1 750/4/1 751/1/1 752/2/1
f 753/3/1 754/4/1 755/1/1 756/2/1
f 757/3/1 758/4/1 759/1/1 760/2/1
f 761/3/1 762/4/1 763/1/1 764/2/1
f 765/3/1 766/4/1 767/1/1 768/2/1
f 769/1/1 770/2/1 771/3/1 772/4/1
f 773/1/1 774/2/1 775/3/1 776/4/1
f 777/4/1 778/3/1 779/2/1 780/1/1
f 781/2/1 782/1/1 783/4/1 784/3/1
f 785/4/1 786/3/1 787/2/1 788/1/1
f 789/3/1 790/4/1 791/1/1 792/2/1
f 793/3/1 794/4/1 795/1/1 796/2/1
f 797/3/1 798/4/1 799/1/1 800/2/1
f 801/3/1 802/4/1 803/1/1 804/2/1
f 805/4/1 806/3/1 807/2/1 808/1/1
f 809/2/1 810/1/1 811/4/1 812/3/1
f 813/4/1 814/3/1 815/2/1 816/1/1
f 817/2/1 818/1/1 819/4/1 820/3/1
f 821/1/1 822/2/1 823/3/1 824/4/1
f 825/3/1 826/4/1 827/1/1 828/2/1
f 829/2/1 830/1/1 831/4/1 832/3/1
f 833/3/1 834/4/1 835/1/1 836/2/1
f 837/2/1 838/1/1 839/4/1 840/3/1
f 841/3/1 842/4/1 843/1/1 844/2/1
f 845/2/1 846/1/1 847/4/1 848/3/1
f 849/4/1 850/3/1 851/2/1 852/1/1
f 853/2/1 854/1/1 855/4/1 856/3/1
f 857/3/1 858/4/1 859/1/1 860/2/1
f 861/2/1 862/1/1 863/4/1 864/3/1
f 865/4/1 866/3/1 867/2/1 868/1/1
f 869/2/1 870/1/1 871/4/1 872/3/1
f 873/4/1 874/3/1 875/2/1 876/1/1
f 877/2/1 878/1/1 879/4/1 880/3/1
f 881/3/1 882/4/1 883/1/1 884/2/1
f 885/3/1 886/4/1 887/1/1 888/2/1
f 889/2/1 890/1/1 891/4/1 892/3/1
f 893/4/1 894/3/1 895/2/1 896/1/1
f 897/3/1 898/4/1 899/1/1 900/2/1
f 901/3/1 902/4/1 903/1/1 904/2/1
f 905/3/1 906/4/1 907/1/1 908/2/1
f 909/3/1 910/4/1 911/1/1 912/2/1
f 913/3/1 914/4/1 915/1/1 916/2/1
f 917/3/1 918/4/1 919/1/1 920/2/1
f 921/3/1 922/4/1 923/1/1 924/2/1

