# Tiled2Unity generated file. Do not modify by hand.
# Wavefront file for 'GameMap_mesh_0019.obj'

# Vertices (Count = 104)
v -258.21 -90 0
v -261.63 -90 0
v -261.63 -87.43 0
v -258.21 -87.43 0
v -256.5 -91.25 0
v -259.92 -91.25 0
v -259.92 -88.68 0
v -256.5 -88.68 0
v -258.21 -92.5 0
v -261.63 -92.5 0
v -261.63 -89.93 0
v -258.21 -89.93 0
v -256.5 -93.75 0
v -259.92 -93.75 0
v -259.92 -91.18 0
v -256.5 -91.18 0
v -258.21 -95 0
v -261.63 -95 0
v -261.63 -92.43 0
v -258.21 -92.43 0
v -256.5 -96.25 0
v -259.92 -96.25 0
v -259.92 -93.68 0
v -256.5 -93.68 0
v -258.21 -97.5 0
v -261.63 -97.5 0
v -261.63 -94.93 0
v -258.21 -94.93 0
v -256.5 -98.75 0
v -259.92 -98.75 0
v -259.92 -96.18 0
v -256.5 -96.18 0
v -194.94 -106.25 0
v -198.36 -106.25 0
v -198.36 -103.68 0
v -194.94 -103.68 0
v -191.52 -106.25 0
v -194.94 -106.25 0
v -194.94 -103.68 0
v -191.52 -103.68 0
v -193.23 -107.5 0
v -196.65 -107.5 0
v -196.65 -104.93 0
v -193.23 -104.93 0
v -188.1 -106.25 0
v -191.52 -106.25 0
v -191.52 -103.68 0
v -188.1 -103.68 0
v -189.81 -107.5 0
v -193.23 -107.5 0
v -193.23 -104.93 0
v -189.81 -104.93 0
v -184.68 -106.25 0
v -188.1 -106.25 0
v -188.1 -103.68 0
v -184.68 -103.68 0
v -186.39 -107.5 0
v -189.81 -107.5 0
v -189.81 -104.93 0
v -186.39 -104.93 0
v -182.97 -107.5 0
v -186.39 -107.5 0
v -186.39 -104.93 0
v -182.97 -104.93 0
v -164.16 -111.25 0
v -167.58 -111.25 0
v -167.58 -108.68 0
v -164.16 -108.68 0
v -165.87 -112.5 0
v -169.29 -112.5 0
v -169.29 -109.93 0
v -165.87 -109.93 0
v -164.16 -113.75 0
v -167.58 -113.75 0
v -167.58 -111.18 0
v -164.16 -111.18 0
v -162.45 -115 0
v -165.87 -115 0
v -165.87 -112.43 0
v -162.45 -112.43 0
v -155.61 -177.5 0
v -159.03 -177.5 0
v -159.03 -174.93 0
v -155.61 -174.93 0
v -153.9 -178.75 0
v -157.32 -178.75 0
v -157.32 -176.18 0
v -153.9 -176.18 0
v -153.9 -181.25 0
v -157.32 -181.25 0
v -157.32 -178.68 0
v -153.9 -178.68 0
v -152.19 -182.5 0
v -155.61 -182.5 0
v -155.61 -179.93 0
v -152.19 -179.93 0
v -150.48 -183.75 0
v -153.9 -183.75 0
v -153.9 -181.18 0
v -150.48 -181.18 0
v -152.19 -185 0
v -155.61 -185 0
v -155.61 -182.43 0
v -152.19 -182.43 0

# Texture cooridinates (Count = 4)
vt 0 0
vt 1 0
vt 1 1
vt 0 1

# Normal
vn 0 0 -1

# Mesh description
g GameMap_mesh_0019

# Faces
f 1/1/1 2/2/1 3/3/1 4/4/1
f 5/1/1 6/2/1 7/3/1 8/4/1
f 9/1/1 10/2/1 11/3/1 12/4/1
f 13/1/1 14/2/1 15/3/1 16/4/1
f 17/1/1 18/2/1 19/3/1 20/4/1
f 21/1/1 22/2/1 23/3/1 24/4/1
f 25/1/1 26/2/1 27/3/1 28/4/1
f 29/1/1 30/2/1 31/3/1 32/4/1
f 33/1/1 34/2/1 35/3/1 36/4/1
f 37/1/1 38/2/1 39/3/1 40/4/1
f 41/1/1 42/2/1 43/3/1 44/4/1
f 45/1/1 46/2/1 47/3/1 48/4/1
f 49/1/1 50/2/1 51/3/1 52/4/1
f 53/1/1 54/2/1 55/3/1 56/4/1
f 57/1/1 58/2/1 59/3/1 60/4/1
f 61/1/1 62/2/1 63/3/1 64/4/1
f 65/1/1 66/2/1 67/3/1 68/4/1
f 69/1/1 70/2/1 71/3/1 72/4/1
f 73/1/1 74/2/1 75/3/1 76/4/1
f 77/1/1 78/2/1 79/3/1 80/4/1
f 81/1/1 82/2/1 83/3/1 84/4/1
f 85/1/1 86/2/1 87/3/1 88/4/1
f 89/1/1 90/2/1 91/3/1 92/4/1
f 93/1/1 94/2/1 95/3/1 96/4/1
f 97/1/1 98/2/1 99/3/1 100/4/1
f 101/1/1 102/2/1 103/3/1 104/4/1

