# Tiled2Unity generated file. Do not modify by hand.
# Wavefront file for 'GameMap_mesh_0014.obj'

# Vertices (Count = 236)
v -256.5 -101.25 0
v -259.92 -101.25 0
v -259.92 -98.57 0
v -256.5 -98.57 0
v -258.21 -102.5 0
v -261.63 -102.5 0
v -261.63 -99.82 0
v -258.21 -99.82 0
v -256.5 -103.75 0
v -259.92 -103.75 0
v -259.92 -101.07 0
v -256.5 -101.07 0
v -258.21 -105 0
v -261.63 -105 0
v -261.63 -102.32 0
v -258.21 -102.32 0
v -258.21 -107.5 0
v -261.63 -107.5 0
v -261.63 -104.82 0
v -258.21 -104.82 0
v -258.21 -110 0
v -261.63 -110 0
v -261.63 -107.32 0
v -258.21 -107.32 0
v -256.5 -111.25 0
v -259.92 -111.25 0
v -259.92 -108.57 0
v -256.5 -108.57 0
v -258.21 -112.5 0
v -261.63 -112.5 0
v -261.63 -109.82 0
v -258.21 -109.82 0
v -259.92 -113.75 0
v -263.34 -113.75 0
v -263.34 -111.07 0
v -259.92 -111.07 0
v -258.21 -115 0
v -261.63 -115 0
v -261.63 -112.32 0
v -258.21 -112.32 0
v -259.92 -116.25 0
v -263.34 -116.25 0
v -263.34 -113.57 0
v -259.92 -113.57 0
v -259.92 -118.75 0
v -263.34 -118.75 0
v -263.34 -116.07 0
v -259.92 -116.07 0
v -261.63 -120 0
v -265.05 -120 0
v -265.05 -117.32 0
v -261.63 -117.32 0
v -259.92 -121.25 0
v -263.34 -121.25 0
v -263.34 -118.57 0
v -259.92 -118.57 0
v -261.63 -122.5 0
v -265.05 -122.5 0
v -265.05 -119.82 0
v -261.63 -119.82 0
v -259.92 -123.75 0
v -263.34 -123.75 0
v -263.34 -121.07 0
v -259.92 -121.07 0
v -261.63 -125 0
v -265.05 -125 0
v -265.05 -122.32 0
v -261.63 -122.32 0
v -263.34 -126.25 0
v -266.76 -126.25 0
v -266.76 -123.57 0
v -263.34 -123.57 0
v -265.05 -127.5 0
v -268.47 -127.5 0
v -268.47 -124.82 0
v -265.05 -124.82 0
v -266.76 -128.75 0
v -270.18 -128.75 0
v -270.18 -126.07 0
v -266.76 -126.07 0
v -268.47 -130 0
v -271.89 -130 0
v -271.89 -127.32 0
v -268.47 -127.32 0
v -270.18 -131.25 0
v -273.6 -131.25 0
v -273.6 -128.57 0
v -270.18 -128.57 0
v -271.89 -132.5 0
v -275.31 -132.5 0
v -275.31 -129.82 0
v -271.89 -129.82 0
v -273.6 -133.75 0
v -277.02 -133.75 0
v -277.02 -131.07 0
v -273.6 -131.07 0
v -275.31 -135 0
v -278.73 -135 0
v -278.73 -132.32 0
v -275.31 -132.32 0
v -273.6 -136.25 0
v -277.02 -136.25 0
v -277.02 -133.57 0
v -273.6 -133.57 0
v -275.31 -137.5 0
v -278.73 -137.5 0
v -278.73 -134.82 0
v -275.31 -134.82 0
v -273.6 -138.75 0
v -277.02 -138.75 0
v -277.02 -136.07 0
v -273.6 -136.07 0
v -275.31 -140 0
v -278.73 -140 0
v -278.73 -137.32 0
v -275.31 -137.32 0
v -273.6 -141.25 0
v -277.02 -141.25 0
v -277.02 -138.57 0
v -273.6 -138.57 0
v -275.31 -142.5 0
v -278.73 -142.5 0
v -278.73 -139.82 0
v -275.31 -139.82 0
v -273.6 -143.75 0
v -277.02 -143.75 0
v -277.02 -141.07 0
v -273.6 -141.07 0
v -165.87 -120 0
v -169.29 -120 0
v -169.29 -117.32 0
v -165.87 -117.32 0
v -167.58 -121.25 0
v -171 -121.25 0
v -171 -118.57 0
v -167.58 -118.57 0
v -165.87 -122.5 0
v -169.29 -122.5 0
v -169.29 -119.82 0
v -165.87 -119.82 0
v -164.16 -123.75 0
v -167.58 -123.75 0
v -167.58 -121.07 0
v -164.16 -121.07 0
v -165.87 -125 0
v -169.29 -125 0
v -169.29 -122.32 0
v -165.87 -122.32 0
v -165.87 -127.5 0
v -169.29 -127.5 0
v -169.29 -124.82 0
v -165.87 -124.82 0
v -164.16 -128.75 0
v -167.58 -128.75 0
v -167.58 -126.07 0
v -164.16 -126.07 0
v -165.87 -130 0
v -169.29 -130 0
v -169.29 -127.32 0
v -165.87 -127.32 0
v -164.16 -131.25 0
v -167.58 -131.25 0
v -167.58 -128.57 0
v -164.16 -128.57 0
v -164.16 -133.75 0
v -167.58 -133.75 0
v -167.58 -131.07 0
v -164.16 -131.07 0
v -162.45 -135 0
v -165.87 -135 0
v -165.87 -132.32 0
v -162.45 -132.32 0
v -162.45 -137.5 0
v -165.87 -137.5 0
v -165.87 -134.82 0
v -162.45 -134.82 0
v -160.74 -138.75 0
v -164.16 -138.75 0
v -164.16 -136.07 0
v -160.74 -136.07 0
v -160.74 -141.25 0
v -164.16 -141.25 0
v -164.16 -138.57 0
v -160.74 -138.57 0
v -159.03 -142.5 0
v -162.45 -142.5 0
v -162.45 -139.82 0
v -159.03 -139.82 0
v -157.32 -143.75 0
v -160.74 -143.75 0
v -160.74 -141.07 0
v -157.32 -141.07 0
v -157.32 -188.75 0
v -160.74 -188.75 0
v -160.74 -186.07 0
v -157.32 -186.07 0
v -159.03 -190 0
v -162.45 -190 0
v -162.45 -187.32 0
v -159.03 -187.32 0
v -155.61 -190 0
v -159.03 -190 0
v -159.03 -187.32 0
v -155.61 -187.32 0
v -155.61 -192.5 0
v -159.03 -192.5 0
v -159.03 -189.82 0
v -155.61 -189.82 0
v -155.61 -195 0
v -159.03 -195 0
v -159.03 -192.32 0
v -155.61 -192.32 0
v -155.61 -197.5 0
v -159.03 -197.5 0
v -159.03 -194.82 0
v -155.61 -194.82 0
v -155.61 -200 0
v -159.03 -200 0
v -159.03 -197.32 0
v -155.61 -197.32 0
v -153.9 -201.25 0
v -157.32 -201.25 0
v -157.32 -198.57 0
v -153.9 -198.57 0
v -155.61 -202.5 0
v -159.03 -202.5 0
v -159.03 -199.82 0
v -155.61 -199.82 0
v -153.9 -203.75 0
v -157.32 -203.75 0
v -157.32 -201.07 0
v -153.9 -201.07 0
v -153.9 -206.25 0
v -157.32 -206.25 0
v -157.32 -203.57 0
v -153.9 -203.57 0

# Texture cooridinates (Count = 4)
vt 0 0
vt 1 0
vt 1 1
vt 0 1

# Normal
vn 0 0 -1

# Mesh description
g GameMap_mesh_0014

# Faces
f 1/1/1 2/2/1 3/3/1 4/4/1
f 5/1/1 6/2/1 7/3/1 8/4/1
f 9/1/1 10/2/1 11/3/1 12/4/1
f 13/1/1 14/2/1 15/3/1 16/4/1
f 17/1/1 18/2/1 19/3/1 20/4/1
f 21/1/1 22/2/1 23/3/1 24/4/1
f 25/1/1 26/2/1 27/3/1 28/4/1
f 29/1/1 30/2/1 31/3/1 32/4/1
f 33/1/1 34/2/1 35/3/1 36/4/1
f 37/1/1 38/2/1 39/3/1 40/4/1
f 41/1/1 42/2/1 43/3/1 44/4/1
f 45/1/1 46/2/1 47/3/1 48/4/1
f 49/1/1 50/2/1 51/3/1 52/4/1
f 53/1/1 54/2/1 55/3/1 56/4/1
f 57/1/1 58/2/1 59/3/1 60/4/1
f 61/1/1 62/2/1 63/3/1 64/4/1
f 65/1/1 66/2/1 67/3/1 68/4/1
f 69/1/1 70/2/1 71/3/1 72/4/1
f 73/1/1 74/2/1 75/3/1 76/4/1
f 77/1/1 78/2/1 79/3/1 80/4/1
f 81/1/1 82/2/1 83/3/1 84/4/1
f 85/1/1 86/2/1 87/3/1 88/4/1
f 89/1/1 90/2/1 91/3/1 92/4/1
f 93/1/1 94/2/1 95/3/1 96/4/1
f 97/1/1 98/2/1 99/3/1 100/4/1
f 101/1/1 102/2/1 103/3/1 104/4/1
f 105/1/1 106/2/1 107/3/1 108/4/1
f 109/1/1 110/2/1 111/3/1 112/4/1
f 113/1/1 114/2/1 115/3/1 116/4/1
f 117/1/1 118/2/1 119/3/1 120/4/1
f 121/1/1 122/2/1 123/3/1 124/4/1
f 125/1/1 126/2/1 127/3/1 128/4/1
f 129/1/1 130/2/1 131/3/1 132/4/1
f 133/1/1 134/2/1 135/3/1 136/4/1
f 137/1/1 138/2/1 139/3/1 140/4/1
f 141/1/1 142/2/1 143/3/1 144/4/1
f 145/1/1 146/2/1 147/3/1 148/4/1
f 149/1/1 150/2/1 151/3/1 152/4/1
f 153/1/1 154/2/1 155/3/1 156/4/1
f 157/1/1 158/2/1 159/3/1 160/4/1
f 161/1/1 162/2/1 163/3/1 164/4/1
f 165/1/1 166/2/1 167/3/1 168/4/1
f 169/1/1 170/2/1 171/3/1 172/4/1
f 173/1/1 174/2/1 175/3/1 176/4/1
f 177/1/1 178/2/1 179/3/1 180/4/1
f 181/1/1 182/2/1 183/3/1 184/4/1
f 185/1/1 186/2/1 187/3/1 188/4/1
f 189/1/1 190/2/1 191/3/1 192/4/1
f 193/1/1 194/2/1 195/3/1 196/4/1
f 197/1/1 198/2/1 199/3/1 200/4/1
f 201/1/1 202/2/1 203/3/1 204/4/1
f 205/1/1 206/2/1 207/3/1 208/4/1
f 209/1/1 210/2/1 211/3/1 212/4/1
f 213/1/1 214/2/1 215/3/1 216/4/1
f 217/1/1 218/2/1 219/3/1 220/4/1
f 221/1/1 222/2/1 223/3/1 224/4/1
f 225/1/1 226/2/1 227/3/1 228/4/1
f 229/1/1 230/2/1 231/3/1 232/4/1
f 233/1/1 234/2/1 235/3/1 236/4/1

