# Tiled2Unity generated file. Do not modify by hand.
# Wavefront file for 'GameMap_mesh_0013.obj'

# Vertices (Count = 136)
v -27189 -8750 0
v -27531 -8750 0
v -27531 -8473 0
v -27189 -8473 0
v -26163 -8250 0
v -26505 -8250 0
v -26505 -7973 0
v -26163 -7973 0
v -25650 -8125 0
v -25992 -8125 0
v -25992 -7848 0
v -25650 -7848 0
v -25137 -8000 0
v -25479 -8000 0
v -25479 -7723 0
v -25137 -7723 0
v -30951 -12250 0
v -31293 -12250 0
v -31293 -11973 0
v -30951 -11973 0
v -24624 -7875 0
v -24966 -7875 0
v -24966 -7598 0
v -24624 -7598 0
v -30438 -12125 0
v -30780 -12125 0
v -30780 -11848 0
v -30438 -11848 0
v -24282 -7875 0
v -24624 -7875 0
v -24624 -7598 0
v -24282 -7598 0
v -29754 -11875 0
v -30096 -11875 0
v -30096 -11598 0
v -29754 -11598 0
v -23769 -7750 0
v -24111 -7750 0
v -24111 -7473 0
v -23769 -7473 0
v -23256 -7625 0
v -23598 -7625 0
v -23598 -7348 0
v -23256 -7348 0
v -22743 -7500 0
v -23085 -7500 0
v -23085 -7223 0
v -22743 -7223 0
v -22059 -7250 0
v -22401 -7250 0
v -22401 -6973 0
v -22059 -6973 0
v -21546 -7375 0
v -21888 -7375 0
v -21888 -7098 0
v -21546 -7098 0
v -21033 -7500 0
v -21375 -7500 0
v -21375 -7223 0
v -21033 -7223 0
v -20349 -7750 0
v -20691 -7750 0
v -20691 -7473 0
v -20349 -7473 0
v -19836 -7875 0
v -20178 -7875 0
v -20178 -7598 0
v -19836 -7598 0
v -19323 -8000 0
v -19665 -8000 0
v -19665 -7723 0
v -19323 -7723 0
v -24111 -14750 0
v -24453 -14750 0
v -24453 -14473 0
v -24111 -14473 0
v -23598 -14625 0
v -23940 -14625 0
v -23940 -14348 0
v -23598 -14348 0
v -23085 -14500 0
v -23427 -14500 0
v -23427 -14223 0
v -23085 -14223 0
v -22572 -14375 0
v -22914 -14375 0
v -22914 -14098 0
v -22572 -14098 0
v -18297 -11500 0
v -18639 -11500 0
v -18639 -11223 0
v -18297 -11223 0
v -22059 -14250 0
v -22401 -14250 0
v -22401 -13973 0
v -22059 -13973 0
v -21546 -14125 0
v -21888 -14125 0
v -21888 -13848 0
v -21546 -13848 0
v -21033 -14000 0
v -21375 -14000 0
v -21375 -13723 0
v -21033 -13723 0
v -17100 -12125 0
v -17442 -12125 0
v -17442 -11848 0
v -17100 -11848 0
v -16074 -12625 0
v -16416 -12625 0
v -16416 -12348 0
v -16074 -12348 0
v -15561 -12750 0
v -15903 -12750 0
v -15903 -12473 0
v -15561 -12473 0
v -15219 -12750 0
v -15561 -12750 0
v -15561 -12473 0
v -15219 -12473 0
v -14706 -12875 0
v -15048 -12875 0
v -15048 -12598 0
v -14706 -12598 0
v -14193 -13000 0
v -14535 -13000 0
v -14535 -12723 0
v -14193 -12723 0
v -13851 -13000 0
v -14193 -13000 0
v -14193 -12723 0
v -13851 -12723 0
v -13338 -13125 0
v -13680 -13125 0
v -13680 -12848 0
v -13338 -12848 0

# Texture cooridinates (Count = 4)
vt 0 0
vt 1 0
vt 1 1
vt 0 1

# Normal
vn 0 0 -1

# Mesh description
g GameMap_mesh_0013

# Faces
f 1/1/1 2/2/1 3/3/1 4/4/1
f 5/1/1 6/2/1 7/3/1 8/4/1
f 9/1/1 10/2/1 11/3/1 12/4/1
f 13/1/1 14/2/1 15/3/1 16/4/1
f 17/1/1 18/2/1 19/3/1 20/4/1
f 21/1/1 22/2/1 23/3/1 24/4/1
f 25/1/1 26/2/1 27/3/1 28/4/1
f 29/1/1 30/2/1 31/3/1 32/4/1
f 33/1/1 34/2/1 35/3/1 36/4/1
f 37/1/1 38/2/1 39/3/1 40/4/1
f 41/1/1 42/2/1 43/3/1 44/4/1
f 45/1/1 46/2/1 47/3/1 48/4/1
f 49/1/1 50/2/1 51/3/1 52/4/1
f 53/1/1 54/2/1 55/3/1 56/4/1
f 57/1/1 58/2/1 59/3/1 60/4/1
f 61/1/1 62/2/1 63/3/1 64/4/1
f 65/1/1 66/2/1 67/3/1 68/4/1
f 69/1/1 70/2/1 71/3/1 72/4/1
f 73/1/1 74/2/1 75/3/1 76/4/1
f 77/1/1 78/2/1 79/3/1 80/4/1
f 81/1/1 82/2/1 83/3/1 84/4/1
f 85/1/1 86/2/1 87/3/1 88/4/1
f 89/1/1 90/2/1 91/3/1 92/4/1
f 93/1/1 94/2/1 95/3/1 96/4/1
f 97/1/1 98/2/1 99/3/1 100/4/1
f 101/1/1 102/2/1 103/3/1 104/4/1
f 105/1/1 106/2/1 107/3/1 108/4/1
f 109/1/1 110/2/1 111/3/1 112/4/1
f 113/1/1 114/2/1 115/3/1 116/4/1
f 117/1/1 118/2/1 119/3/1 120/4/1
f 121/1/1 122/2/1 123/3/1 124/4/1
f 125/1/1 126/2/1 127/3/1 128/4/1
f 129/1/1 130/2/1 131/3/1 132/4/1
f 133/1/1 134/2/1 135/3/1 136/4/1

