# Tiled2Unity generated file. Do not modify by hand.
# Wavefront file for 'GameMap_mesh_0010.obj'

# Vertices (Count = 428)
v -191.52 -21.25 0
v -194.94 -21.25 0
v -194.94 -18.4 0
v -191.52 -18.4 0
v -191.52 -26.25 0
v -194.94 -26.25 0
v -194.94 -23.4 0
v -191.52 -23.4 0
v -189.81 -27.5 0
v -193.23 -27.5 0
v -193.23 -24.65 0
v -189.81 -24.65 0
v -273.6 -88.75 0
v -277.02 -88.75 0
v -277.02 -85.9 0
v -273.6 -85.9 0
v -275.31 -90 0
v -278.73 -90 0
v -278.73 -87.15 0
v -275.31 -87.15 0
v -277.02 -91.25 0
v -280.44 -91.25 0
v -280.44 -88.4 0
v -277.02 -88.4 0
v -278.73 -92.5 0
v -282.15 -92.5 0
v -282.15 -89.65 0
v -278.73 -89.65 0
v -280.44 -93.75 0
v -283.86 -93.75 0
v -283.86 -90.9 0
v -280.44 -90.9 0
v -188.1 -28.75 0
v -191.52 -28.75 0
v -191.52 -25.9 0
v -188.1 -25.9 0
v -263.34 -83.75 0
v -266.76 -83.75 0
v -266.76 -80.9 0
v -263.34 -80.9 0
v -265.05 -85 0
v -268.47 -85 0
v -268.47 -82.15 0
v -265.05 -82.15 0
v -266.76 -86.25 0
v -270.18 -86.25 0
v -270.18 -83.4 0
v -266.76 -83.4 0
v -268.47 -87.5 0
v -271.89 -87.5 0
v -271.89 -84.65 0
v -268.47 -84.65 0
v -282.15 -97.5 0
v -285.57 -97.5 0
v -285.57 -94.65 0
v -282.15 -94.65 0
v -186.39 -30 0
v -189.81 -30 0
v -189.81 -27.15 0
v -186.39 -27.15 0
v -258.21 -82.5 0
v -261.63 -82.5 0
v -261.63 -79.65 0
v -258.21 -79.65 0
v -283.86 -101.25 0
v -287.28 -101.25 0
v -287.28 -98.4 0
v -283.86 -98.4 0
v -253.08 -81.25 0
v -256.5 -81.25 0
v -256.5 -78.4 0
v -253.08 -78.4 0
v -285.57 -105 0
v -288.99 -105 0
v -288.99 -102.15 0
v -285.57 -102.15 0
v -311.22 -123.75 0
v -314.64 -123.75 0
v -314.64 -120.9 0
v -311.22 -120.9 0
v -312.93 -125 0
v -316.35 -125 0
v -316.35 -122.15 0
v -312.93 -122.15 0
v -184.68 -33.75 0
v -188.1 -33.75 0
v -188.1 -30.9 0
v -184.68 -30.9 0
v -247.95 -80 0
v -251.37 -80 0
v -251.37 -77.15 0
v -247.95 -77.15 0
v -287.28 -108.75 0
v -290.7 -108.75 0
v -290.7 -105.9 0
v -287.28 -105.9 0
v -306.09 -122.5 0
v -309.51 -122.5 0
v -309.51 -119.65 0
v -306.09 -119.65 0
v -314.64 -128.75 0
v -318.06 -128.75 0
v -318.06 -125.9 0
v -314.64 -125.9 0
v -316.35 -130 0
v -319.77 -130 0
v -319.77 -127.15 0
v -316.35 -127.15 0
v -182.97 -35 0
v -186.39 -35 0
v -186.39 -32.15 0
v -182.97 -32.15 0
v -288.99 -112.5 0
v -292.41 -112.5 0
v -292.41 -109.65 0
v -288.99 -109.65 0
v -299.25 -120 0
v -302.67 -120 0
v -302.67 -117.15 0
v -299.25 -117.15 0
v -300.96 -121.25 0
v -304.38 -121.25 0
v -304.38 -118.4 0
v -300.96 -118.4 0
v -318.06 -133.75 0
v -321.48 -133.75 0
v -321.48 -130.9 0
v -318.06 -130.9 0
v -319.77 -135 0
v -323.19 -135 0
v -323.19 -132.15 0
v -319.77 -132.15 0
v -181.26 -36.25 0
v -184.68 -36.25 0
v -184.68 -33.4 0
v -181.26 -33.4 0
v -239.4 -78.75 0
v -242.82 -78.75 0
v -242.82 -75.9 0
v -239.4 -75.9 0
v -290.7 -116.25 0
v -294.12 -116.25 0
v -294.12 -113.4 0
v -290.7 -113.4 0
v -292.41 -117.5 0
v -295.83 -117.5 0
v -295.83 -114.65 0
v -292.41 -114.65 0
v -294.12 -118.75 0
v -297.54 -118.75 0
v -297.54 -115.9 0
v -294.12 -115.9 0
v -179.55 -37.5 0
v -182.97 -37.5 0
v -182.97 -34.65 0
v -179.55 -34.65 0
v -234.27 -77.5 0
v -237.69 -77.5 0
v -237.69 -74.65 0
v -234.27 -74.65 0
v -229.14 -76.25 0
v -232.56 -76.25 0
v -232.56 -73.4 0
v -229.14 -73.4 0
v -177.84 -41.25 0
v -181.26 -41.25 0
v -181.26 -38.4 0
v -177.84 -38.4 0
v -222.3 -73.75 0
v -225.72 -73.75 0
v -225.72 -70.9 0
v -222.3 -70.9 0
v -224.01 -75 0
v -227.43 -75 0
v -227.43 -72.15 0
v -224.01 -72.15 0
v -218.88 -73.75 0
v -222.3 -73.75 0
v -222.3 -70.9 0
v -218.88 -70.9 0
v -176.13 -45 0
v -179.55 -45 0
v -179.55 -42.15 0
v -176.13 -42.15 0
v -213.75 -75 0
v -217.17 -75 0
v -217.17 -72.15 0
v -213.75 -72.15 0
v -174.42 -48.75 0
v -177.84 -48.75 0
v -177.84 -45.9 0
v -174.42 -45.9 0
v -208.62 -76.25 0
v -212.04 -76.25 0
v -212.04 -73.4 0
v -208.62 -73.4 0
v -172.71 -52.5 0
v -176.13 -52.5 0
v -176.13 -49.65 0
v -172.71 -49.65 0
v -206.91 -77.5 0
v -210.33 -77.5 0
v -210.33 -74.65 0
v -206.91 -74.65 0
v -172.71 -57.5 0
v -176.13 -57.5 0
v -176.13 -54.65 0
v -172.71 -54.65 0
v -201.78 -78.75 0
v -205.2 -78.75 0
v -205.2 -75.9 0
v -201.78 -75.9 0
v -196.65 -80 0
v -200.07 -80 0
v -200.07 -77.15 0
v -196.65 -77.15 0
v -174.42 -66.25 0
v -177.84 -66.25 0
v -177.84 -63.4 0
v -174.42 -63.4 0
v -191.52 -81.25 0
v -194.94 -81.25 0
v -194.94 -78.4 0
v -191.52 -78.4 0
v -176.13 -72.5 0
v -179.55 -72.5 0
v -179.55 -69.65 0
v -176.13 -69.65 0
v -177.84 -73.75 0
v -181.26 -73.75 0
v -181.26 -70.9 0
v -177.84 -70.9 0
v -179.55 -75 0
v -182.97 -75 0
v -182.97 -72.15 0
v -179.55 -72.15 0
v -189.81 -82.5 0
v -193.23 -82.5 0
v -193.23 -79.65 0
v -189.81 -79.65 0
v -181.26 -78.75 0
v -184.68 -78.75 0
v -184.68 -75.9 0
v -181.26 -75.9 0
v -182.97 -80 0
v -186.39 -80 0
v -186.39 -77.15 0
v -182.97 -77.15 0
v -184.68 -81.25 0
v -188.1 -81.25 0
v -188.1 -78.4 0
v -184.68 -78.4 0
v -186.39 -82.5 0
v -189.81 -82.5 0
v -189.81 -79.65 0
v -186.39 -79.65 0
v -189.81 -87.5 0
v -193.23 -87.5 0
v -193.23 -84.65 0
v -189.81 -84.65 0
v -191.52 -88.75 0
v -194.94 -88.75 0
v -194.94 -85.9 0
v -191.52 -85.9 0
v -193.23 -90 0
v -196.65 -90 0
v -196.65 -87.15 0
v -193.23 -87.15 0
v -193.23 -97.5 0
v -196.65 -97.5 0
v -196.65 -94.65 0
v -193.23 -94.65 0
v -191.52 -111.25 0
v -194.94 -111.25 0
v -194.94 -108.4 0
v -191.52 -108.4 0
v -242.82 -148.75 0
v -246.24 -148.75 0
v -246.24 -145.9 0
v -242.82 -145.9 0
v -244.53 -150 0
v -247.95 -150 0
v -247.95 -147.15 0
v -244.53 -147.15 0
v -237.69 -147.5 0
v -241.11 -147.5 0
v -241.11 -144.65 0
v -237.69 -144.65 0
v -188.1 -113.75 0
v -191.52 -113.75 0
v -191.52 -110.9 0
v -188.1 -110.9 0
v -191.52 -116.25 0
v -194.94 -116.25 0
v -194.94 -113.4 0
v -191.52 -113.4 0
v -232.56 -146.25 0
v -235.98 -146.25 0
v -235.98 -143.4 0
v -232.56 -143.4 0
v -186.39 -115 0
v -189.81 -115 0
v -189.81 -112.15 0
v -186.39 -112.15 0
v -191.52 -118.75 0
v -194.94 -118.75 0
v -194.94 -115.9 0
v -191.52 -115.9 0
v -227.43 -145 0
v -230.85 -145 0
v -230.85 -142.15 0
v -227.43 -142.15 0
v -244.53 -157.5 0
v -247.95 -157.5 0
v -247.95 -154.65 0
v -244.53 -154.65 0
v -191.52 -121.25 0
v -194.94 -121.25 0
v -194.94 -118.4 0
v -191.52 -118.4 0
v -222.3 -143.75 0
v -225.72 -143.75 0
v -225.72 -140.9 0
v -222.3 -140.9 0
v -181.26 -116.25 0
v -184.68 -116.25 0
v -184.68 -113.4 0
v -181.26 -113.4 0
v -193.23 -125 0
v -196.65 -125 0
v -196.65 -122.15 0
v -193.23 -122.15 0
v -194.94 -126.25 0
v -198.36 -126.25 0
v -198.36 -123.4 0
v -194.94 -123.4 0
v -196.65 -127.5 0
v -200.07 -127.5 0
v -200.07 -124.65 0
v -196.65 -124.65 0
v -217.17 -142.5 0
v -220.59 -142.5 0
v -220.59 -139.65 0
v -217.17 -139.65 0
v -179.55 -117.5 0
v -182.97 -117.5 0
v -182.97 -114.65 0
v -179.55 -114.65 0
v -198.36 -131.25 0
v -201.78 -131.25 0
v -201.78 -128.4 0
v -198.36 -128.4 0
v -200.07 -132.5 0
v -203.49 -132.5 0
v -203.49 -129.65 0
v -200.07 -129.65 0
v -212.04 -141.25 0
v -215.46 -141.25 0
v -215.46 -138.4 0
v -212.04 -138.4 0
v -177.84 -118.75 0
v -181.26 -118.75 0
v -181.26 -115.9 0
v -177.84 -115.9 0
v -201.78 -136.25 0
v -205.2 -136.25 0
v -205.2 -133.4 0
v -201.78 -133.4 0
v -203.49 -137.5 0
v -206.91 -137.5 0
v -206.91 -134.65 0
v -203.49 -134.65 0
v -205.2 -138.75 0
v -208.62 -138.75 0
v -208.62 -135.9 0
v -205.2 -135.9 0
v -206.91 -140 0
v -210.33 -140 0
v -210.33 -137.15 0
v -206.91 -137.15 0
v -242.82 -166.25 0
v -246.24 -166.25 0
v -246.24 -163.4 0
v -242.82 -163.4 0
v -176.13 -120 0
v -179.55 -120 0
v -179.55 -117.15 0
v -176.13 -117.15 0
v -174.42 -121.25 0
v -177.84 -121.25 0
v -177.84 -118.4 0
v -174.42 -118.4 0
v -169.29 -122.5 0
v -172.71 -122.5 0
v -172.71 -119.65 0
v -169.29 -119.65 0
v -167.58 -123.75 0
v -171 -123.75 0
v -171 -120.9 0
v -167.58 -120.9 0
v -165.87 -125 0
v -169.29 -125 0
v -169.29 -122.15 0
v -165.87 -122.15 0
v -164.16 -126.25 0
v -167.58 -126.25 0
v -167.58 -123.4 0
v -164.16 -123.4 0
v -159.03 -127.5 0
v -162.45 -127.5 0
v -162.45 -124.65 0
v -159.03 -124.65 0
v -150.48 -128.75 0
v -153.9 -128.75 0
v -153.9 -125.9 0
v -150.48 -125.9 0
v -145.35 -130 0
v -148.77 -130 0
v -148.77 -127.15 0
v -145.35 -127.15 0
v -136.8 -131.25 0
v -140.22 -131.25 0
v -140.22 -128.4 0
v -136.8 -128.4 0
v -131.67 -132.5 0
v -135.09 -132.5 0
v -135.09 -129.65 0
v -131.67 -129.65 0

# Texture cooridinates (Count = 4)
vt 1 0
vt 0 0
vt 0 1
vt 1 1

# Normal
vn 0 0 -1

# Mesh description
g GameMap_mesh_0010

# Faces
f 1/1/1 2/2/1 3/3/1 4/4/1
f 5/2/1 6/1/1 7/4/1 8/3/1
f 9/2/1 10/1/1 11/4/1 12/3/1
f 13/1/1 14/2/1 15/3/1 16/4/1
f 17/1/1 18/2/1 19/3/1 20/4/1
f 21/1/1 22/2/1 23/3/1 24/4/1
f 25/1/1 26/2/1 27/3/1 28/4/1
f 29/1/1 30/2/1 31/3/1 32/4/1
f 33/2/1 34/1/1 35/4/1 36/3/1
f 37/1/1 38/2/1 39/3/1 40/4/1
f 41/1/1 42/2/1 43/3/1 44/4/1
f 45/1/1 46/2/1 47/3/1 48/4/1
f 49/1/1 50/2/1 51/3/1 52/4/1
f 53/1/1 54/2/1 55/3/1 56/4/1
f 57/2/1 58/1/1 59/4/1 60/3/1
f 61/1/1 62/2/1 63/3/1 64/4/1
f 65/1/1 66/2/1 67/3/1 68/4/1
f 69/1/1 70/2/1 71/3/1 72/4/1
f 73/1/1 74/2/1 75/3/1 76/4/1
f 77/1/1 78/2/1 79/3/1 80/4/1
f 81/1/1 82/2/1 83/3/1 84/4/1
f 85/2/1 86/1/1 87/4/1 88/3/1
f 89/1/1 90/2/1 91/3/1 92/4/1
f 93/1/1 94/2/1 95/3/1 96/4/1
f 97/1/1 98/2/1 99/3/1 100/4/1
f 101/1/1 102/2/1 103/3/1 104/4/1
f 105/1/1 106/2/1 107/3/1 108/4/1
f 109/2/1 110/1/1 111/4/1 112/3/1
f 113/1/1 114/2/1 115/3/1 116/4/1
f 117/1/1 118/2/1 119/3/1 120/4/1
f 121/1/1 122/2/1 123/3/1 124/4/1
f 125/1/1 126/2/1 127/3/1 128/4/1
f 129/1/1 130/2/1 131/3/1 132/4/1
f 133/2/1 134/1/1 135/4/1 136/3/1
f 137/1/1 138/2/1 139/3/1 140/4/1
f 141/1/1 142/2/1 143/3/1 144/4/1
f 145/1/1 146/2/1 147/3/1 148/4/1
f 149/1/1 150/2/1 151/3/1 152/4/1
f 153/2/1 154/1/1 155/4/1 156/3/1
f 157/1/1 158/2/1 159/3/1 160/4/1
f 161/1/1 162/2/1 163/3/1 164/4/1
f 165/2/1 166/1/1 167/4/1 168/3/1
f 169/1/1 170/2/1 171/3/1 172/4/1
f 173/1/1 174/2/1 175/3/1 176/4/1
f 177/2/1 178/1/1 179/4/1 180/3/1
f 181/2/1 182/1/1 183/4/1 184/3/1
f 185/2/1 186/1/1 187/4/1 188/3/1
f 189/2/1 190/1/1 191/4/1 192/3/1
f 193/2/1 194/1/1 195/4/1 196/3/1
f 197/2/1 198/1/1 199/4/1 200/3/1
f 201/2/1 202/1/1 203/4/1 204/3/1
f 205/1/1 206/2/1 207/3/1 208/4/1
f 209/2/1 210/1/1 211/4/1 212/3/1
f 213/2/1 214/1/1 215/4/1 216/3/1
f 217/1/1 218/2/1 219/3/1 220/4/1
f 221/2/1 222/1/1 223/4/1 224/3/1
f 225/1/1 226/2/1 227/3/1 228/4/1
f 229/1/1 230/2/1 231/3/1 232/4/1
f 233/1/1 234/2/1 235/3/1 236/4/1
f 237/2/1 238/1/1 239/4/1 240/3/1
f 241/1/1 242/2/1 243/3/1 244/4/1
f 245/1/1 246/2/1 247/3/1 248/4/1
f 249/1/1 250/2/1 251/3/1 252/4/1
f 253/1/1 254/2/1 255/3/1 256/4/1
f 257/1/1 258/2/1 259/3/1 260/4/1
f 261/1/1 262/2/1 263/3/1 264/4/1
f 265/1/1 266/2/1 267/3/1 268/4/1
f 269/2/1 270/1/1 271/4/1 272/3/1
f 273/2/1 274/1/1 275/4/1 276/3/1
f 277/1/1 278/2/1 279/3/1 280/4/1
f 281/1/1 282/2/1 283/3/1 284/4/1
f 285/1/1 286/2/1 287/3/1 288/4/1
f 289/2/1 290/1/1 291/4/1 292/3/1
f 293/1/1 294/2/1 295/3/1 296/4/1
f 297/1/1 298/2/1 299/3/1 300/4/1
f 301/2/1 302/1/1 303/4/1 304/3/1
f 305/2/1 306/1/1 307/4/1 308/3/1
f 309/1/1 310/2/1 311/3/1 312/4/1
f 313/2/1 314/1/1 315/4/1 316/3/1
f 317/1/1 318/2/1 319/3/1 320/4/1
f 321/1/1 322/2/1 323/3/1 324/4/1
f 325/2/1 326/1/1 327/4/1 328/3/1
f 329/1/1 330/2/1 331/3/1 332/4/1
f 333/1/1 334/2/1 335/3/1 336/4/1
f 337/1/1 338/2/1 339/3/1 340/4/1
f 341/1/1 342/2/1 343/3/1 344/4/1
f 345/2/1 346/1/1 347/4/1 348/3/1
f 349/1/1 350/2/1 351/3/1 352/4/1
f 353/1/1 354/2/1 355/3/1 356/4/1
f 357/1/1 358/2/1 359/3/1 360/4/1
f 361/2/1 362/1/1 363/4/1 364/3/1
f 365/1/1 366/2/1 367/3/1 368/4/1
f 369/1/1 370/2/1 371/3/1 372/4/1
f 373/1/1 374/2/1 375/3/1 376/4/1
f 377/1/1 378/2/1 379/3/1 380/4/1
f 381/2/1 382/1/1 383/4/1 384/3/1
f 385/2/1 386/1/1 387/4/1 388/3/1
f 389/2/1 390/1/1 391/4/1 392/3/1
f 393/2/1 394/1/1 395/4/1 396/3/1
f 397/2/1 398/1/1 399/4/1 400/3/1
f 401/2/1 402/1/1 403/4/1 404/3/1
f 405/2/1 406/1/1 407/4/1 408/3/1
f 409/2/1 410/1/1 411/4/1 412/3/1
f 413/2/1 414/1/1 415/4/1 416/3/1
f 417/2/1 418/1/1 419/4/1 420/3/1
f 421/2/1 422/1/1 423/4/1 424/3/1
f 425/2/1 426/1/1 427/4/1 428/3/1

