# Tiled2Unity generated file. Do not modify by hand.
# Wavefront file for 'GameMap_mesh_0037.obj'

# Vertices (Count = 156)
v -143.64 -66.25 0
v -147.06 -66.25 0
v -147.06 -63.75 0
v -143.64 -63.75 0
v -157.32 -78.75 0
v -160.74 -78.75 0
v -160.74 -76.25 0
v -157.32 -76.25 0
v -169.29 -90 0
v -172.71 -90 0
v -172.71 -87.5 0
v -169.29 -87.5 0
v -152.19 -80 0
v -155.61 -80 0
v -155.61 -77.5 0
v -152.19 -77.5 0
v -162.45 -87.5 0
v -165.87 -87.5 0
v -165.87 -85 0
v -162.45 -85 0
v -169.29 -95 0
v -172.71 -95 0
v -172.71 -92.5 0
v -169.29 -92.5 0
v -148.77 -82.5 0
v -152.19 -82.5 0
v -152.19 -80 0
v -148.77 -80 0
v -140.22 -78.75 0
v -143.64 -78.75 0
v -143.64 -76.25 0
v -140.22 -76.25 0
v -143.64 -81.25 0
v -147.06 -81.25 0
v -147.06 -78.75 0
v -143.64 -78.75 0
v -164.16 -96.25 0
v -167.58 -96.25 0
v -167.58 -93.75 0
v -164.16 -93.75 0
v -152.19 -90 0
v -155.61 -90 0
v -155.61 -87.5 0
v -152.19 -87.5 0
v -148.77 -90 0
v -152.19 -90 0
v -152.19 -87.5 0
v -148.77 -87.5 0
v -124.83 -75 0
v -128.25 -75 0
v -128.25 -72.5 0
v -124.83 -72.5 0
v -152.19 -97.5 0
v -155.61 -97.5 0
v -155.61 -95 0
v -152.19 -95 0
v -148.77 -100 0
v -152.19 -100 0
v -152.19 -97.5 0
v -148.77 -97.5 0
v -140.22 -98.75 0
v -143.64 -98.75 0
v -143.64 -96.25 0
v -140.22 -96.25 0
v -148.77 -107.5 0
v -152.19 -107.5 0
v -152.19 -105 0
v -148.77 -105 0
v -150.48 -116.25 0
v -153.9 -116.25 0
v -153.9 -113.75 0
v -150.48 -113.75 0
v -100.89 -92.5 0
v -104.31 -92.5 0
v -104.31 -90 0
v -100.89 -90 0
v -145.35 -125 0
v -148.77 -125 0
v -148.77 -122.5 0
v -145.35 -122.5 0
v -140.22 -136.25 0
v -143.64 -136.25 0
v -143.64 -133.75 0
v -140.22 -133.75 0
v -143.64 -143.75 0
v -147.06 -143.75 0
v -147.06 -141.25 0
v -143.64 -141.25 0
v -129.96 -138.75 0
v -133.38 -138.75 0
v -133.38 -136.25 0
v -129.96 -136.25 0
v -111.15 -135 0
v -114.57 -135 0
v -114.57 -132.5 0
v -111.15 -132.5 0
v -102.6 -138.75 0
v -106.02 -138.75 0
v -106.02 -136.25 0
v -102.6 -136.25 0
v -104.31 -142.5 0
v -107.73 -142.5 0
v -107.73 -140 0
v -104.31 -140 0
v -119.7 -153.75 0
v -123.12 -153.75 0
v -123.12 -151.25 0
v -119.7 -151.25 0
v -88.92 -133.75 0
v -92.34 -133.75 0
v -92.34 -131.25 0
v -88.92 -131.25 0
v -94.05 -140 0
v -97.47 -140 0
v -97.47 -137.5 0
v -94.05 -137.5 0
v -116.28 -156.25 0
v -119.7 -156.25 0
v -119.7 -153.75 0
v -116.28 -153.75 0
v -70.11 -125 0
v -73.53 -125 0
v -73.53 -122.5 0
v -70.11 -122.5 0
v -73.53 -127.5 0
v -76.95 -127.5 0
v -76.95 -125 0
v -73.53 -125 0
v -66.68999 -125 0
v -70.11 -125 0
v -70.11 -122.5 0
v -66.68999 -122.5 0
v -78.66 -133.75 0
v -82.08 -133.75 0
v -82.08 -131.25 0
v -78.66 -131.25 0
v -87.21 -140 0
v -90.63 -140 0
v -90.63 -137.5 0
v -87.21 -137.5 0
v -111.15 -157.5 0
v -114.57 -157.5 0
v -114.57 -155 0
v -111.15 -155 0
v -68.4 -136.25 0
v -71.82 -136.25 0
v -71.82 -133.75 0
v -68.4 -133.75 0
v -97.47 -157.5 0
v -100.89 -157.5 0
v -100.89 -155 0
v -97.47 -155 0
v -90.63 -157.5 0
v -94.05 -157.5 0
v -94.05 -155 0
v -90.63 -155 0

# Texture cooridinates (Count = 4)
vt 0 0
vt 1 0
vt 1 1
vt 0 1

# Normal
vn 0 0 -1

# Mesh description
g GameMap_mesh_0037

# Faces
f 1/1/1 2/2/1 3/3/1 4/4/1
f 5/1/1 6/2/1 7/3/1 8/4/1
f 9/1/1 10/2/1 11/3/1 12/4/1
f 13/1/1 14/2/1 15/3/1 16/4/1
f 17/1/1 18/2/1 19/3/1 20/4/1
f 21/3/1 22/4/1 23/1/1 24/2/1
f 25/1/1 26/2/1 27/3/1 28/4/1
f 29/3/1 30/4/1 31/1/1 32/2/1
f 33/3/1 34/4/1 35/1/1 36/2/1
f 37/3/1 38/4/1 39/1/1 40/2/1
f 41/1/1 42/2/1 43/3/1 44/4/1
f 45/3/1 46/4/1 47/1/1 48/2/1
f 49/1/1 50/2/1 51/3/1 52/4/1
f 53/3/1 54/4/1 55/1/1 56/2/1
f 57/1/1 58/2/1 59/3/1 60/4/1
f 61/3/1 62/4/1 63/1/1 64/2/1
f 65/3/1 66/4/1 67/1/1 68/2/1
f 69/1/1 70/2/1 71/3/1 72/4/1
f 73/1/1 74/2/1 75/3/1 76/4/1
f 77/3/1 78/4/1 79/1/1 80/2/1
f 81/1/1 82/2/1 83/3/1 84/4/1
f 85/3/1 86/4/1 87/1/1 88/2/1
f 89/3/1 90/4/1 91/1/1 92/2/1
f 93/3/1 94/4/1 95/1/1 96/2/1
f 97/1/1 98/2/1 99/3/1 100/4/1
f 101/1/1 102/2/1 103/3/1 104/4/1
f 105/3/1 106/4/1 107/1/1 108/2/1
f 109/3/1 110/4/1 111/1/1 112/2/1
f 113/1/1 114/2/1 115/3/1 116/4/1
f 117/3/1 118/4/1 119/1/1 120/2/1
f 121/3/1 122/4/1 123/1/1 124/2/1
f 125/3/1 126/4/1 127/1/1 128/2/1
f 129/1/1 130/2/1 131/3/1 132/4/1
f 133/3/1 134/4/1 135/1/1 136/2/1
f 137/1/1 138/2/1 139/3/1 140/4/1
f 141/3/1 142/4/1 143/1/1 144/2/1
f 145/3/1 146/4/1 147/1/1 148/2/1
f 149/3/1 150/4/1 151/1/1 152/2/1
f 153/3/1 154/4/1 155/1/1 156/2/1

