# Tiled2Unity generated file. Do not modify by hand.
# Wavefront file for 'GameMap_mesh_0007.obj'

# Vertices (Count = 156)
v -268.47 -42.5 0
v -271.89 -42.5 0
v -271.89 -39.73 0
v -268.47 -39.73 0
v -261.63 -45 0
v -265.05 -45 0
v -265.05 -42.23 0
v -261.63 -42.23 0
v -254.79 -47.5 0
v -258.21 -47.5 0
v -258.21 -44.73 0
v -254.79 -44.73 0
v -247.95 -50 0
v -251.37 -50 0
v -251.37 -47.23 0
v -247.95 -47.23 0
v -242.82 -51.25 0
v -246.24 -51.25 0
v -246.24 -48.48 0
v -242.82 -48.48 0
v -235.98 -53.75 0
v -239.4 -53.75 0
v -239.4 -50.98 0
v -235.98 -50.98 0
v -229.14 -56.25 0
v -232.56 -56.25 0
v -232.56 -53.48 0
v -229.14 -53.48 0
v -222.3 -58.75 0
v -225.72 -58.75 0
v -225.72 -55.98 0
v -222.3 -55.98 0
v -217.17 -60 0
v -220.59 -60 0
v -220.59 -57.23 0
v -217.17 -57.23 0
v -213.75 -60 0
v -217.17 -60 0
v -217.17 -57.23 0
v -213.75 -57.23 0
v -208.62 -61.25 0
v -212.04 -61.25 0
v -212.04 -58.48 0
v -208.62 -58.48 0
v -205.2 -61.25 0
v -208.62 -61.25 0
v -208.62 -58.48 0
v -205.2 -58.48 0
v -201.78 -61.25 0
v -205.2 -61.25 0
v -205.2 -58.48 0
v -201.78 -58.48 0
v -196.65 -62.5 0
v -200.07 -62.5 0
v -200.07 -59.73 0
v -196.65 -59.73 0
v -191.52 -63.75 0
v -194.94 -63.75 0
v -194.94 -60.98 0
v -191.52 -60.98 0
v -186.39 -65 0
v -189.81 -65 0
v -189.81 -62.23 0
v -186.39 -62.23 0
v -181.26 -66.25 0
v -184.68 -66.25 0
v -184.68 -63.48 0
v -181.26 -63.48 0
v -212.04 -91.25 0
v -215.46 -91.25 0
v -215.46 -88.48 0
v -212.04 -88.48 0
v -176.13 -67.5 0
v -179.55 -67.5 0
v -179.55 -64.73 0
v -176.13 -64.73 0
v -206.91 -90 0
v -210.33 -90 0
v -210.33 -87.23 0
v -206.91 -87.23 0
v -200.07 -87.5 0
v -203.49 -87.5 0
v -203.49 -84.73 0
v -200.07 -84.73 0
v -194.94 -86.25 0
v -198.36 -86.25 0
v -198.36 -83.48 0
v -194.94 -83.48 0
v -188.1 -83.75 0
v -191.52 -83.75 0
v -191.52 -80.98 0
v -188.1 -80.98 0
v -182.97 -82.5 0
v -186.39 -82.5 0
v -186.39 -79.73 0
v -182.97 -79.73 0
v -234.27 -145 0
v -237.69 -145 0
v -237.69 -142.23 0
v -234.27 -142.23 0
v -229.14 -143.75 0
v -232.56 -143.75 0
v -232.56 -140.98 0
v -229.14 -140.98 0
v -224.01 -142.5 0
v -227.43 -142.5 0
v -227.43 -139.73 0
v -224.01 -139.73 0
v -213.75 -137.5 0
v -217.17 -137.5 0
v -217.17 -134.73 0
v -213.75 -134.73 0
v -210.33 -137.5 0
v -213.75 -137.5 0
v -213.75 -134.73 0
v -210.33 -134.73 0
v -205.2 -138.75 0
v -208.62 -138.75 0
v -208.62 -135.98 0
v -205.2 -135.98 0
v -200.07 -140 0
v -203.49 -140 0
v -203.49 -137.23 0
v -200.07 -137.23 0
v -194.94 -141.25 0
v -198.36 -141.25 0
v -198.36 -138.48 0
v -194.94 -138.48 0
v -198.36 -161.25 0
v -201.78 -161.25 0
v -201.78 -158.48 0
v -198.36 -158.48 0
v -186.39 -167.5 0
v -189.81 -167.5 0
v -189.81 -164.73 0
v -186.39 -164.73 0
v -181.26 -166.25 0
v -184.68 -166.25 0
v -184.68 -163.48 0
v -181.26 -163.48 0
v -176.13 -165 0
v -179.55 -165 0
v -179.55 -162.23 0
v -176.13 -162.23 0
v -171 -163.75 0
v -174.42 -163.75 0
v -174.42 -160.98 0
v -171 -160.98 0
v -165.87 -162.5 0
v -169.29 -162.5 0
v -169.29 -159.73 0
v -165.87 -159.73 0
v -160.74 -161.25 0
v -164.16 -161.25 0
v -164.16 -158.48 0
v -160.74 -158.48 0

# Texture cooridinates (Count = 4)
vt 0 0
vt 1 0
vt 1 1
vt 0 1

# Normal
vn 0 0 -1

# Mesh description
g GameMap_mesh_0007

# Faces
f 1/1/1 2/2/1 3/3/1 4/4/1
f 5/1/1 6/2/1 7/3/1 8/4/1
f 9/1/1 10/2/1 11/3/1 12/4/1
f 13/1/1 14/2/1 15/3/1 16/4/1
f 17/1/1 18/2/1 19/3/1 20/4/1
f 21/1/1 22/2/1 23/3/1 24/4/1
f 25/1/1 26/2/1 27/3/1 28/4/1
f 29/1/1 30/2/1 31/3/1 32/4/1
f 33/1/1 34/2/1 35/3/1 36/4/1
f 37/1/1 38/2/1 39/3/1 40/4/1
f 41/1/1 42/2/1 43/3/1 44/4/1
f 45/1/1 46/2/1 47/3/1 48/4/1
f 49/1/1 50/2/1 51/3/1 52/4/1
f 53/1/1 54/2/1 55/3/1 56/4/1
f 57/1/1 58/2/1 59/3/1 60/4/1
f 61/1/1 62/2/1 63/3/1 64/4/1
f 65/1/1 66/2/1 67/3/1 68/4/1
f 69/1/1 70/2/1 71/3/1 72/4/1
f 73/1/1 74/2/1 75/3/1 76/4/1
f 77/1/1 78/2/1 79/3/1 80/4/1
f 81/1/1 82/2/1 83/3/1 84/4/1
f 85/1/1 86/2/1 87/3/1 88/4/1
f 89/1/1 90/2/1 91/3/1 92/4/1
f 93/1/1 94/2/1 95/3/1 96/4/1
f 97/1/1 98/2/1 99/3/1 100/4/1
f 101/1/1 102/2/1 103/3/1 104/4/1
f 105/1/1 106/2/1 107/3/1 108/4/1
f 109/1/1 110/2/1 111/3/1 112/4/1
f 113/1/1 114/2/1 115/3/1 116/4/1
f 117/1/1 118/2/1 119/3/1 120/4/1
f 121/1/1 122/2/1 123/3/1 124/4/1
f 125/1/1 126/2/1 127/3/1 128/4/1
f 129/1/1 130/2/1 131/3/1 132/4/1
f 133/1/1 134/2/1 135/3/1 136/4/1
f 137/1/1 138/2/1 139/3/1 140/4/1
f 141/1/1 142/2/1 143/3/1 144/4/1
f 145/1/1 146/2/1 147/3/1 148/4/1
f 149/1/1 150/2/1 151/3/1 152/4/1
f 153/1/1 154/2/1 155/3/1 156/4/1

