# Tiled2Unity generated file. Do not modify by hand.
# Wavefront file for 'GameMap_mesh_0012.obj'

# Vertices (Count = 156)
v -191.52 -23.75 0
v -194.94 -23.75 0
v -194.94 -20.92 0
v -191.52 -20.92 0
v -280.44 -96.25 0
v -283.86 -96.25 0
v -283.86 -93.42 0
v -280.44 -93.42 0
v -282.15 -100 0
v -285.57 -100 0
v -285.57 -97.17 0
v -282.15 -97.17 0
v -184.68 -31.25 0
v -188.1 -31.25 0
v -188.1 -28.42 0
v -184.68 -28.42 0
v -283.86 -103.75 0
v -287.28 -103.75 0
v -287.28 -100.92 0
v -283.86 -100.92 0
v -285.57 -107.5 0
v -288.99 -107.5 0
v -288.99 -104.67 0
v -285.57 -104.67 0
v -312.93 -127.5 0
v -316.35 -127.5 0
v -316.35 -124.67 0
v -312.93 -124.67 0
v -287.28 -111.25 0
v -290.7 -111.25 0
v -290.7 -108.42 0
v -287.28 -108.42 0
v -316.35 -132.5 0
v -319.77 -132.5 0
v -319.77 -129.67 0
v -316.35 -129.67 0
v -288.99 -115 0
v -292.41 -115 0
v -292.41 -112.17 0
v -288.99 -112.17 0
v -177.84 -38.75 0
v -181.26 -38.75 0
v -181.26 -35.92 0
v -177.84 -35.92 0
v -176.13 -42.5 0
v -179.55 -42.5 0
v -179.55 -39.67 0
v -176.13 -39.67 0
v -174.42 -46.25 0
v -177.84 -46.25 0
v -177.84 -43.42 0
v -174.42 -43.42 0
v -172.71 -50 0
v -176.13 -50 0
v -176.13 -47.17 0
v -172.71 -47.17 0
v -171 -53.75 0
v -174.42 -53.75 0
v -174.42 -50.92 0
v -171 -50.92 0
v -171 -56.25 0
v -174.42 -56.25 0
v -174.42 -53.42 0
v -171 -53.42 0
v -172.71 -60 0
v -176.13 -60 0
v -176.13 -57.17 0
v -172.71 -57.17 0
v -172.71 -62.5 0
v -176.13 -62.5 0
v -176.13 -59.67 0
v -172.71 -59.67 0
v -172.71 -65 0
v -176.13 -65 0
v -176.13 -62.17 0
v -172.71 -62.17 0
v -174.42 -68.75 0
v -177.84 -68.75 0
v -177.84 -65.92 0
v -174.42 -65.92 0
v -174.42 -71.25 0
v -177.84 -71.25 0
v -177.84 -68.42 0
v -174.42 -68.42 0
v -179.55 -77.5 0
v -182.97 -77.5 0
v -182.97 -74.67 0
v -179.55 -74.67 0
v -188.1 -86.25 0
v -191.52 -86.25 0
v -191.52 -83.42 0
v -188.1 -83.42 0
v -193.23 -92.5 0
v -196.65 -92.5 0
v -196.65 -89.67 0
v -193.23 -89.67 0
v -193.23 -95 0
v -196.65 -95 0
v -196.65 -92.17 0
v -193.23 -92.17 0
v -191.52 -98.75 0
v -194.94 -98.75 0
v -194.94 -95.92 0
v -191.52 -95.92 0
v -191.52 -101.25 0
v -194.94 -101.25 0
v -194.94 -98.42 0
v -191.52 -98.42 0
v -191.52 -103.75 0
v -194.94 -103.75 0
v -194.94 -100.92 0
v -191.52 -100.92 0
v -191.52 -106.25 0
v -194.94 -106.25 0
v -194.94 -103.42 0
v -191.52 -103.42 0
v -191.52 -108.75 0
v -194.94 -108.75 0
v -194.94 -105.92 0
v -191.52 -105.92 0
v -244.53 -152.5 0
v -247.95 -152.5 0
v -247.95 -149.67 0
v -244.53 -149.67 0
v -189.81 -115 0
v -193.23 -115 0
v -193.23 -112.17 0
v -189.81 -112.17 0
v -244.53 -155 0
v -247.95 -155 0
v -247.95 -152.17 0
v -244.53 -152.17 0
v -242.82 -158.75 0
v -246.24 -158.75 0
v -246.24 -155.92 0
v -242.82 -155.92 0
v -191.52 -123.75 0
v -194.94 -123.75 0
v -194.94 -120.92 0
v -191.52 -120.92 0
v -242.82 -161.25 0
v -246.24 -161.25 0
v -246.24 -158.42 0
v -242.82 -158.42 0
v -196.65 -130 0
v -200.07 -130 0
v -200.07 -127.17 0
v -196.65 -127.17 0
v -242.82 -163.75 0
v -246.24 -163.75 0
v -246.24 -160.92 0
v -242.82 -160.92 0
v -200.07 -135 0
v -203.49 -135 0
v -203.49 -132.17 0
v -200.07 -132.17 0

# Texture cooridinates (Count = 4)
vt 0 0
vt 1 0
vt 1 1
vt 0 1

# Normal
vn 0 0 -1

# Mesh description
g GameMap_mesh_0012

# Faces
f 1/1/1 2/2/1 3/3/1 4/4/1
f 5/1/1 6/2/1 7/3/1 8/4/1
f 9/1/1 10/2/1 11/3/1 12/4/1
f 13/1/1 14/2/1 15/3/1 16/4/1
f 17/1/1 18/2/1 19/3/1 20/4/1
f 21/1/1 22/2/1 23/3/1 24/4/1
f 25/1/1 26/2/1 27/3/1 28/4/1
f 29/1/1 30/2/1 31/3/1 32/4/1
f 33/1/1 34/2/1 35/3/1 36/4/1
f 37/1/1 38/2/1 39/3/1 40/4/1
f 41/1/1 42/2/1 43/3/1 44/4/1
f 45/1/1 46/2/1 47/3/1 48/4/1
f 49/1/1 50/2/1 51/3/1 52/4/1
f 53/1/1 54/2/1 55/3/1 56/4/1
f 57/1/1 58/2/1 59/3/1 60/4/1
f 61/1/1 62/2/1 63/3/1 64/4/1
f 65/1/1 66/2/1 67/3/1 68/4/1
f 69/1/1 70/2/1 71/3/1 72/4/1
f 73/1/1 74/2/1 75/3/1 76/4/1
f 77/1/1 78/2/1 79/3/1 80/4/1
f 81/1/1 82/2/1 83/3/1 84/4/1
f 85/1/1 86/2/1 87/3/1 88/4/1
f 89/1/1 90/2/1 91/3/1 92/4/1
f 93/1/1 94/2/1 95/3/1 96/4/1
f 97/1/1 98/2/1 99/3/1 100/4/1
f 101/1/1 102/2/1 103/3/1 104/4/1
f 105/1/1 106/2/1 107/3/1 108/4/1
f 109/1/1 110/2/1 111/3/1 112/4/1
f 113/1/1 114/2/1 115/3/1 116/4/1
f 117/1/1 118/2/1 119/3/1 120/4/1
f 121/1/1 122/2/1 123/3/1 124/4/1
f 125/1/1 126/2/1 127/3/1 128/4/1
f 129/1/1 130/2/1 131/3/1 132/4/1
f 133/1/1 134/2/1 135/3/1 136/4/1
f 137/1/1 138/2/1 139/3/1 140/4/1
f 141/1/1 142/2/1 143/3/1 144/4/1
f 145/1/1 146/2/1 147/3/1 148/4/1
f 149/1/1 150/2/1 151/3/1 152/4/1
f 153/1/1 154/2/1 155/3/1 156/4/1

