# Tiled2Unity generated file. Do not modify by hand.
# Wavefront file for 'GameMap_mesh_0017.obj'

# Vertices (Count = 800)
v -249.66 -66.25 0
v -253.08 -66.25 0
v -253.08 -63.59 0
v -249.66 -63.59 0
v -251.37 -67.5 0
v -254.79 -67.5 0
v -254.79 -64.84 0
v -251.37 -64.84 0
v -253.08 -68.75 0
v -256.5 -68.75 0
v -256.5 -66.09 0
v -253.08 -66.09 0
v -244.53 -65 0
v -247.95 -65 0
v -247.95 -62.34 0
v -244.53 -62.34 0
v -246.24 -66.25 0
v -249.66 -66.25 0
v -249.66 -63.59 0
v -246.24 -63.59 0
v -247.95 -67.5 0
v -251.37 -67.5 0
v -251.37 -64.84 0
v -247.95 -64.84 0
v -251.37 -70 0
v -254.79 -70 0
v -254.79 -67.34 0
v -251.37 -67.34 0
v -253.08 -71.25 0
v -256.5 -71.25 0
v -256.5 -68.59 0
v -253.08 -68.59 0
v -244.53 -67.5 0
v -247.95 -67.5 0
v -247.95 -64.84 0
v -244.53 -64.84 0
v -246.24 -68.75 0
v -249.66 -68.75 0
v -249.66 -66.09 0
v -246.24 -66.09 0
v -247.95 -70 0
v -251.37 -70 0
v -251.37 -67.34 0
v -247.95 -67.34 0
v -249.66 -71.25 0
v -253.08 -71.25 0
v -253.08 -68.59 0
v -249.66 -68.59 0
v -251.37 -72.5 0
v -254.79 -72.5 0
v -254.79 -69.84 0
v -251.37 -69.84 0
v -253.08 -73.75 0
v -256.5 -73.75 0
v -256.5 -71.09 0
v -253.08 -71.09 0
v -242.82 -68.75 0
v -246.24 -68.75 0
v -246.24 -66.09 0
v -242.82 -66.09 0
v -244.53 -70 0
v -247.95 -70 0
v -247.95 -67.34 0
v -244.53 -67.34 0
v -246.24 -71.25 0
v -249.66 -71.25 0
v -249.66 -68.59 0
v -246.24 -68.59 0
v -251.37 -75 0
v -254.79 -75 0
v -254.79 -72.34 0
v -251.37 -72.34 0
v -241.11 -70 0
v -244.53 -70 0
v -244.53 -67.34 0
v -241.11 -67.34 0
v -242.82 -71.25 0
v -246.24 -71.25 0
v -246.24 -68.59 0
v -242.82 -68.59 0
v -244.53 -72.5 0
v -247.95 -72.5 0
v -247.95 -69.84 0
v -244.53 -69.84 0
v -249.66 -76.25 0
v -253.08 -76.25 0
v -253.08 -73.59 0
v -249.66 -73.59 0
v -251.37 -77.5 0
v -254.79 -77.5 0
v -254.79 -74.84 0
v -251.37 -74.84 0
v -253.08 -78.75 0
v -256.5 -78.75 0
v -256.5 -76.09 0
v -253.08 -76.09 0
v -254.79 -80 0
v -258.21 -80 0
v -258.21 -77.34 0
v -254.79 -77.34 0
v -265.05 -87.5 0
v -268.47 -87.5 0
v -268.47 -84.84 0
v -265.05 -84.84 0
v -237.69 -70 0
v -241.11 -70 0
v -241.11 -67.34 0
v -237.69 -67.34 0
v -239.4 -71.25 0
v -242.82 -71.25 0
v -242.82 -68.59 0
v -239.4 -68.59 0
v -241.11 -72.5 0
v -244.53 -72.5 0
v -244.53 -69.84 0
v -241.11 -69.84 0
v -242.82 -73.75 0
v -246.24 -73.75 0
v -246.24 -71.09 0
v -242.82 -71.09 0
v -247.95 -77.5 0
v -251.37 -77.5 0
v -251.37 -74.84 0
v -247.95 -74.84 0
v -251.37 -80 0
v -254.79 -80 0
v -254.79 -77.34 0
v -251.37 -77.34 0
v -253.08 -81.25 0
v -256.5 -81.25 0
v -256.5 -78.59 0
v -253.08 -78.59 0
v -254.79 -82.5 0
v -258.21 -82.5 0
v -258.21 -79.84 0
v -254.79 -79.84 0
v -256.5 -83.75 0
v -259.92 -83.75 0
v -259.92 -81.09 0
v -256.5 -81.09 0
v -261.63 -87.5 0
v -265.05 -87.5 0
v -265.05 -84.84 0
v -261.63 -84.84 0
v -263.34 -88.75 0
v -266.76 -88.75 0
v -266.76 -86.09 0
v -263.34 -86.09 0
v -235.98 -71.25 0
v -239.4 -71.25 0
v -239.4 -68.59 0
v -235.98 -68.59 0
v -239.4 -73.75 0
v -242.82 -73.75 0
v -242.82 -71.09 0
v -239.4 -71.09 0
v -241.11 -75 0
v -244.53 -75 0
v -244.53 -72.34 0
v -241.11 -72.34 0
v -246.24 -78.75 0
v -249.66 -78.75 0
v -249.66 -76.09 0
v -246.24 -76.09 0
v -249.66 -81.25 0
v -253.08 -81.25 0
v -253.08 -78.59 0
v -249.66 -78.59 0
v -251.37 -82.5 0
v -254.79 -82.5 0
v -254.79 -79.84 0
v -251.37 -79.84 0
v -254.79 -85 0
v -258.21 -85 0
v -258.21 -82.34 0
v -254.79 -82.34 0
v -256.5 -86.25 0
v -259.92 -86.25 0
v -259.92 -83.59 0
v -256.5 -83.59 0
v -261.63 -90 0
v -265.05 -90 0
v -265.05 -87.34 0
v -261.63 -87.34 0
v -263.34 -91.25 0
v -266.76 -91.25 0
v -266.76 -88.59 0
v -263.34 -88.59 0
v -234.27 -72.5 0
v -237.69 -72.5 0
v -237.69 -69.84 0
v -234.27 -69.84 0
v -237.69 -75 0
v -241.11 -75 0
v -241.11 -72.34 0
v -237.69 -72.34 0
v -239.4 -76.25 0
v -242.82 -76.25 0
v -242.82 -73.59 0
v -239.4 -73.59 0
v -241.11 -77.5 0
v -244.53 -77.5 0
v -244.53 -74.84 0
v -241.11 -74.84 0
v -244.53 -80 0
v -247.95 -80 0
v -247.95 -77.34 0
v -244.53 -77.34 0
v -246.24 -81.25 0
v -249.66 -81.25 0
v -249.66 -78.59 0
v -246.24 -78.59 0
v -247.95 -82.5 0
v -251.37 -82.5 0
v -251.37 -79.84 0
v -247.95 -79.84 0
v -249.66 -83.75 0
v -253.08 -83.75 0
v -253.08 -81.09 0
v -249.66 -81.09 0
v -251.37 -85 0
v -254.79 -85 0
v -254.79 -82.34 0
v -251.37 -82.34 0
v -253.08 -86.25 0
v -256.5 -86.25 0
v -256.5 -83.59 0
v -253.08 -83.59 0
v -258.21 -90 0
v -261.63 -90 0
v -261.63 -87.34 0
v -258.21 -87.34 0
v -263.34 -93.75 0
v -266.76 -93.75 0
v -266.76 -91.09 0
v -263.34 -91.09 0
v -235.98 -76.25 0
v -239.4 -76.25 0
v -239.4 -73.59 0
v -235.98 -73.59 0
v -237.69 -77.5 0
v -241.11 -77.5 0
v -241.11 -74.84 0
v -237.69 -74.84 0
v -239.4 -78.75 0
v -242.82 -78.75 0
v -242.82 -76.09 0
v -239.4 -76.09 0
v -242.82 -81.25 0
v -246.24 -81.25 0
v -246.24 -78.59 0
v -242.82 -78.59 0
v -244.53 -82.5 0
v -247.95 -82.5 0
v -247.95 -79.84 0
v -244.53 -79.84 0
v -247.95 -85 0
v -251.37 -85 0
v -251.37 -82.34 0
v -247.95 -82.34 0
v -249.66 -86.25 0
v -253.08 -86.25 0
v -253.08 -83.59 0
v -249.66 -83.59 0
v -251.37 -87.5 0
v -254.79 -87.5 0
v -254.79 -84.84 0
v -251.37 -84.84 0
v -263.34 -96.25 0
v -266.76 -96.25 0
v -266.76 -93.59 0
v -263.34 -93.59 0
v -234.27 -77.5 0
v -237.69 -77.5 0
v -237.69 -74.84 0
v -234.27 -74.84 0
v -235.98 -78.75 0
v -239.4 -78.75 0
v -239.4 -76.09 0
v -235.98 -76.09 0
v -237.69 -80 0
v -241.11 -80 0
v -241.11 -77.34 0
v -237.69 -77.34 0
v -239.4 -81.25 0
v -242.82 -81.25 0
v -242.82 -78.59 0
v -239.4 -78.59 0
v -241.11 -82.5 0
v -244.53 -82.5 0
v -244.53 -79.84 0
v -241.11 -79.84 0
v -247.95 -87.5 0
v -251.37 -87.5 0
v -251.37 -84.84 0
v -247.95 -84.84 0
v -249.66 -88.75 0
v -253.08 -88.75 0
v -253.08 -86.09 0
v -249.66 -86.09 0
v -251.37 -90 0
v -254.79 -90 0
v -254.79 -87.34 0
v -251.37 -87.34 0
v -261.63 -97.5 0
v -265.05 -97.5 0
v -265.05 -94.84 0
v -261.63 -94.84 0
v -263.34 -98.75 0
v -266.76 -98.75 0
v -266.76 -96.09 0
v -263.34 -96.09 0
v -230.85 -77.5 0
v -234.27 -77.5 0
v -234.27 -74.84 0
v -230.85 -74.84 0
v -232.56 -78.75 0
v -235.98 -78.75 0
v -235.98 -76.09 0
v -232.56 -76.09 0
v -234.27 -80 0
v -237.69 -80 0
v -237.69 -77.34 0
v -234.27 -77.34 0
v -235.98 -81.25 0
v -239.4 -81.25 0
v -239.4 -78.59 0
v -235.98 -78.59 0
v -237.69 -82.5 0
v -241.11 -82.5 0
v -241.11 -79.84 0
v -237.69 -79.84 0
v -239.4 -83.75 0
v -242.82 -83.75 0
v -242.82 -81.09 0
v -239.4 -81.09 0
v -246.24 -88.75 0
v -249.66 -88.75 0
v -249.66 -86.09 0
v -246.24 -86.09 0
v -227.43 -77.5 0
v -230.85 -77.5 0
v -230.85 -74.84 0
v -227.43 -74.84 0
v -229.14 -78.75 0
v -232.56 -78.75 0
v -232.56 -76.09 0
v -229.14 -76.09 0
v -230.85 -80 0
v -234.27 -80 0
v -234.27 -77.34 0
v -230.85 -77.34 0
v -232.56 -81.25 0
v -235.98 -81.25 0
v -235.98 -78.59 0
v -232.56 -78.59 0
v -234.27 -82.5 0
v -237.69 -82.5 0
v -237.69 -79.84 0
v -234.27 -79.84 0
v -235.98 -83.75 0
v -239.4 -83.75 0
v -239.4 -81.09 0
v -235.98 -81.09 0
v -237.69 -85 0
v -241.11 -85 0
v -241.11 -82.34 0
v -237.69 -82.34 0
v -241.11 -87.5 0
v -244.53 -87.5 0
v -244.53 -84.84 0
v -241.11 -84.84 0
v -224.01 -77.5 0
v -227.43 -77.5 0
v -227.43 -74.84 0
v -224.01 -74.84 0
v -225.72 -78.75 0
v -229.14 -78.75 0
v -229.14 -76.09 0
v -225.72 -76.09 0
v -227.43 -80 0
v -230.85 -80 0
v -230.85 -77.34 0
v -227.43 -77.34 0
v -232.56 -83.75 0
v -235.98 -83.75 0
v -235.98 -81.09 0
v -232.56 -81.09 0
v -234.27 -85 0
v -237.69 -85 0
v -237.69 -82.34 0
v -234.27 -82.34 0
v -235.98 -86.25 0
v -239.4 -86.25 0
v -239.4 -83.59 0
v -235.98 -83.59 0
v -225.72 -81.25 0
v -229.14 -81.25 0
v -229.14 -78.59 0
v -225.72 -78.59 0
v -227.43 -82.5 0
v -230.85 -82.5 0
v -230.85 -79.84 0
v -227.43 -79.84 0
v -232.56 -86.25 0
v -235.98 -86.25 0
v -235.98 -83.59 0
v -232.56 -83.59 0
v -230.85 -87.5 0
v -234.27 -87.5 0
v -234.27 -84.84 0
v -230.85 -84.84 0
v -232.56 -88.75 0
v -235.98 -88.75 0
v -235.98 -86.09 0
v -232.56 -86.09 0
v -227.43 -87.5 0
v -230.85 -87.5 0
v -230.85 -84.84 0
v -227.43 -84.84 0
v -229.14 -88.75 0
v -232.56 -88.75 0
v -232.56 -86.09 0
v -229.14 -86.09 0
v -230.85 -90 0
v -234.27 -90 0
v -234.27 -87.34 0
v -230.85 -87.34 0
v -232.56 -91.25 0
v -235.98 -91.25 0
v -235.98 -88.59 0
v -232.56 -88.59 0
v -224.01 -150 0
v -227.43 -150 0
v -227.43 -147.34 0
v -224.01 -147.34 0
v -222.3 -151.25 0
v -225.72 -151.25 0
v -225.72 -148.59 0
v -222.3 -148.59 0
v -224.01 -152.5 0
v -227.43 -152.5 0
v -227.43 -149.84 0
v -224.01 -149.84 0
v -225.72 -153.75 0
v -229.14 -153.75 0
v -229.14 -151.09 0
v -225.72 -151.09 0
v -227.43 -155 0
v -230.85 -155 0
v -230.85 -152.34 0
v -227.43 -152.34 0
v -222.3 -153.75 0
v -225.72 -153.75 0
v -225.72 -151.09 0
v -222.3 -151.09 0
v -224.01 -155 0
v -227.43 -155 0
v -227.43 -152.34 0
v -224.01 -152.34 0
v -217.17 -152.5 0
v -220.59 -152.5 0
v -220.59 -149.84 0
v -217.17 -149.84 0
v -220.59 -155 0
v -224.01 -155 0
v -224.01 -152.34 0
v -220.59 -152.34 0
v -222.3 -156.25 0
v -225.72 -156.25 0
v -225.72 -153.59 0
v -222.3 -153.59 0
v -229.14 -161.25 0
v -232.56 -161.25 0
v -232.56 -158.59 0
v -229.14 -158.59 0
v -218.88 -156.25 0
v -222.3 -156.25 0
v -222.3 -153.59 0
v -218.88 -153.59 0
v -220.59 -157.5 0
v -224.01 -157.5 0
v -224.01 -154.84 0
v -220.59 -154.84 0
v -222.3 -158.75 0
v -225.72 -158.75 0
v -225.72 -156.09 0
v -222.3 -156.09 0
v -224.01 -160 0
v -227.43 -160 0
v -227.43 -157.34 0
v -224.01 -157.34 0
v -225.72 -161.25 0
v -229.14 -161.25 0
v -229.14 -158.59 0
v -225.72 -158.59 0
v -227.43 -162.5 0
v -230.85 -162.5 0
v -230.85 -159.84 0
v -227.43 -159.84 0
v -229.14 -163.75 0
v -232.56 -163.75 0
v -232.56 -161.09 0
v -229.14 -161.09 0
v -218.88 -158.75 0
v -222.3 -158.75 0
v -222.3 -156.09 0
v -218.88 -156.09 0
v -222.3 -161.25 0
v -225.72 -161.25 0
v -225.72 -158.59 0
v -222.3 -158.59 0
v -229.14 -166.25 0
v -232.56 -166.25 0
v -232.56 -163.59 0
v -229.14 -163.59 0
v -230.85 -167.5 0
v -234.27 -167.5 0
v -234.27 -164.84 0
v -230.85 -164.84 0
v -217.17 -160 0
v -220.59 -160 0
v -220.59 -157.34 0
v -217.17 -157.34 0
v -218.88 -161.25 0
v -222.3 -161.25 0
v -222.3 -158.59 0
v -218.88 -158.59 0
v -220.59 -162.5 0
v -224.01 -162.5 0
v -224.01 -159.84 0
v -220.59 -159.84 0
v -222.3 -163.75 0
v -225.72 -163.75 0
v -225.72 -161.09 0
v -222.3 -161.09 0
v -212.04 -158.75 0
v -215.46 -158.75 0
v -215.46 -156.09 0
v -212.04 -156.09 0
v -215.46 -161.25 0
v -218.88 -161.25 0
v -218.88 -158.59 0
v -215.46 -158.59 0
v -217.17 -162.5 0
v -220.59 -162.5 0
v -220.59 -159.84 0
v -217.17 -159.84 0
v -218.88 -163.75 0
v -222.3 -163.75 0
v -222.3 -161.09 0
v -218.88 -161.09 0
v -220.59 -165 0
v -224.01 -165 0
v -224.01 -162.34 0
v -220.59 -162.34 0
v -222.3 -166.25 0
v -225.72 -166.25 0
v -225.72 -163.59 0
v -222.3 -163.59 0
v -225.72 -168.75 0
v -229.14 -168.75 0
v -229.14 -166.09 0
v -225.72 -166.09 0
v -227.43 -170 0
v -230.85 -170 0
v -230.85 -167.34 0
v -227.43 -167.34 0
v -210.33 -160 0
v -213.75 -160 0
v -213.75 -157.34 0
v -210.33 -157.34 0
v -213.75 -162.5 0
v -217.17 -162.5 0
v -217.17 -159.84 0
v -213.75 -159.84 0
v -215.46 -163.75 0
v -218.88 -163.75 0
v -218.88 -161.09 0
v -215.46 -161.09 0
v -217.17 -165 0
v -220.59 -165 0
v -220.59 -162.34 0
v -217.17 -162.34 0
v -218.88 -166.25 0
v -222.3 -166.25 0
v -222.3 -163.59 0
v -218.88 -163.59 0
v -220.59 -167.5 0
v -224.01 -167.5 0
v -224.01 -164.84 0
v -220.59 -164.84 0
v -222.3 -168.75 0
v -225.72 -168.75 0
v -225.72 -166.09 0
v -222.3 -166.09 0
v -225.72 -171.25 0
v -229.14 -171.25 0
v -229.14 -168.59 0
v -225.72 -168.59 0
v -227.43 -172.5 0
v -230.85 -172.5 0
v -230.85 -169.84 0
v -227.43 -169.84 0
v -208.62 -161.25 0
v -212.04 -161.25 0
v -212.04 -158.59 0
v -208.62 -158.59 0
v -212.04 -163.75 0
v -215.46 -163.75 0
v -215.46 -161.09 0
v -212.04 -161.09 0
v -213.75 -165 0
v -217.17 -165 0
v -217.17 -162.34 0
v -213.75 -162.34 0
v -217.17 -167.5 0
v -220.59 -167.5 0
v -220.59 -164.84 0
v -217.17 -164.84 0
v -220.59 -170 0
v -224.01 -170 0
v -224.01 -167.34 0
v -220.59 -167.34 0
v -222.3 -171.25 0
v -225.72 -171.25 0
v -225.72 -168.59 0
v -222.3 -168.59 0
v -224.01 -172.5 0
v -227.43 -172.5 0
v -227.43 -169.84 0
v -224.01 -169.84 0
v -225.72 -173.75 0
v -229.14 -173.75 0
v -229.14 -171.09 0
v -225.72 -171.09 0
v -210.33 -165 0
v -213.75 -165 0
v -213.75 -162.34 0
v -210.33 -162.34 0
v -212.04 -166.25 0
v -215.46 -166.25 0
v -215.46 -163.59 0
v -212.04 -163.59 0
v -213.75 -167.5 0
v -217.17 -167.5 0
v -217.17 -164.84 0
v -213.75 -164.84 0
v -215.46 -168.75 0
v -218.88 -168.75 0
v -218.88 -166.09 0
v -215.46 -166.09 0
v -218.88 -171.25 0
v -222.3 -171.25 0
v -222.3 -168.59 0
v -218.88 -168.59 0
v -220.59 -172.5 0
v -224.01 -172.5 0
v -224.01 -169.84 0
v -220.59 -169.84 0
v -222.3 -173.75 0
v -225.72 -173.75 0
v -225.72 -171.09 0
v -222.3 -171.09 0
v -208.62 -166.25 0
v -212.04 -166.25 0
v -212.04 -163.59 0
v -208.62 -163.59 0
v -210.33 -167.5 0
v -213.75 -167.5 0
v -213.75 -164.84 0
v -210.33 -164.84 0
v -212.04 -168.75 0
v -215.46 -168.75 0
v -215.46 -166.09 0
v -212.04 -166.09 0
v -213.75 -170 0
v -217.17 -170 0
v -217.17 -167.34 0
v -213.75 -167.34 0
v -215.46 -171.25 0
v -218.88 -171.25 0
v -218.88 -168.59 0
v -215.46 -168.59 0
v -217.17 -172.5 0
v -220.59 -172.5 0
v -220.59 -169.84 0
v -217.17 -169.84 0
v -218.88 -173.75 0
v -222.3 -173.75 0
v -222.3 -171.09 0
v -218.88 -171.09 0
v -220.59 -175 0
v -224.01 -175 0
v -224.01 -172.34 0
v -220.59 -172.34 0
v -222.3 -176.25 0
v -225.72 -176.25 0
v -225.72 -173.59 0
v -222.3 -173.59 0
v -206.91 -167.5 0
v -210.33 -167.5 0
v -210.33 -164.84 0
v -206.91 -164.84 0
v -213.75 -172.5 0
v -217.17 -172.5 0
v -217.17 -169.84 0
v -213.75 -169.84 0
v -215.46 -173.75 0
v -218.88 -173.75 0
v -218.88 -171.09 0
v -215.46 -171.09 0
v -220.59 -177.5 0
v -224.01 -177.5 0
v -224.01 -174.84 0
v -220.59 -174.84 0
v -222.3 -178.75 0
v -225.72 -178.75 0
v -225.72 -176.09 0
v -222.3 -176.09 0
v -224.01 -180 0
v -227.43 -180 0
v -227.43 -177.34 0
v -224.01 -177.34 0
v -201.78 -166.25 0
v -205.2 -166.25 0
v -205.2 -163.59 0
v -201.78 -163.59 0
v -203.49 -167.5 0
v -206.91 -167.5 0
v -206.91 -164.84 0
v -203.49 -164.84 0
v -208.62 -171.25 0
v -212.04 -171.25 0
v -212.04 -168.59 0
v -208.62 -168.59 0
v -210.33 -172.5 0
v -213.75 -172.5 0
v -213.75 -169.84 0
v -210.33 -169.84 0
v -212.04 -173.75 0
v -215.46 -173.75 0
v -215.46 -171.09 0
v -212.04 -171.09 0
v -217.17 -177.5 0
v -220.59 -177.5 0
v -220.59 -174.84 0
v -217.17 -174.84 0
v -218.88 -178.75 0
v -222.3 -178.75 0
v -222.3 -176.09 0
v -218.88 -176.09 0
v -203.49 -170 0
v -206.91 -170 0
v -206.91 -167.34 0
v -203.49 -167.34 0
v -208.62 -173.75 0
v -212.04 -173.75 0
v -212.04 -171.09 0
v -208.62 -171.09 0
v -212.04 -176.25 0
v -215.46 -176.25 0
v -215.46 -173.59 0
v -212.04 -173.59 0
v -213.75 -177.5 0
v -217.17 -177.5 0
v -217.17 -174.84 0
v -213.75 -174.84 0
v -215.46 -178.75 0
v -218.88 -178.75 0
v -218.88 -176.09 0
v -215.46 -176.09 0
v -217.17 -180 0
v -220.59 -180 0
v -220.59 -177.34 0
v -217.17 -177.34 0
v -206.91 -175 0
v -210.33 -175 0
v -210.33 -172.34 0
v -206.91 -172.34 0
v -208.62 -176.25 0
v -212.04 -176.25 0
v -212.04 -173.59 0
v -208.62 -173.59 0
v -215.46 -181.25 0
v -218.88 -181.25 0
v -218.88 -178.59 0
v -215.46 -178.59 0
v -206.91 -177.5 0
v -210.33 -177.5 0
v -210.33 -174.84 0
v -206.91 -174.84 0
v -213.75 -182.5 0
v -217.17 -182.5 0
v -217.17 -179.84 0
v -213.75 -179.84 0
v -206.91 -180 0
v -210.33 -180 0
v -210.33 -177.34 0
v -206.91 -177.34 0

# Texture cooridinates (Count = 4)
vt 0 0
vt 1 0
vt 1 1
vt 0 1

# Normal
vn 0 0 -1

# Mesh description
g GameMap_mesh_0017

# Faces
f 1/1/1 2/2/1 3/3/1 4/4/1
f 5/1/1 6/2/1 7/3/1 8/4/1
f 9/1/1 10/2/1 11/3/1 12/4/1
f 13/1/1 14/2/1 15/3/1 16/4/1
f 17/1/1 18/2/1 19/3/1 20/4/1
f 21/1/1 22/2/1 23/3/1 24/4/1
f 25/1/1 26/2/1 27/3/1 28/4/1
f 29/1/1 30/2/1 31/3/1 32/4/1
f 33/2/1 34/1/1 35/4/1 36/3/1
f 37/2/1 38/1/1 39/4/1 40/3/1
f 41/1/1 42/2/1 43/3/1 44/4/1
f 45/1/1 46/2/1 47/3/1 48/4/1
f 49/1/1 50/2/1 51/3/1 52/4/1
f 53/1/1 54/2/1 55/3/1 56/4/1
f 57/1/1 58/2/1 59/3/1 60/4/1
f 61/2/1 62/1/1 63/4/1 64/3/1
f 65/1/1 66/2/1 67/3/1 68/4/1
f 69/1/1 70/2/1 71/3/1 72/4/1
f 73/2/1 74/1/1 75/4/1 76/3/1
f 77/2/1 78/1/1 79/4/1 80/3/1
f 81/1/1 82/2/1 83/3/1 84/4/1
f 85/1/1 86/2/1 87/3/1 88/4/1
f 89/1/1 90/2/1 91/3/1 92/4/1
f 93/1/1 94/2/1 95/3/1 96/4/1
f 97/1/1 98/2/1 99/3/1 100/4/1
f 101/1/1 102/2/1 103/3/1 104/4/1
f 105/1/1 106/2/1 107/3/1 108/4/1
f 109/1/1 110/2/1 111/3/1 112/4/1
f 113/1/1 114/2/1 115/3/1 116/4/1
f 117/1/1 118/2/1 119/3/1 120/4/1
f 121/1/1 122/2/1 123/3/1 124/4/1
f 125/2/1 126/1/1 127/4/1 128/3/1
f 129/1/1 130/2/1 131/3/1 132/4/1
f 133/1/1 134/2/1 135/3/1 136/4/1
f 137/1/1 138/2/1 139/3/1 140/4/1
f 141/1/1 142/2/1 143/3/1 144/4/1
f 145/1/1 146/2/1 147/3/1 148/4/1
f 149/1/1 150/2/1 151/3/1 152/4/1
f 153/1/1 154/2/1 155/3/1 156/4/1
f 157/1/1 158/2/1 159/3/1 160/4/1
f 161/1/1 162/2/1 163/3/1 164/4/1
f 165/2/1 166/1/1 167/4/1 168/3/1
f 169/2/1 170/1/1 171/4/1 172/3/1
f 173/1/1 174/2/1 175/3/1 176/4/1
f 177/1/1 178/2/1 179/3/1 180/4/1
f 181/2/1 182/1/1 183/4/1 184/3/1
f 185/1/1 186/2/1 187/3/1 188/4/1
f 189/1/1 190/2/1 191/3/1 192/4/1
f 193/1/1 194/2/1 195/3/1 196/4/1
f 197/1/1 198/2/1 199/3/1 200/4/1
f 201/1/1 202/2/1 203/3/1 204/4/1
f 205/1/1 206/2/1 207/3/1 208/4/1
f 209/1/1 210/2/1 211/3/1 212/4/1
f 213/1/1 214/2/1 215/3/1 216/4/1
f 217/2/1 218/1/1 219/4/1 220/3/1
f 221/1/1 222/2/1 223/3/1 224/4/1
f 225/1/1 226/2/1 227/3/1 228/4/1
f 229/1/1 230/2/1 231/3/1 232/4/1
f 233/1/1 234/2/1 235/3/1 236/4/1
f 237/2/1 238/1/1 239/4/1 240/3/1
f 241/2/1 242/1/1 243/4/1 244/3/1
f 245/1/1 246/2/1 247/3/1 248/4/1
f 249/1/1 250/2/1 251/3/1 252/4/1
f 253/1/1 254/2/1 255/3/1 256/4/1
f 257/1/1 258/2/1 259/3/1 260/4/1
f 261/1/1 262/2/1 263/3/1 264/4/1
f 265/1/1 266/2/1 267/3/1 268/4/1
f 269/1/1 270/2/1 271/3/1 272/4/1
f 273/1/1 274/2/1 275/3/1 276/4/1
f 277/2/1 278/1/1 279/4/1 280/3/1
f 281/2/1 282/1/1 283/4/1 284/3/1
f 285/1/1 286/2/1 287/3/1 288/4/1
f 289/1/1 290/2/1 291/3/1 292/4/1
f 293/1/1 294/2/1 295/3/1 296/4/1
f 297/1/1 298/2/1 299/3/1 300/4/1
f 301/1/1 302/2/1 303/3/1 304/4/1
f 305/1/1 306/2/1 307/3/1 308/4/1
f 309/1/1 310/2/1 311/3/1 312/4/1
f 313/1/1 314/2/1 315/3/1 316/4/1
f 317/1/1 318/2/1 319/3/1 320/4/1
f 321/2/1 322/1/1 323/4/1 324/3/1
f 325/2/1 326/1/1 327/4/1 328/3/1
f 329/1/1 330/2/1 331/3/1 332/4/1
f 333/1/1 334/2/1 335/3/1 336/4/1
f 337/1/1 338/2/1 339/3/1 340/4/1
f 341/1/1 342/2/1 343/3/1 344/4/1
f 345/2/1 346/1/1 347/4/1 348/3/1
f 349/1/1 350/2/1 351/3/1 352/4/1
f 353/1/1 354/2/1 355/3/1 356/4/1
f 357/2/1 358/1/1 359/4/1 360/3/1
f 361/2/1 362/1/1 363/4/1 364/3/1
f 365/1/1 366/2/1 367/3/1 368/4/1
f 369/1/1 370/2/1 371/3/1 372/4/1
f 373/1/1 374/2/1 375/3/1 376/4/1
f 377/1/1 378/2/1 379/3/1 380/4/1
f 381/2/1 382/1/1 383/4/1 384/3/1
f 385/1/1 386/2/1 387/3/1 388/4/1
f 389/1/1 390/2/1 391/3/1 392/4/1
f 393/1/1 394/2/1 395/3/1 396/4/1
f 397/1/1 398/2/1 399/3/1 400/4/1
f 401/1/1 402/2/1 403/3/1 404/4/1
f 405/1/1 406/2/1 407/3/1 408/4/1
f 409/1/1 410/2/1 411/3/1 412/4/1
f 413/1/1 414/2/1 415/3/1 416/4/1
f 417/1/1 418/2/1 419/3/1 420/4/1
f 421/2/1 422/1/1 423/4/1 424/3/1
f 425/2/1 426/1/1 427/4/1 428/3/1
f 429/1/1 430/2/1 431/3/1 432/4/1
f 433/1/1 434/2/1 435/3/1 436/4/1
f 437/1/1 438/2/1 439/3/1 440/4/1
f 441/1/1 442/2/1 443/3/1 444/4/1
f 445/1/1 446/2/1 447/3/1 448/4/1
f 449/1/1 450/2/1 451/3/1 452/4/1
f 453/1/1 454/2/1 455/3/1 456/4/1
f 457/1/1 458/2/1 459/3/1 460/4/1
f 461/1/1 462/2/1 463/3/1 464/4/1
f 465/1/1 466/2/1 467/3/1 468/4/1
f 469/1/1 470/2/1 471/3/1 472/4/1
f 473/1/1 474/2/1 475/3/1 476/4/1
f 477/1/1 478/2/1 479/3/1 480/4/1
f 481/1/1 482/2/1 483/3/1 484/4/1
f 485/1/1 486/2/1 487/3/1 488/4/1
f 489/1/1 490/2/1 491/3/1 492/4/1
f 493/1/1 494/2/1 495/3/1 496/4/1
f 497/1/1 498/2/1 499/3/1 500/4/1
f 501/1/1 502/2/1 503/3/1 504/4/1
f 505/1/1 506/2/1 507/3/1 508/4/1
f 509/1/1 510/2/1 511/3/1 512/4/1
f 513/1/1 514/2/1 515/3/1 516/4/1
f 517/1/1 518/2/1 519/3/1 520/4/1
f 521/1/1 522/2/1 523/3/1 524/4/1
f 525/1/1 526/2/1 527/3/1 528/4/1
f 529/1/1 530/2/1 531/3/1 532/4/1
f 533/1/1 534/2/1 535/3/1 536/4/1
f 537/1/1 538/2/1 539/3/1 540/4/1
f 541/1/1 542/2/1 543/3/1 544/4/1
f 545/1/1 546/2/1 547/3/1 548/4/1
f 549/1/1 550/2/1 551/3/1 552/4/1
f 553/1/1 554/2/1 555/3/1 556/4/1
f 557/1/1 558/2/1 559/3/1 560/4/1
f 561/1/1 562/2/1 563/3/1 564/4/1
f 565/1/1 566/2/1 567/3/1 568/4/1
f 569/1/1 570/2/1 571/3/1 572/4/1
f 573/1/1 574/2/1 575/3/1 576/4/1
f 577/1/1 578/2/1 579/3/1 580/4/1
f 581/1/1 582/2/1 583/3/1 584/4/1
f 585/1/1 586/2/1 587/3/1 588/4/1
f 589/1/1 590/2/1 591/3/1 592/4/1
f 593/1/1 594/2/1 595/3/1 596/4/1
f 597/1/1 598/2/1 599/3/1 600/4/1
f 601/1/1 602/2/1 603/3/1 604/4/1
f 605/1/1 606/2/1 607/3/1 608/4/1
f 609/1/1 610/2/1 611/3/1 612/4/1
f 613/1/1 614/2/1 615/3/1 616/4/1
f 617/1/1 618/2/1 619/3/1 620/4/1
f 621/1/1 622/2/1 623/3/1 624/4/1
f 625/1/1 626/2/1 627/3/1 628/4/1
f 629/1/1 630/2/1 631/3/1 632/4/1
f 633/1/1 634/2/1 635/3/1 636/4/1
f 637/1/1 638/2/1 639/3/1 640/4/1
f 641/1/1 642/2/1 643/3/1 644/4/1
f 645/1/1 646/2/1 647/3/1 648/4/1
f 649/1/1 650/2/1 651/3/1 652/4/1
f 653/1/1 654/2/1 655/3/1 656/4/1
f 657/1/1 658/2/1 659/3/1 660/4/1
f 661/1/1 662/2/1 663/3/1 664/4/1
f 665/1/1 666/2/1 667/3/1 668/4/1
f 669/1/1 670/2/1 671/3/1 672/4/1
f 673/1/1 674/2/1 675/3/1 676/4/1
f 677/1/1 678/2/1 679/3/1 680/4/1
f 681/1/1 682/2/1 683/3/1 684/4/1
f 685/1/1 686/2/1 687/3/1 688/4/1
f 689/1/1 690/2/1 691/3/1 692/4/1
f 693/1/1 694/2/1 695/3/1 696/4/1
f 697/1/1 698/2/1 699/3/1 700/4/1
f 701/1/1 702/2/1 703/3/1 704/4/1
f 705/1/1 706/2/1 707/3/1 708/4/1
f 709/1/1 710/2/1 711/3/1 712/4/1
f 713/1/1 714/2/1 715/3/1 716/4/1
f 717/1/1 718/2/1 719/3/1 720/4/1
f 721/1/1 722/2/1 723/3/1 724/4/1
f 725/1/1 726/2/1 727/3/1 728/4/1
f 729/1/1 730/2/1 731/3/1 732/4/1
f 733/1/1 734/2/1 735/3/1 736/4/1
f 737/1/1 738/2/1 739/3/1 740/4/1
f 741/1/1 742/2/1 743/3/1 744/4/1
f 745/1/1 746/2/1 747/3/1 748/4/1
f 749/1/1 750/2/1 751/3/1 752/4/1
f 753/1/1 754/2/1 755/3/1 756/4/1
f 757/1/1 758/2/1 759/3/1 760/4/1
f 761/1/1 762/2/1 763/3/1 764/4/1
f 765/1/1 766/2/1 767/3/1 768/4/1
f 769/1/1 770/2/1 771/3/1 772/4/1
f 773/1/1 774/2/1 775/3/1 776/4/1
f 777/1/1 778/2/1 779/3/1 780/4/1
f 781/1/1 782/2/1 783/3/1 784/4/1
f 785/1/1 786/2/1 787/3/1 788/4/1
f 789/1/1 790/2/1 791/3/1 792/4/1
f 793/1/1 794/2/1 795/3/1 796/4/1
f 797/1/1 798/2/1 799/3/1 800/4/1

