# Tiled2Unity generated file. Do not modify by hand.
# Wavefront file for 'GameMap_mesh_0009.obj'

# Vertices (Count = 124)
v -217.17 -95 0
v -220.59 -95 0
v -220.59 -92.23 0
v -217.17 -92.23 0
v -218.88 -98.75 0
v -222.3 -98.75 0
v -222.3 -95.98 0
v -218.88 -95.98 0
v -222.3 -103.75 0
v -225.72 -103.75 0
v -225.72 -100.98 0
v -222.3 -100.98 0
v -174.42 -71.25 0
v -177.84 -71.25 0
v -177.84 -68.48 0
v -174.42 -68.48 0
v -224.01 -107.5 0
v -227.43 -107.5 0
v -227.43 -104.73 0
v -224.01 -104.73 0
v -174.42 -73.75 0
v -177.84 -73.75 0
v -177.84 -70.98 0
v -174.42 -70.98 0
v -225.72 -111.25 0
v -229.14 -111.25 0
v -229.14 -108.48 0
v -225.72 -108.48 0
v -174.42 -76.25 0
v -177.84 -76.25 0
v -177.84 -73.48 0
v -174.42 -73.48 0
v -229.14 -116.25 0
v -232.56 -116.25 0
v -232.56 -113.48 0
v -229.14 -113.48 0
v -229.14 -118.75 0
v -232.56 -118.75 0
v -232.56 -115.98 0
v -229.14 -115.98 0
v -227.43 -122.5 0
v -230.85 -122.5 0
v -230.85 -119.73 0
v -227.43 -119.73 0
v -225.72 -126.25 0
v -229.14 -126.25 0
v -229.14 -123.48 0
v -225.72 -123.48 0
v -224.01 -130 0
v -227.43 -130 0
v -227.43 -127.23 0
v -224.01 -127.23 0
v -222.3 -133.75 0
v -225.72 -133.75 0
v -225.72 -130.98 0
v -222.3 -130.98 0
v -220.59 -137.5 0
v -224.01 -137.5 0
v -224.01 -134.73 0
v -220.59 -134.73 0
v -217.17 -142.5 0
v -220.59 -142.5 0
v -220.59 -139.73 0
v -217.17 -139.73 0
v -215.46 -146.25 0
v -218.88 -146.25 0
v -218.88 -143.48 0
v -215.46 -143.48 0
v -213.75 -150 0
v -217.17 -150 0
v -217.17 -147.23 0
v -213.75 -147.23 0
v -212.04 -153.75 0
v -215.46 -153.75 0
v -215.46 -150.98 0
v -212.04 -150.98 0
v -155.61 -167.5 0
v -159.03 -167.5 0
v -159.03 -164.73 0
v -155.61 -164.73 0
v -147.06 -176.25 0
v -150.48 -176.25 0
v -150.48 -173.48 0
v -147.06 -173.48 0
v -141.93 -185 0
v -145.35 -185 0
v -145.35 -182.23 0
v -141.93 -182.23 0
v -143.64 -188.75 0
v -147.06 -188.75 0
v -147.06 -185.98 0
v -143.64 -185.98 0
v -145.35 -192.5 0
v -148.77 -192.5 0
v -148.77 -189.73 0
v -145.35 -189.73 0
v -147.06 -196.25 0
v -150.48 -196.25 0
v -150.48 -193.48 0
v -147.06 -193.48 0
v -150.48 -201.25 0
v -153.9 -201.25 0
v -153.9 -198.48 0
v -150.48 -198.48 0
v -150.48 -203.75 0
v -153.9 -203.75 0
v -153.9 -200.98 0
v -150.48 -200.98 0
v -150.48 -206.25 0
v -153.9 -206.25 0
v -153.9 -203.48 0
v -150.48 -203.48 0
v -148.77 -210 0
v -152.19 -210 0
v -152.19 -207.23 0
v -148.77 -207.23 0
v -148.77 -212.5 0
v -152.19 -212.5 0
v -152.19 -209.73 0
v -148.77 -209.73 0
v -148.77 -215 0
v -152.19 -215 0
v -152.19 -212.23 0
v -148.77 -212.23 0

# Texture cooridinates (Count = 4)
vt 0 0
vt 1 0
vt 1 1
vt 0 1

# Normal
vn 0 0 -1

# Mesh description
g GameMap_mesh_0009

# Faces
f 1/1/1 2/2/1 3/3/1 4/4/1
f 5/1/1 6/2/1 7/3/1 8/4/1
f 9/1/1 10/2/1 11/3/1 12/4/1
f 13/1/1 14/2/1 15/3/1 16/4/1
f 17/1/1 18/2/1 19/3/1 20/4/1
f 21/1/1 22/2/1 23/3/1 24/4/1
f 25/1/1 26/2/1 27/3/1 28/4/1
f 29/1/1 30/2/1 31/3/1 32/4/1
f 33/1/1 34/2/1 35/3/1 36/4/1
f 37/1/1 38/2/1 39/3/1 40/4/1
f 41/1/1 42/2/1 43/3/1 44/4/1
f 45/1/1 46/2/1 47/3/1 48/4/1
f 49/1/1 50/2/1 51/3/1 52/4/1
f 53/1/1 54/2/1 55/3/1 56/4/1
f 57/1/1 58/2/1 59/3/1 60/4/1
f 61/1/1 62/2/1 63/3/1 64/4/1
f 65/1/1 66/2/1 67/3/1 68/4/1
f 69/1/1 70/2/1 71/3/1 72/4/1
f 73/1/1 74/2/1 75/3/1 76/4/1
f 77/1/1 78/2/1 79/3/1 80/4/1
f 81/1/1 82/2/1 83/3/1 84/4/1
f 85/1/1 86/2/1 87/3/1 88/4/1
f 89/1/1 90/2/1 91/3/1 92/4/1
f 93/1/1 94/2/1 95/3/1 96/4/1
f 97/1/1 98/2/1 99/3/1 100/4/1
f 101/1/1 102/2/1 103/3/1 104/4/1
f 105/1/1 106/2/1 107/3/1 108/4/1
f 109/1/1 110/2/1 111/3/1 112/4/1
f 113/1/1 114/2/1 115/3/1 116/4/1
f 117/1/1 118/2/1 119/3/1 120/4/1
f 121/1/1 122/2/1 123/3/1 124/4/1

