# Tiled2Unity generated file. Do not modify by hand.
# Wavefront file for 'GameMap_mesh_0032.obj'

# Vertices (Count = 300)
v -160.74 -48.75 0
v -164.16 -48.75 0
v -164.16 -46.25 0
v -160.74 -46.25 0
v -162.45 -57.5 0
v -165.87 -57.5 0
v -165.87 -55 0
v -162.45 -55 0
v -164.16 -63.75 0
v -167.58 -63.75 0
v -167.58 -61.25 0
v -164.16 -61.25 0
v -164.16 -66.25 0
v -167.58 -66.25 0
v -167.58 -63.75 0
v -164.16 -63.75 0
v -162.45 -70 0
v -165.87 -70 0
v -165.87 -67.5 0
v -162.45 -67.5 0
v -188.1 -88.75 0
v -191.52 -88.75 0
v -191.52 -86.25 0
v -188.1 -86.25 0
v -189.81 -90 0
v -193.23 -90 0
v -193.23 -87.5 0
v -189.81 -87.5 0
v -191.52 -91.25 0
v -194.94 -91.25 0
v -194.94 -88.75 0
v -191.52 -88.75 0
v -193.23 -92.5 0
v -196.65 -92.5 0
v -196.65 -90 0
v -193.23 -90 0
v -171 -78.75 0
v -174.42 -78.75 0
v -174.42 -76.25 0
v -171 -76.25 0
v -172.71 -80 0
v -176.13 -80 0
v -176.13 -77.5 0
v -172.71 -77.5 0
v -194.94 -96.25 0
v -198.36 -96.25 0
v -198.36 -93.75 0
v -194.94 -93.75 0
v -196.65 -97.5 0
v -200.07 -97.5 0
v -200.07 -95 0
v -196.65 -95 0
v -198.36 -98.75 0
v -201.78 -98.75 0
v -201.78 -96.25 0
v -198.36 -96.25 0
v -200.07 -100 0
v -203.49 -100 0
v -203.49 -97.5 0
v -200.07 -97.5 0
v -201.78 -101.25 0
v -205.2 -101.25 0
v -205.2 -98.75 0
v -201.78 -98.75 0
v -162.45 -75 0
v -165.87 -75 0
v -165.87 -72.5 0
v -162.45 -72.5 0
v -164.16 -76.25 0
v -167.58 -76.25 0
v -167.58 -73.75 0
v -164.16 -73.75 0
v -165.87 -77.5 0
v -169.29 -77.5 0
v -169.29 -75 0
v -165.87 -75 0
v -174.42 -83.75 0
v -177.84 -83.75 0
v -177.84 -81.25 0
v -174.42 -81.25 0
v -181.26 -88.75 0
v -184.68 -88.75 0
v -184.68 -86.25 0
v -181.26 -86.25 0
v -201.78 -103.75 0
v -205.2 -103.75 0
v -205.2 -101.25 0
v -201.78 -101.25 0
v -176.13 -87.5 0
v -179.55 -87.5 0
v -179.55 -85 0
v -176.13 -85 0
v -177.84 -88.75 0
v -181.26 -88.75 0
v -181.26 -86.25 0
v -177.84 -86.25 0
v -200.07 -105 0
v -203.49 -105 0
v -203.49 -102.5 0
v -200.07 -102.5 0
v -196.65 -105 0
v -200.07 -105 0
v -200.07 -102.5 0
v -196.65 -102.5 0
v -189.81 -105 0
v -193.23 -105 0
v -193.23 -102.5 0
v -189.81 -102.5 0
v -186.39 -105 0
v -189.81 -105 0
v -189.81 -102.5 0
v -186.39 -102.5 0
v -179.55 -102.5 0
v -182.97 -102.5 0
v -182.97 -100 0
v -179.55 -100 0
v -181.26 -103.75 0
v -184.68 -103.75 0
v -184.68 -101.25 0
v -181.26 -101.25 0
v -169.29 -102.5 0
v -172.71 -102.5 0
v -172.71 -100 0
v -169.29 -100 0
v -167.58 -103.75 0
v -171 -103.75 0
v -171 -101.25 0
v -167.58 -101.25 0
v -162.45 -105 0
v -165.87 -105 0
v -165.87 -102.5 0
v -162.45 -102.5 0
v -157.32 -106.25 0
v -160.74 -106.25 0
v -160.74 -103.75 0
v -157.32 -103.75 0
v -155.61 -110 0
v -159.03 -110 0
v -159.03 -107.5 0
v -155.61 -107.5 0
v -155.61 -117.5 0
v -159.03 -117.5 0
v -159.03 -115 0
v -155.61 -115 0
v -157.32 -128.75 0
v -160.74 -128.75 0
v -160.74 -126.25 0
v -157.32 -126.25 0
v -157.32 -131.25 0
v -160.74 -131.25 0
v -160.74 -128.75 0
v -157.32 -128.75 0
v -155.61 -135 0
v -159.03 -135 0
v -159.03 -132.5 0
v -155.61 -132.5 0
v -153.9 -136.25 0
v -157.32 -136.25 0
v -157.32 -133.75 0
v -153.9 -133.75 0
v -152.19 -140 0
v -155.61 -140 0
v -155.61 -137.5 0
v -152.19 -137.5 0
v -150.48 -141.25 0
v -153.9 -141.25 0
v -153.9 -138.75 0
v -150.48 -138.75 0
v -148.77 -142.5 0
v -152.19 -142.5 0
v -152.19 -140 0
v -148.77 -140 0
v -147.06 -146.25 0
v -150.48 -146.25 0
v -150.48 -143.75 0
v -147.06 -143.75 0
v -145.35 -147.5 0
v -148.77 -147.5 0
v -148.77 -145 0
v -145.35 -145 0
v -143.64 -151.25 0
v -147.06 -151.25 0
v -147.06 -148.75 0
v -143.64 -148.75 0
v -141.93 -152.5 0
v -145.35 -152.5 0
v -145.35 -150 0
v -141.93 -150 0
v -140.22 -153.75 0
v -143.64 -153.75 0
v -143.64 -151.25 0
v -140.22 -151.25 0
v -138.51 -155 0
v -141.93 -155 0
v -141.93 -152.5 0
v -138.51 -152.5 0
v -133.38 -156.25 0
v -136.8 -156.25 0
v -136.8 -153.75 0
v -133.38 -153.75 0
v -131.67 -157.5 0
v -135.09 -157.5 0
v -135.09 -155 0
v -131.67 -155 0
v -129.96 -158.75 0
v -133.38 -158.75 0
v -133.38 -156.25 0
v -129.96 -156.25 0
v -128.25 -160 0
v -131.67 -160 0
v -131.67 -157.5 0
v -128.25 -157.5 0
v -126.54 -161.25 0
v -129.96 -161.25 0
v -129.96 -158.75 0
v -126.54 -158.75 0
v -121.41 -162.5 0
v -124.83 -162.5 0
v -124.83 -160 0
v -121.41 -160 0
v -119.7 -163.75 0
v -123.12 -163.75 0
v -123.12 -161.25 0
v -119.7 -161.25 0
v -111.15 -165 0
v -114.57 -165 0
v -114.57 -162.5 0
v -111.15 -162.5 0
v -102.6 -166.25 0
v -106.02 -166.25 0
v -106.02 -163.75 0
v -102.6 -163.75 0
v -97.47 -167.5 0
v -100.89 -167.5 0
v -100.89 -165 0
v -97.47 -165 0
v -95.75999 -168.75 0
v -99.18 -168.75 0
v -99.18 -166.25 0
v -95.75999 -166.25 0
v -90.63 -170 0
v -94.05 -170 0
v -94.05 -167.5 0
v -90.63 -167.5 0
v -88.92 -171.25 0
v -92.34 -171.25 0
v -92.34 -168.75 0
v -88.92 -168.75 0
v -83.79 -172.5 0
v -87.21 -172.5 0
v -87.21 -170 0
v -83.79 -170 0
v -82.08 -173.75 0
v -85.5 -173.75 0
v -85.5 -171.25 0
v -82.08 -171.25 0
v -80.37 -175 0
v -83.79 -175 0
v -83.79 -172.5 0
v -80.37 -172.5 0
v -75.24 -176.25 0
v -78.66 -176.25 0
v -78.66 -173.75 0
v -75.24 -173.75 0
v -73.53 -177.5 0
v -76.95 -177.5 0
v -76.95 -175 0
v -73.53 -175 0
v -68.4 -178.75 0
v -71.82 -178.75 0
v -71.82 -176.25 0
v -68.4 -176.25 0
v -66.68999 -180 0
v -70.11 -180 0
v -70.11 -177.5 0
v -66.68999 -177.5 0
v -61.56 -181.25 0
v -64.98 -181.25 0
v -64.98 -178.75 0
v -61.56 -178.75 0
v -59.85 -182.5 0
v -63.27 -182.5 0
v -63.27 -180 0
v -59.85 -180 0
v -58.14 -186.25 0
v -61.56 -186.25 0
v -61.56 -183.75 0
v -58.14 -183.75 0
v -56.43 -190 0
v -59.85 -190 0
v -59.85 -187.5 0
v -56.43 -187.5 0
v -54.72 -196.25 0
v -58.14 -196.25 0
v -58.14 -193.75 0
v -54.72 -193.75 0
v -53.01 -200 0
v -56.43 -200 0
v -56.43 -197.5 0
v -53.01 -197.5 0

# Texture cooridinates (Count = 4)
vt 0 1
vt 1 1
vt 1 0
vt 0 0

# Normal
vn 0 0 -1

# Mesh description
g GameMap_mesh_0032

# Faces
f 1/1/1 2/2/1 3/3/1 4/4/1
f 5/1/1 6/2/1 7/3/1 8/4/1
f 9/1/1 10/2/1 11/3/1 12/4/1
f 13/4/1 14/3/1 15/2/1 16/1/1
f 17/4/1 18/3/1 19/2/1 20/1/1
f 21/1/1 22/2/1 23/3/1 24/4/1
f 25/1/1 26/2/1 27/3/1 28/4/1
f 29/1/1 30/2/1 31/3/1 32/4/1
f 33/1/1 34/2/1 35/3/1 36/4/1
f 37/1/1 38/2/1 39/3/1 40/4/1
f 41/1/1 42/2/1 43/3/1 44/4/1
f 45/1/1 46/2/1 47/3/1 48/4/1
f 49/1/1 50/2/1 51/3/1 52/4/1
f 53/1/1 54/2/1 55/3/1 56/4/1
f 57/1/1 58/2/1 59/3/1 60/4/1
f 61/1/1 62/2/1 63/3/1 64/4/1
f 65/1/1 66/2/1 67/3/1 68/4/1
f 69/1/1 70/2/1 71/3/1 72/4/1
f 73/1/1 74/2/1 75/3/1 76/4/1
f 77/1/1 78/2/1 79/3/1 80/4/1
f 81/2/1 82/1/1 83/4/1 84/3/1
f 85/4/1 86/3/1 87/2/1 88/1/1
f 89/1/1 90/2/1 91/3/1 92/4/1
f 93/1/1 94/2/1 95/3/1 96/4/1
f 97/4/1 98/3/1 99/2/1 100/1/1
f 101/3/1 102/4/1 103/1/1 104/2/1
f 105/4/1 106/3/1 107/2/1 108/1/1
f 109/3/1 110/4/1 111/1/1 112/2/1
f 113/3/1 114/4/1 115/1/1 116/2/1
f 117/3/1 118/4/1 119/1/1 120/2/1
f 121/4/1 122/3/1 123/2/1 124/1/1
f 125/4/1 126/3/1 127/2/1 128/1/1
f 129/4/1 130/3/1 131/2/1 132/1/1
f 133/4/1 134/3/1 135/2/1 136/1/1
f 137/4/1 138/3/1 139/2/1 140/1/1
f 141/1/1 142/2/1 143/3/1 144/4/1
f 145/1/1 146/2/1 147/3/1 148/4/1
f 149/4/1 150/3/1 151/2/1 152/1/1
f 153/4/1 154/3/1 155/2/1 156/1/1
f 157/4/1 158/3/1 159/2/1 160/1/1
f 161/4/1 162/3/1 163/2/1 164/1/1
f 165/4/1 166/3/1 167/2/1 168/1/1
f 169/4/1 170/3/1 171/2/1 172/1/1
f 173/4/1 174/3/1 175/2/1 176/1/1
f 177/4/1 178/3/1 179/2/1 180/1/1
f 181/4/1 182/3/1 183/2/1 184/1/1
f 185/4/1 186/3/1 187/2/1 188/1/1
f 189/4/1 190/3/1 191/2/1 192/1/1
f 193/4/1 194/3/1 195/2/1 196/1/1
f 197/4/1 198/3/1 199/2/1 200/1/1
f 201/4/1 202/3/1 203/2/1 204/1/1
f 205/4/1 206/3/1 207/2/1 208/1/1
f 209/4/1 210/3/1 211/2/1 212/1/1
f 213/4/1 214/3/1 215/2/1 216/1/1
f 217/4/1 218/3/1 219/2/1 220/1/1
f 221/4/1 222/3/1 223/2/1 224/1/1
f 225/4/1 226/3/1 227/2/1 228/1/1
f 229/4/1 230/3/1 231/2/1 232/1/1
f 233/4/1 234/3/1 235/2/1 236/1/1
f 237/4/1 238/3/1 239/2/1 240/1/1
f 241/4/1 242/3/1 243/2/1 244/1/1
f 245/4/1 246/3/1 247/2/1 248/1/1
f 249/4/1 250/3/1 251/2/1 252/1/1
f 253/4/1 254/3/1 255/2/1 256/1/1
f 257/4/1 258/3/1 259/2/1 260/1/1
f 261/4/1 262/3/1 263/2/1 264/1/1
f 265/4/1 266/3/1 267/2/1 268/1/1
f 269/4/1 270/3/1 271/2/1 272/1/1
f 273/4/1 274/3/1 275/2/1 276/1/1
f 277/4/1 278/3/1 279/2/1 280/1/1
f 281/4/1 282/3/1 283/2/1 284/1/1
f 285/4/1 286/3/1 287/2/1 288/1/1
f 289/4/1 290/3/1 291/2/1 292/1/1
f 293/4/1 294/3/1 295/2/1 296/1/1
f 297/4/1 298/3/1 299/2/1 300/1/1

