# Tiled2Unity generated file. Do not modify by hand.
# Wavefront file for 'GameMap_mesh_0014.obj'

# Vertices (Count = 132)
v -27018 -8875 0
v -27360 -8875 0
v -27360 -8596 0
v -27018 -8596 0
v -25992 -8375 0
v -26334 -8375 0
v -26334 -8096 0
v -25992 -8096 0
v -25479 -8250 0
v -25821 -8250 0
v -25821 -7971 0
v -25479 -7971 0
v -24966 -8125 0
v -25308 -8125 0
v -25308 -7846 0
v -24966 -7846 0
v -30780 -12375 0
v -31122 -12375 0
v -31122 -12096 0
v -30780 -12096 0
v -24453 -8000 0
v -24795 -8000 0
v -24795 -7721 0
v -24453 -7721 0
v -30267 -12250 0
v -30609 -12250 0
v -30609 -11971 0
v -30267 -11971 0
v -24111 -8000 0
v -24453 -8000 0
v -24453 -7721 0
v -24111 -7721 0
v -29583 -12000 0
v -29925 -12000 0
v -29925 -11721 0
v -29583 -11721 0
v -23598 -7875 0
v -23940 -7875 0
v -23940 -7596 0
v -23598 -7596 0
v -23085 -7750 0
v -23427 -7750 0
v -23427 -7471 0
v -23085 -7471 0
v -22572 -7625 0
v -22914 -7625 0
v -22914 -7346 0
v -22572 -7346 0
v -21717 -7500 0
v -22059 -7500 0
v -22059 -7221 0
v -21717 -7221 0
v -21204 -7625 0
v -21546 -7625 0
v -21546 -7346 0
v -21204 -7346 0
v -20520 -7875 0
v -20862 -7875 0
v -20862 -7596 0
v -20520 -7596 0
v -20007 -8000 0
v -20349 -8000 0
v -20349 -7721 0
v -20007 -7721 0
v -19494 -8125 0
v -19836 -8125 0
v -19836 -7846 0
v -19494 -7846 0
v -23940 -14875 0
v -24282 -14875 0
v -24282 -14596 0
v -23940 -14596 0
v -23427 -14750 0
v -23769 -14750 0
v -23769 -14471 0
v -23427 -14471 0
v -22914 -14625 0
v -23256 -14625 0
v -23256 -14346 0
v -22914 -14346 0
v -18468 -11625 0
v -18810 -11625 0
v -18810 -11346 0
v -18468 -11346 0
v -22401 -14500 0
v -22743 -14500 0
v -22743 -14221 0
v -22401 -14221 0
v -21888 -14375 0
v -22230 -14375 0
v -22230 -14096 0
v -21888 -14096 0
v -21375 -14250 0
v -21717 -14250 0
v -21717 -13971 0
v -21375 -13971 0
v -20862 -14125 0
v -21204 -14125 0
v -21204 -13846 0
v -20862 -13846 0
v -17271 -12250 0
v -17613 -12250 0
v -17613 -11971 0
v -17271 -11971 0
v -16245 -12750 0
v -16587 -12750 0
v -16587 -12471 0
v -16245 -12471 0
v -15732 -12875 0
v -16074 -12875 0
v -16074 -12596 0
v -15732 -12596 0
v -15390 -12875 0
v -15732 -12875 0
v -15732 -12596 0
v -15390 -12596 0
v -14877 -13000 0
v -15219 -13000 0
v -15219 -12721 0
v -14877 -12721 0
v -14364 -13125 0
v -14706 -13125 0
v -14706 -12846 0
v -14364 -12846 0
v -14022 -13125 0
v -14364 -13125 0
v -14364 -12846 0
v -14022 -12846 0
v -13509 -13250 0
v -13851 -13250 0
v -13851 -12971 0
v -13509 -12971 0

# Texture cooridinates (Count = 4)
vt 0 0
vt 1 0
vt 1 1
vt 0 1

# Normal
vn 0 0 -1

# Mesh description
g GameMap_mesh_0014

# Faces
f 1/1/1 2/2/1 3/3/1 4/4/1
f 5/1/1 6/2/1 7/3/1 8/4/1
f 9/1/1 10/2/1 11/3/1 12/4/1
f 13/1/1 14/2/1 15/3/1 16/4/1
f 17/1/1 18/2/1 19/3/1 20/4/1
f 21/1/1 22/2/1 23/3/1 24/4/1
f 25/1/1 26/2/1 27/3/1 28/4/1
f 29/1/1 30/2/1 31/3/1 32/4/1
f 33/1/1 34/2/1 35/3/1 36/4/1
f 37/1/1 38/2/1 39/3/1 40/4/1
f 41/1/1 42/2/1 43/3/1 44/4/1
f 45/1/1 46/2/1 47/3/1 48/4/1
f 49/1/1 50/2/1 51/3/1 52/4/1
f 53/1/1 54/2/1 55/3/1 56/4/1
f 57/1/1 58/2/1 59/3/1 60/4/1
f 61/1/1 62/2/1 63/3/1 64/4/1
f 65/1/1 66/2/1 67/3/1 68/4/1
f 69/1/1 70/2/1 71/3/1 72/4/1
f 73/1/1 74/2/1 75/3/1 76/4/1
f 77/1/1 78/2/1 79/3/1 80/4/1
f 81/1/1 82/2/1 83/3/1 84/4/1
f 85/1/1 86/2/1 87/3/1 88/4/1
f 89/1/1 90/2/1 91/3/1 92/4/1
f 93/1/1 94/2/1 95/3/1 96/4/1
f 97/1/1 98/2/1 99/3/1 100/4/1
f 101/1/1 102/2/1 103/3/1 104/4/1
f 105/1/1 106/2/1 107/3/1 108/4/1
f 109/1/1 110/2/1 111/3/1 112/4/1
f 113/1/1 114/2/1 115/3/1 116/4/1
f 117/1/1 118/2/1 119/3/1 120/4/1
f 121/1/1 122/2/1 123/3/1 124/4/1
f 125/1/1 126/2/1 127/3/1 128/4/1
f 129/1/1 130/2/1 131/3/1 132/4/1

