# Tiled2Unity generated file. Do not modify by hand.
# Wavefront file for 'GameMap_mesh_0010.obj'

# Vertices (Count = 428)
v -19152 -2125 0
v -19494 -2125 0
v -19494 -1840 0
v -19152 -1840 0
v -19152 -2625 0
v -19494 -2625 0
v -19494 -2340 0
v -19152 -2340 0
v -18981 -2750 0
v -19323 -2750 0
v -19323 -2465 0
v -18981 -2465 0
v -27360 -8875 0
v -27702 -8875 0
v -27702 -8590 0
v -27360 -8590 0
v -27531 -9000 0
v -27873 -9000 0
v -27873 -8715 0
v -27531 -8715 0
v -27702 -9125 0
v -28044 -9125 0
v -28044 -8840 0
v -27702 -8840 0
v -27873 -9250 0
v -28215 -9250 0
v -28215 -8965 0
v -27873 -8965 0
v -28044 -9375 0
v -28386 -9375 0
v -28386 -9090 0
v -28044 -9090 0
v -18810 -2875 0
v -19152 -2875 0
v -19152 -2590 0
v -18810 -2590 0
v -26334 -8375 0
v -26676 -8375 0
v -26676 -8090 0
v -26334 -8090 0
v -26505 -8500 0
v -26847 -8500 0
v -26847 -8215 0
v -26505 -8215 0
v -26676 -8625 0
v -27018 -8625 0
v -27018 -8340 0
v -26676 -8340 0
v -26847 -8750 0
v -27189 -8750 0
v -27189 -8465 0
v -26847 -8465 0
v -28215 -9750 0
v -28557 -9750 0
v -28557 -9465 0
v -28215 -9465 0
v -18639 -3000 0
v -18981 -3000 0
v -18981 -2715 0
v -18639 -2715 0
v -25821 -8250 0
v -26163 -8250 0
v -26163 -7965 0
v -25821 -7965 0
v -28386 -10125 0
v -28728 -10125 0
v -28728 -9840 0
v -28386 -9840 0
v -25308 -8125 0
v -25650 -8125 0
v -25650 -7840 0
v -25308 -7840 0
v -28557 -10500 0
v -28899 -10500 0
v -28899 -10215 0
v -28557 -10215 0
v -31122 -12375 0
v -31464 -12375 0
v -31464 -12090 0
v -31122 -12090 0
v -31293 -12500 0
v -31635 -12500 0
v -31635 -12215 0
v -31293 -12215 0
v -18468 -3375 0
v -18810 -3375 0
v -18810 -3090 0
v -18468 -3090 0
v -24795 -8000 0
v -25137 -8000 0
v -25137 -7715 0
v -24795 -7715 0
v -28728 -10875 0
v -29070 -10875 0
v -29070 -10590 0
v -28728 -10590 0
v -30609 -12250 0
v -30951 -12250 0
v -30951 -11965 0
v -30609 -11965 0
v -31464 -12875 0
v -31806 -12875 0
v -31806 -12590 0
v -31464 -12590 0
v -31635 -13000 0
v -31977 -13000 0
v -31977 -12715 0
v -31635 -12715 0
v -18297 -3500 0
v -18639 -3500 0
v -18639 -3215 0
v -18297 -3215 0
v -28899 -11250 0
v -29241 -11250 0
v -29241 -10965 0
v -28899 -10965 0
v -29925 -12000 0
v -30267 -12000 0
v -30267 -11715 0
v -29925 -11715 0
v -30096 -12125 0
v -30438 -12125 0
v -30438 -11840 0
v -30096 -11840 0
v -31806 -13375 0
v -32148 -13375 0
v -32148 -13090 0
v -31806 -13090 0
v -31977 -13500 0
v -32319 -13500 0
v -32319 -13215 0
v -31977 -13215 0
v -18126 -3625 0
v -18468 -3625 0
v -18468 -3340 0
v -18126 -3340 0
v -23940 -7875 0
v -24282 -7875 0
v -24282 -7590 0
v -23940 -7590 0
v -29070 -11625 0
v -29412 -11625 0
v -29412 -11340 0
v -29070 -11340 0
v -29241 -11750 0
v -29583 -11750 0
v -29583 -11465 0
v -29241 -11465 0
v -29412 -11875 0
v -29754 -11875 0
v -29754 -11590 0
v -29412 -11590 0
v -17955 -3750 0
v -18297 -3750 0
v -18297 -3465 0
v -17955 -3465 0
v -23427 -7750 0
v -23769 -7750 0
v -23769 -7465 0
v -23427 -7465 0
v -22914 -7625 0
v -23256 -7625 0
v -23256 -7340 0
v -22914 -7340 0
v -17784 -4125 0
v -18126 -4125 0
v -18126 -3840 0
v -17784 -3840 0
v -22230 -7375 0
v -22572 -7375 0
v -22572 -7090 0
v -22230 -7090 0
v -22401 -7500 0
v -22743 -7500 0
v -22743 -7215 0
v -22401 -7215 0
v -21888 -7375 0
v -22230 -7375 0
v -22230 -7090 0
v -21888 -7090 0
v -17613 -4500 0
v -17955 -4500 0
v -17955 -4215 0
v -17613 -4215 0
v -21375 -7500 0
v -21717 -7500 0
v -21717 -7215 0
v -21375 -7215 0
v -17442 -4875 0
v -17784 -4875 0
v -17784 -4590 0
v -17442 -4590 0
v -20862 -7625 0
v -21204 -7625 0
v -21204 -7340 0
v -20862 -7340 0
v -17271 -5250 0
v -17613 -5250 0
v -17613 -4965 0
v -17271 -4965 0
v -20691 -7750 0
v -21033 -7750 0
v -21033 -7465 0
v -20691 -7465 0
v -17271 -5750 0
v -17613 -5750 0
v -17613 -5465 0
v -17271 -5465 0
v -20178 -7875 0
v -20520 -7875 0
v -20520 -7590 0
v -20178 -7590 0
v -19665 -8000 0
v -20007 -8000 0
v -20007 -7715 0
v -19665 -7715 0
v -17442 -6625 0
v -17784 -6625 0
v -17784 -6340 0
v -17442 -6340 0
v -19152 -8125 0
v -19494 -8125 0
v -19494 -7840 0
v -19152 -7840 0
v -17613 -7250 0
v -17955 -7250 0
v -17955 -6965 0
v -17613 -6965 0
v -17784 -7375 0
v -18126 -7375 0
v -18126 -7090 0
v -17784 -7090 0
v -17955 -7500 0
v -18297 -7500 0
v -18297 -7215 0
v -17955 -7215 0
v -18981 -8250 0
v -19323 -8250 0
v -19323 -7965 0
v -18981 -7965 0
v -18126 -7875 0
v -18468 -7875 0
v -18468 -7590 0
v -18126 -7590 0
v -18297 -8000 0
v -18639 -8000 0
v -18639 -7715 0
v -18297 -7715 0
v -18468 -8125 0
v -18810 -8125 0
v -18810 -7840 0
v -18468 -7840 0
v -18639 -8250 0
v -18981 -8250 0
v -18981 -7965 0
v -18639 -7965 0
v -18981 -8750 0
v -19323 -8750 0
v -19323 -8465 0
v -18981 -8465 0
v -19152 -8875 0
v -19494 -8875 0
v -19494 -8590 0
v -19152 -8590 0
v -19323 -9000 0
v -19665 -9000 0
v -19665 -8715 0
v -19323 -8715 0
v -19323 -9750 0
v -19665 -9750 0
v -19665 -9465 0
v -19323 -9465 0
v -19152 -11125 0
v -19494 -11125 0
v -19494 -10840 0
v -19152 -10840 0
v -24282 -14875 0
v -24624 -14875 0
v -24624 -14590 0
v -24282 -14590 0
v -24453 -15000 0
v -24795 -15000 0
v -24795 -14715 0
v -24453 -14715 0
v -23769 -14750 0
v -24111 -14750 0
v -24111 -14465 0
v -23769 -14465 0
v -18810 -11375 0
v -19152 -11375 0
v -19152 -11090 0
v -18810 -11090 0
v -19152 -11625 0
v -19494 -11625 0
v -19494 -11340 0
v -19152 -11340 0
v -23256 -14625 0
v -23598 -14625 0
v -23598 -14340 0
v -23256 -14340 0
v -18639 -11500 0
v -18981 -11500 0
v -18981 -11215 0
v -18639 -11215 0
v -19152 -11875 0
v -19494 -11875 0
v -19494 -11590 0
v -19152 -11590 0
v -22743 -14500 0
v -23085 -14500 0
v -23085 -14215 0
v -22743 -14215 0
v -24453 -15750 0
v -24795 -15750 0
v -24795 -15465 0
v -24453 -15465 0
v -19152 -12125 0
v -19494 -12125 0
v -19494 -11840 0
v -19152 -11840 0
v -22230 -14375 0
v -22572 -14375 0
v -22572 -14090 0
v -22230 -14090 0
v -18126 -11625 0
v -18468 -11625 0
v -18468 -11340 0
v -18126 -11340 0
v -19323 -12500 0
v -19665 -12500 0
v -19665 -12215 0
v -19323 -12215 0
v -19494 -12625 0
v -19836 -12625 0
v -19836 -12340 0
v -19494 -12340 0
v -19665 -12750 0
v -20007 -12750 0
v -20007 -12465 0
v -19665 -12465 0
v -21717 -14250 0
v -22059 -14250 0
v -22059 -13965 0
v -21717 -13965 0
v -17955 -11750 0
v -18297 -11750 0
v -18297 -11465 0
v -17955 -11465 0
v -19836 -13125 0
v -20178 -13125 0
v -20178 -12840 0
v -19836 -12840 0
v -20007 -13250 0
v -20349 -13250 0
v -20349 -12965 0
v -20007 -12965 0
v -21204 -14125 0
v -21546 -14125 0
v -21546 -13840 0
v -21204 -13840 0
v -17784 -11875 0
v -18126 -11875 0
v -18126 -11590 0
v -17784 -11590 0
v -20178 -13625 0
v -20520 -13625 0
v -20520 -13340 0
v -20178 -13340 0
v -20349 -13750 0
v -20691 -13750 0
v -20691 -13465 0
v -20349 -13465 0
v -20520 -13875 0
v -20862 -13875 0
v -20862 -13590 0
v -20520 -13590 0
v -20691 -14000 0
v -21033 -14000 0
v -21033 -13715 0
v -20691 -13715 0
v -24282 -16625 0
v -24624 -16625 0
v -24624 -16340 0
v -24282 -16340 0
v -17613 -12000 0
v -17955 -12000 0
v -17955 -11715 0
v -17613 -11715 0
v -17442 -12125 0
v -17784 -12125 0
v -17784 -11840 0
v -17442 -11840 0
v -16929 -12250 0
v -17271 -12250 0
v -17271 -11965 0
v -16929 -11965 0
v -16758 -12375 0
v -17100 -12375 0
v -17100 -12090 0
v -16758 -12090 0
v -16587 -12500 0
v -16929 -12500 0
v -16929 -12215 0
v -16587 -12215 0
v -16416 -12625 0
v -16758 -12625 0
v -16758 -12340 0
v -16416 -12340 0
v -15903 -12750 0
v -16245 -12750 0
v -16245 -12465 0
v -15903 -12465 0
v -15048 -12875 0
v -15390 -12875 0
v -15390 -12590 0
v -15048 -12590 0
v -14535 -13000 0
v -14877 -13000 0
v -14877 -12715 0
v -14535 -12715 0
v -13680 -13125 0
v -14022 -13125 0
v -14022 -12840 0
v -13680 -12840 0
v -13167 -13250 0
v -13509 -13250 0
v -13509 -12965 0
v -13167 -12965 0

# Texture cooridinates (Count = 4)
vt 1 0
vt 0 0
vt 0 1
vt 1 1

# Normal
vn 0 0 -1

# Mesh description
g GameMap_mesh_0010

# Faces
f 1/1/1 2/2/1 3/3/1 4/4/1
f 5/2/1 6/1/1 7/4/1 8/3/1
f 9/2/1 10/1/1 11/4/1 12/3/1
f 13/1/1 14/2/1 15/3/1 16/4/1
f 17/1/1 18/2/1 19/3/1 20/4/1
f 21/1/1 22/2/1 23/3/1 24/4/1
f 25/1/1 26/2/1 27/3/1 28/4/1
f 29/1/1 30/2/1 31/3/1 32/4/1
f 33/2/1 34/1/1 35/4/1 36/3/1
f 37/1/1 38/2/1 39/3/1 40/4/1
f 41/1/1 42/2/1 43/3/1 44/4/1
f 45/1/1 46/2/1 47/3/1 48/4/1
f 49/1/1 50/2/1 51/3/1 52/4/1
f 53/1/1 54/2/1 55/3/1 56/4/1
f 57/2/1 58/1/1 59/4/1 60/3/1
f 61/1/1 62/2/1 63/3/1 64/4/1
f 65/1/1 66/2/1 67/3/1 68/4/1
f 69/1/1 70/2/1 71/3/1 72/4/1
f 73/1/1 74/2/1 75/3/1 76/4/1
f 77/1/1 78/2/1 79/3/1 80/4/1
f 81/1/1 82/2/1 83/3/1 84/4/1
f 85/2/1 86/1/1 87/4/1 88/3/1
f 89/1/1 90/2/1 91/3/1 92/4/1
f 93/1/1 94/2/1 95/3/1 96/4/1
f 97/1/1 98/2/1 99/3/1 100/4/1
f 101/1/1 102/2/1 103/3/1 104/4/1
f 105/1/1 106/2/1 107/3/1 108/4/1
f 109/2/1 110/1/1 111/4/1 112/3/1
f 113/1/1 114/2/1 115/3/1 116/4/1
f 117/1/1 118/2/1 119/3/1 120/4/1
f 121/1/1 122/2/1 123/3/1 124/4/1
f 125/1/1 126/2/1 127/3/1 128/4/1
f 129/1/1 130/2/1 131/3/1 132/4/1
f 133/2/1 134/1/1 135/4/1 136/3/1
f 137/1/1 138/2/1 139/3/1 140/4/1
f 141/1/1 142/2/1 143/3/1 144/4/1
f 145/1/1 146/2/1 147/3/1 148/4/1
f 149/1/1 150/2/1 151/3/1 152/4/1
f 153/2/1 154/1/1 155/4/1 156/3/1
f 157/1/1 158/2/1 159/3/1 160/4/1
f 161/1/1 162/2/1 163/3/1 164/4/1
f 165/2/1 166/1/1 167/4/1 168/3/1
f 169/1/1 170/2/1 171/3/1 172/4/1
f 173/1/1 174/2/1 175/3/1 176/4/1
f 177/2/1 178/1/1 179/4/1 180/3/1
f 181/2/1 182/1/1 183/4/1 184/3/1
f 185/2/1 186/1/1 187/4/1 188/3/1
f 189/2/1 190/1/1 191/4/1 192/3/1
f 193/2/1 194/1/1 195/4/1 196/3/1
f 197/2/1 198/1/1 199/4/1 200/3/1
f 201/2/1 202/1/1 203/4/1 204/3/1
f 205/1/1 206/2/1 207/3/1 208/4/1
f 209/2/1 210/1/1 211/4/1 212/3/1
f 213/2/1 214/1/1 215/4/1 216/3/1
f 217/1/1 218/2/1 219/3/1 220/4/1
f 221/2/1 222/1/1 223/4/1 224/3/1
f 225/1/1 226/2/1 227/3/1 228/4/1
f 229/1/1 230/2/1 231/3/1 232/4/1
f 233/1/1 234/2/1 235/3/1 236/4/1
f 237/2/1 238/1/1 239/4/1 240/3/1
f 241/1/1 242/2/1 243/3/1 244/4/1
f 245/1/1 246/2/1 247/3/1 248/4/1
f 249/1/1 250/2/1 251/3/1 252/4/1
f 253/1/1 254/2/1 255/3/1 256/4/1
f 257/1/1 258/2/1 259/3/1 260/4/1
f 261/1/1 262/2/1 263/3/1 264/4/1
f 265/1/1 266/2/1 267/3/1 268/4/1
f 269/2/1 270/1/1 271/4/1 272/3/1
f 273/2/1 274/1/1 275/4/1 276/3/1
f 277/1/1 278/2/1 279/3/1 280/4/1
f 281/1/1 282/2/1 283/3/1 284/4/1
f 285/1/1 286/2/1 287/3/1 288/4/1
f 289/2/1 290/1/1 291/4/1 292/3/1
f 293/1/1 294/2/1 295/3/1 296/4/1
f 297/1/1 298/2/1 299/3/1 300/4/1
f 301/2/1 302/1/1 303/4/1 304/3/1
f 305/2/1 306/1/1 307/4/1 308/3/1
f 309/1/1 310/2/1 311/3/1 312/4/1
f 313/2/1 314/1/1 315/4/1 316/3/1
f 317/1/1 318/2/1 319/3/1 320/4/1
f 321/1/1 322/2/1 323/3/1 324/4/1
f 325/2/1 326/1/1 327/4/1 328/3/1
f 329/1/1 330/2/1 331/3/1 332/4/1
f 333/1/1 334/2/1 335/3/1 336/4/1
f 337/1/1 338/2/1 339/3/1 340/4/1
f 341/1/1 342/2/1 343/3/1 344/4/1
f 345/2/1 346/1/1 347/4/1 348/3/1
f 349/1/1 350/2/1 351/3/1 352/4/1
f 353/1/1 354/2/1 355/3/1 356/4/1
f 357/1/1 358/2/1 359/3/1 360/4/1
f 361/2/1 362/1/1 363/4/1 364/3/1
f 365/1/1 366/2/1 367/3/1 368/4/1
f 369/1/1 370/2/1 371/3/1 372/4/1
f 373/1/1 374/2/1 375/3/1 376/4/1
f 377/1/1 378/2/1 379/3/1 380/4/1
f 381/2/1 382/1/1 383/4/1 384/3/1
f 385/2/1 386/1/1 387/4/1 388/3/1
f 389/2/1 390/1/1 391/4/1 392/3/1
f 393/2/1 394/1/1 395/4/1 396/3/1
f 397/2/1 398/1/1 399/4/1 400/3/1
f 401/2/1 402/1/1 403/4/1 404/3/1
f 405/2/1 406/1/1 407/4/1 408/3/1
f 409/2/1 410/1/1 411/4/1 412/3/1
f 413/2/1 414/1/1 415/4/1 416/3/1
f 417/2/1 418/1/1 419/4/1 420/3/1
f 421/2/1 422/1/1 423/4/1 424/3/1
f 425/2/1 426/1/1 427/4/1 428/3/1

