# Tiled2Unity generated file. Do not modify by hand.
# Wavefront file for 'GameMap_mesh_0012.obj'

# Vertices (Count = 696)
v -314.64 -103.75 0
v -318.06 -103.75 0
v -318.06 -100.34 0
v -314.64 -100.34 0
v -282.15 -82.5 0
v -285.57 -82.5 0
v -285.57 -79.09 0
v -282.15 -79.09 0
v -302.67 -97.5 0
v -306.09 -97.5 0
v -306.09 -94.09 0
v -302.67 -94.09 0
v -314.64 -108.75 0
v -318.06 -108.75 0
v -318.06 -105.34 0
v -314.64 -105.34 0
v -246.24 -61.25 0
v -249.66 -61.25 0
v -249.66 -57.84 0
v -246.24 -57.84 0
v -307.8 -106.25 0
v -311.22 -106.25 0
v -311.22 -102.84 0
v -307.8 -102.84 0
v -244.53 -62.5 0
v -247.95 -62.5 0
v -247.95 -59.09 0
v -244.53 -59.09 0
v -246.24 -63.75 0
v -249.66 -63.75 0
v -249.66 -60.34 0
v -246.24 -60.34 0
v -311.22 -111.25 0
v -314.64 -111.25 0
v -314.64 -107.84 0
v -311.22 -107.84 0
v -309.51 -112.5 0
v -312.93 -112.5 0
v -312.93 -109.09 0
v -309.51 -109.09 0
v -282.15 -95 0
v -285.57 -95 0
v -285.57 -91.59 0
v -282.15 -91.59 0
v -283.86 -96.25 0
v -287.28 -96.25 0
v -287.28 -92.84 0
v -283.86 -92.84 0
v -287.28 -98.75 0
v -290.7 -98.75 0
v -290.7 -95.34 0
v -287.28 -95.34 0
v -297.54 -106.25 0
v -300.96 -106.25 0
v -300.96 -102.84 0
v -297.54 -102.84 0
v -265.05 -85 0
v -268.47 -85 0
v -268.47 -81.59 0
v -265.05 -81.59 0
v -309.51 -117.5 0
v -312.93 -117.5 0
v -312.93 -114.09 0
v -309.51 -114.09 0
v -251.37 -77.5 0
v -254.79 -77.5 0
v -254.79 -74.09 0
v -251.37 -74.09 0
v -265.05 -87.5 0
v -268.47 -87.5 0
v -268.47 -84.09 0
v -265.05 -84.09 0
v -271.89 -92.5 0
v -275.31 -92.5 0
v -275.31 -89.09 0
v -271.89 -89.09 0
v -273.6 -93.75 0
v -277.02 -93.75 0
v -277.02 -90.34 0
v -273.6 -90.34 0
v -316.35 -125 0
v -319.77 -125 0
v -319.77 -121.59 0
v -316.35 -121.59 0
v -249.66 -78.75 0
v -253.08 -78.75 0
v -253.08 -75.34 0
v -249.66 -75.34 0
v -259.92 -86.25 0
v -263.34 -86.25 0
v -263.34 -82.84 0
v -259.92 -82.84 0
v -263.34 -88.75 0
v -266.76 -88.75 0
v -266.76 -85.34 0
v -263.34 -85.34 0
v -294.12 -111.25 0
v -297.54 -111.25 0
v -297.54 -107.84 0
v -294.12 -107.84 0
v -304.38 -118.75 0
v -307.8 -118.75 0
v -307.8 -115.34 0
v -304.38 -115.34 0
v -312.93 -125 0
v -316.35 -125 0
v -316.35 -121.59 0
v -312.93 -121.59 0
v -323.19 -132.5 0
v -326.61 -132.5 0
v -326.61 -129.09 0
v -323.19 -129.09 0
v -229.14 -66.25 0
v -232.56 -66.25 0
v -232.56 -62.84 0
v -229.14 -62.84 0
v -246.24 -78.75 0
v -249.66 -78.75 0
v -249.66 -75.34 0
v -246.24 -75.34 0
v -247.95 -80 0
v -251.37 -80 0
v -251.37 -76.59 0
v -247.95 -76.59 0
v -256.5 -86.25 0
v -259.92 -86.25 0
v -259.92 -82.84 0
v -256.5 -82.84 0
v -259.92 -88.75 0
v -263.34 -88.75 0
v -263.34 -85.34 0
v -259.92 -85.34 0
v -270.18 -96.25 0
v -273.6 -96.25 0
v -273.6 -92.84 0
v -270.18 -92.84 0
v -283.86 -106.25 0
v -287.28 -106.25 0
v -287.28 -102.84 0
v -283.86 -102.84 0
v -300.96 -118.75 0
v -304.38 -118.75 0
v -304.38 -115.34 0
v -300.96 -115.34 0
v -306.09 -122.5 0
v -309.51 -122.5 0
v -309.51 -119.09 0
v -306.09 -119.09 0
v -312.93 -127.5 0
v -316.35 -127.5 0
v -316.35 -124.09 0
v -312.93 -124.09 0
v -225.72 -66.25 0
v -229.14 -66.25 0
v -229.14 -62.84 0
v -225.72 -62.84 0
v -232.56 -71.25 0
v -235.98 -71.25 0
v -235.98 -67.84 0
v -232.56 -67.84 0
v -234.27 -72.5 0
v -237.69 -72.5 0
v -237.69 -69.09 0
v -234.27 -69.09 0
v -246.24 -81.25 0
v -249.66 -81.25 0
v -249.66 -77.84 0
v -246.24 -77.84 0
v -259.92 -91.25 0
v -263.34 -91.25 0
v -263.34 -87.84 0
v -259.92 -87.84 0
v -282.15 -107.5 0
v -285.57 -107.5 0
v -285.57 -104.09 0
v -282.15 -104.09 0
v -288.99 -112.5 0
v -292.41 -112.5 0
v -292.41 -109.09 0
v -288.99 -109.09 0
v -247.95 -85 0
v -251.37 -85 0
v -251.37 -81.59 0
v -247.95 -81.59 0
v -249.66 -86.25 0
v -253.08 -86.25 0
v -253.08 -82.84 0
v -249.66 -82.84 0
v -251.37 -87.5 0
v -254.79 -87.5 0
v -254.79 -84.09 0
v -251.37 -84.09 0
v -266.76 -98.75 0
v -270.18 -98.75 0
v -270.18 -95.34 0
v -266.76 -95.34 0
v -268.47 -100 0
v -271.89 -100 0
v -271.89 -96.59 0
v -268.47 -96.59 0
v -271.89 -102.5 0
v -275.31 -102.5 0
v -275.31 -99.09 0
v -271.89 -99.09 0
v -278.73 -107.5 0
v -282.15 -107.5 0
v -282.15 -104.09 0
v -278.73 -104.09 0
v -306.09 -127.5 0
v -309.51 -127.5 0
v -309.51 -124.09 0
v -306.09 -124.09 0
v -227.43 -72.5 0
v -230.85 -72.5 0
v -230.85 -69.09 0
v -227.43 -69.09 0
v -241.11 -82.5 0
v -244.53 -82.5 0
v -244.53 -79.09 0
v -241.11 -79.09 0
v -247.95 -87.5 0
v -251.37 -87.5 0
v -251.37 -84.09 0
v -247.95 -84.09 0
v -268.47 -102.5 0
v -271.89 -102.5 0
v -271.89 -99.09 0
v -268.47 -99.09 0
v -271.89 -105 0
v -275.31 -105 0
v -275.31 -101.59 0
v -271.89 -101.59 0
v -278.73 -110 0
v -282.15 -110 0
v -282.15 -106.59 0
v -278.73 -106.59 0
v -280.44 -111.25 0
v -283.86 -111.25 0
v -283.86 -107.84 0
v -280.44 -107.84 0
v -292.41 -120 0
v -295.83 -120 0
v -295.83 -116.59 0
v -292.41 -116.59 0
v -295.83 -122.5 0
v -299.25 -122.5 0
v -299.25 -119.09 0
v -295.83 -119.09 0
v -232.56 -78.75 0
v -235.98 -78.75 0
v -235.98 -75.34 0
v -232.56 -75.34 0
v -261.63 -100 0
v -265.05 -100 0
v -265.05 -96.59 0
v -261.63 -96.59 0
v -271.89 -107.5 0
v -275.31 -107.5 0
v -275.31 -104.09 0
v -271.89 -104.09 0
v -261.63 -102.5 0
v -265.05 -102.5 0
v -265.05 -99.09 0
v -261.63 -99.09 0
v -270.18 -108.75 0
v -273.6 -108.75 0
v -273.6 -105.34 0
v -270.18 -105.34 0
v -294.12 -126.25 0
v -297.54 -126.25 0
v -297.54 -122.84 0
v -294.12 -122.84 0
v -318.06 -143.75 0
v -321.48 -143.75 0
v -321.48 -140.34 0
v -318.06 -140.34 0
v -265.05 -107.5 0
v -268.47 -107.5 0
v -268.47 -104.09 0
v -265.05 -104.09 0
v -277.02 -116.25 0
v -280.44 -116.25 0
v -280.44 -112.84 0
v -277.02 -112.84 0
v -304.38 -136.25 0
v -307.8 -136.25 0
v -307.8 -132.84 0
v -304.38 -132.84 0
v -234.27 -87.5 0
v -237.69 -87.5 0
v -237.69 -84.09 0
v -234.27 -84.09 0
v -237.69 -90 0
v -241.11 -90 0
v -241.11 -86.59 0
v -237.69 -86.59 0
v -302.67 -137.5 0
v -306.09 -137.5 0
v -306.09 -134.09 0
v -302.67 -134.09 0
v -309.51 -142.5 0
v -312.93 -142.5 0
v -312.93 -139.09 0
v -309.51 -139.09 0
v -208.62 -71.25 0
v -212.04 -71.25 0
v -212.04 -67.84 0
v -208.62 -67.84 0
v -215.46 -76.25 0
v -218.88 -76.25 0
v -218.88 -72.84 0
v -215.46 -72.84 0
v -230.85 -87.5 0
v -234.27 -87.5 0
v -234.27 -84.09 0
v -230.85 -84.09 0
v -292.41 -132.5 0
v -295.83 -132.5 0
v -295.83 -129.09 0
v -292.41 -129.09 0
v -309.51 -145 0
v -312.93 -145 0
v -312.93 -141.59 0
v -309.51 -141.59 0
v -200.07 -67.5 0
v -203.49 -67.5 0
v -203.49 -64.09 0
v -200.07 -64.09 0
v -220.59 -82.5 0
v -224.01 -82.5 0
v -224.01 -79.09 0
v -220.59 -79.09 0
v -225.72 -86.25 0
v -229.14 -86.25 0
v -229.14 -82.84 0
v -225.72 -82.84 0
v -234.27 -92.5 0
v -237.69 -92.5 0
v -237.69 -89.09 0
v -234.27 -89.09 0
v -266.76 -116.25 0
v -270.18 -116.25 0
v -270.18 -112.84 0
v -266.76 -112.84 0
v -277.02 -123.75 0
v -280.44 -123.75 0
v -280.44 -120.34 0
v -277.02 -120.34 0
v -278.73 -125 0
v -282.15 -125 0
v -282.15 -121.59 0
v -278.73 -121.59 0
v -217.17 -82.5 0
v -220.59 -82.5 0
v -220.59 -79.09 0
v -217.17 -79.09 0
v -218.88 -88.75 0
v -222.3 -88.75 0
v -222.3 -85.34 0
v -218.88 -85.34 0
v -186.39 -67.5 0
v -189.81 -67.5 0
v -189.81 -64.09 0
v -186.39 -64.09 0
v -201.78 -78.75 0
v -205.2 -78.75 0
v -205.2 -75.34 0
v -201.78 -75.34 0
v -225.72 -96.25 0
v -229.14 -96.25 0
v -229.14 -92.84 0
v -225.72 -92.84 0
v -218.88 -93.75 0
v -222.3 -93.75 0
v -222.3 -90.34 0
v -218.88 -90.34 0
v -205.2 -86.25 0
v -208.62 -86.25 0
v -208.62 -82.84 0
v -205.2 -82.84 0
v -188.1 -91.25 0
v -191.52 -91.25 0
v -191.52 -87.84 0
v -188.1 -87.84 0
v -213.75 -117.5 0
v -217.17 -117.5 0
v -217.17 -114.09 0
v -213.75 -114.09 0
v -205.2 -118.75 0
v -208.62 -118.75 0
v -208.62 -115.34 0
v -205.2 -115.34 0
v -206.91 -120 0
v -210.33 -120 0
v -210.33 -116.59 0
v -206.91 -116.59 0
v -198.36 -118.75 0
v -201.78 -118.75 0
v -201.78 -115.34 0
v -198.36 -115.34 0
v -193.23 -117.5 0
v -196.65 -117.5 0
v -196.65 -114.09 0
v -193.23 -114.09 0
v -196.65 -120 0
v -200.07 -120 0
v -200.07 -116.59 0
v -196.65 -116.59 0
v -198.36 -121.25 0
v -201.78 -121.25 0
v -201.78 -117.84 0
v -198.36 -117.84 0
v -203.49 -125 0
v -206.91 -125 0
v -206.91 -121.59 0
v -203.49 -121.59 0
v -194.94 -121.25 0
v -198.36 -121.25 0
v -198.36 -117.84 0
v -194.94 -117.84 0
v -203.49 -127.5 0
v -206.91 -127.5 0
v -206.91 -124.09 0
v -203.49 -124.09 0
v -186.39 -117.5 0
v -189.81 -117.5 0
v -189.81 -114.09 0
v -186.39 -114.09 0
v -198.36 -126.25 0
v -201.78 -126.25 0
v -201.78 -122.84 0
v -198.36 -122.84 0
v -210.33 -135 0
v -213.75 -135 0
v -213.75 -131.59 0
v -210.33 -131.59 0
v -182.97 -117.5 0
v -186.39 -117.5 0
v -186.39 -114.09 0
v -182.97 -114.09 0
v -184.68 -118.75 0
v -188.1 -118.75 0
v -188.1 -115.34 0
v -184.68 -115.34 0
v -188.1 -121.25 0
v -191.52 -121.25 0
v -191.52 -117.84 0
v -188.1 -117.84 0
v -198.36 -128.75 0
v -201.78 -128.75 0
v -201.78 -125.34 0
v -198.36 -125.34 0
v -205.2 -133.75 0
v -208.62 -133.75 0
v -208.62 -130.34 0
v -205.2 -130.34 0
v -182.97 -120 0
v -186.39 -120 0
v -186.39 -116.59 0
v -182.97 -116.59 0
v -203.49 -135 0
v -206.91 -135 0
v -206.91 -131.59 0
v -203.49 -131.59 0
v -203.49 -137.5 0
v -206.91 -137.5 0
v -206.91 -134.09 0
v -203.49 -134.09 0
v -212.04 -143.75 0
v -215.46 -143.75 0
v -215.46 -140.34 0
v -212.04 -140.34 0
v -227.43 -155 0
v -230.85 -155 0
v -230.85 -151.59 0
v -227.43 -151.59 0
v -229.14 -156.25 0
v -232.56 -156.25 0
v -232.56 -152.84 0
v -229.14 -152.84 0
v -234.27 -160 0
v -237.69 -160 0
v -237.69 -156.59 0
v -234.27 -156.59 0
v -172.71 -117.5 0
v -176.13 -117.5 0
v -176.13 -114.09 0
v -172.71 -114.09 0
v -196.65 -135 0
v -200.07 -135 0
v -200.07 -131.59 0
v -196.65 -131.59 0
v -208.62 -143.75 0
v -212.04 -143.75 0
v -212.04 -140.34 0
v -208.62 -140.34 0
v -212.04 -146.25 0
v -215.46 -146.25 0
v -215.46 -142.84 0
v -212.04 -142.84 0
v -224.01 -155 0
v -227.43 -155 0
v -227.43 -151.59 0
v -224.01 -151.59 0
v -194.94 -136.25 0
v -198.36 -136.25 0
v -198.36 -132.84 0
v -194.94 -132.84 0
v -208.62 -146.25 0
v -212.04 -146.25 0
v -212.04 -142.84 0
v -208.62 -142.84 0
v -212.04 -148.75 0
v -215.46 -148.75 0
v -215.46 -145.34 0
v -212.04 -145.34 0
v -213.75 -150 0
v -217.17 -150 0
v -217.17 -146.59 0
v -213.75 -146.59 0
v -215.46 -151.25 0
v -218.88 -151.25 0
v -218.88 -147.84 0
v -215.46 -147.84 0
v -218.88 -153.75 0
v -222.3 -153.75 0
v -222.3 -150.34 0
v -218.88 -150.34 0
v -191.52 -136.25 0
v -194.94 -136.25 0
v -194.94 -132.84 0
v -191.52 -132.84 0
v -210.33 -150 0
v -213.75 -150 0
v -213.75 -146.59 0
v -210.33 -146.59 0
v -229.14 -163.75 0
v -232.56 -163.75 0
v -232.56 -160.34 0
v -229.14 -160.34 0
v -174.42 -126.25 0
v -177.84 -126.25 0
v -177.84 -122.84 0
v -174.42 -122.84 0
v -174.42 -128.75 0
v -177.84 -128.75 0
v -177.84 -125.34 0
v -174.42 -125.34 0
v -220.59 -162.5 0
v -224.01 -162.5 0
v -224.01 -159.09 0
v -220.59 -159.09 0
v -225.72 -166.25 0
v -229.14 -166.25 0
v -229.14 -162.84 0
v -225.72 -162.84 0
v -182.97 -137.5 0
v -186.39 -137.5 0
v -186.39 -134.09 0
v -182.97 -134.09 0
v -196.65 -147.5 0
v -200.07 -147.5 0
v -200.07 -144.09 0
v -196.65 -144.09 0
v -208.62 -156.25 0
v -212.04 -156.25 0
v -212.04 -152.84 0
v -208.62 -152.84 0
v -222.3 -166.25 0
v -225.72 -166.25 0
v -225.72 -162.84 0
v -222.3 -162.84 0
v -179.55 -137.5 0
v -182.97 -137.5 0
v -182.97 -134.09 0
v -179.55 -134.09 0
v -198.36 -151.25 0
v -201.78 -151.25 0
v -201.78 -147.84 0
v -198.36 -147.84 0
v -201.78 -153.75 0
v -205.2 -153.75 0
v -205.2 -150.34 0
v -201.78 -150.34 0
v -215.46 -163.75 0
v -218.88 -163.75 0
v -218.88 -160.34 0
v -215.46 -160.34 0
v -159.03 -125 0
v -162.45 -125 0
v -162.45 -121.59 0
v -159.03 -121.59 0
v -169.29 -132.5 0
v -172.71 -132.5 0
v -172.71 -129.09 0
v -169.29 -129.09 0
v -184.68 -143.75 0
v -188.1 -143.75 0
v -188.1 -140.34 0
v -184.68 -140.34 0
v -191.52 -151.25 0
v -194.94 -151.25 0
v -194.94 -147.84 0
v -191.52 -147.84 0
v -200.07 -157.5 0
v -203.49 -157.5 0
v -203.49 -154.09 0
v -200.07 -154.09 0
v -179.55 -145 0
v -182.97 -145 0
v -182.97 -141.59 0
v -179.55 -141.59 0
v -191.52 -158.75 0
v -194.94 -158.75 0
v -194.94 -155.34 0
v -191.52 -155.34 0
v -193.23 -160 0
v -196.65 -160 0
v -196.65 -156.59 0
v -193.23 -156.59 0
v -206.91 -170 0
v -210.33 -170 0
v -210.33 -166.59 0
v -206.91 -166.59 0
v -194.94 -163.75 0
v -198.36 -163.75 0
v -198.36 -160.34 0
v -194.94 -160.34 0
v -181.26 -156.25 0
v -184.68 -156.25 0
v -184.68 -152.84 0
v -181.26 -152.84 0
v -193.23 -165 0
v -196.65 -165 0
v -196.65 -161.59 0
v -193.23 -161.59 0
v -194.94 -166.25 0
v -198.36 -166.25 0
v -198.36 -162.84 0
v -194.94 -162.84 0
v -164.16 -146.25 0
v -167.58 -146.25 0
v -167.58 -142.84 0
v -164.16 -142.84 0
v -165.87 -147.5 0
v -169.29 -147.5 0
v -169.29 -144.09 0
v -165.87 -144.09 0
v -181.26 -158.75 0
v -184.68 -158.75 0
v -184.68 -155.34 0
v -181.26 -155.34 0
v -196.65 -170 0
v -200.07 -170 0
v -200.07 -166.59 0
v -196.65 -166.59 0
v -198.36 -173.75 0
v -201.78 -173.75 0
v -201.78 -170.34 0
v -198.36 -170.34 0
v -200.07 -175 0
v -203.49 -175 0
v -203.49 -171.59 0
v -200.07 -171.59 0
v -162.45 -150 0
v -165.87 -150 0
v -165.87 -146.59 0
v -162.45 -146.59 0
v -201.78 -178.75 0
v -205.2 -178.75 0
v -205.2 -175.34 0
v -201.78 -175.34 0
v -194.94 -176.25 0
v -198.36 -176.25 0
v -198.36 -172.84 0
v -194.94 -172.84 0
v -198.36 -178.75 0
v -201.78 -178.75 0
v -201.78 -175.34 0
v -198.36 -175.34 0
v -157.32 -153.75 0
v -160.74 -153.75 0
v -160.74 -150.34 0
v -157.32 -150.34 0
v -188.1 -176.25 0
v -191.52 -176.25 0
v -191.52 -172.84 0
v -188.1 -172.84 0
v -191.52 -181.25 0
v -194.94 -181.25 0
v -194.94 -177.84 0
v -191.52 -177.84 0
v -193.23 -182.5 0
v -196.65 -182.5 0
v -196.65 -179.09 0
v -193.23 -179.09 0

# Texture cooridinates (Count = 4)
vt 0 0
vt 1 0
vt 1 1
vt 0 1

# Normal
vn 0 0 -1

# Mesh description
g GameMap_mesh_0012

# Faces
f 1/1/1 2/2/1 3/3/1 4/4/1
f 5/1/1 6/2/1 7/3/1 8/4/1
f 9/1/1 10/2/1 11/3/1 12/4/1
f 13/1/1 14/2/1 15/3/1 16/4/1
f 17/1/1 18/2/1 19/3/1 20/4/1
f 21/1/1 22/2/1 23/3/1 24/4/1
f 25/1/1 26/2/1 27/3/1 28/4/1
f 29/1/1 30/2/1 31/3/1 32/4/1
f 33/1/1 34/2/1 35/3/1 36/4/1
f 37/1/1 38/2/1 39/3/1 40/4/1
f 41/1/1 42/2/1 43/3/1 44/4/1
f 45/1/1 46/2/1 47/3/1 48/4/1
f 49/1/1 50/2/1 51/3/1 52/4/1
f 53/1/1 54/2/1 55/3/1 56/4/1
f 57/1/1 58/2/1 59/3/1 60/4/1
f 61/1/1 62/2/1 63/3/1 64/4/1
f 65/1/1 66/2/1 67/3/1 68/4/1
f 69/1/1 70/2/1 71/3/1 72/4/1
f 73/1/1 74/2/1 75/3/1 76/4/1
f 77/1/1 78/2/1 79/3/1 80/4/1
f 81/1/1 82/2/1 83/3/1 84/4/1
f 85/1/1 86/2/1 87/3/1 88/4/1
f 89/1/1 90/2/1 91/3/1 92/4/1
f 93/1/1 94/2/1 95/3/1 96/4/1
f 97/1/1 98/2/1 99/3/1 100/4/1
f 101/1/1 102/2/1 103/3/1 104/4/1
f 105/1/1 106/2/1 107/3/1 108/4/1
f 109/1/1 110/2/1 111/3/1 112/4/1
f 113/1/1 114/2/1 115/3/1 116/4/1
f 117/1/1 118/2/1 119/3/1 120/4/1
f 121/1/1 122/2/1 123/3/1 124/4/1
f 125/1/1 126/2/1 127/3/1 128/4/1
f 129/1/1 130/2/1 131/3/1 132/4/1
f 133/1/1 134/2/1 135/3/1 136/4/1
f 137/1/1 138/2/1 139/3/1 140/4/1
f 141/1/1 142/2/1 143/3/1 144/4/1
f 145/1/1 146/2/1 147/3/1 148/4/1
f 149/1/1 150/2/1 151/3/1 152/4/1
f 153/1/1 154/2/1 155/3/1 156/4/1
f 157/1/1 158/2/1 159/3/1 160/4/1
f 161/1/1 162/2/1 163/3/1 164/4/1
f 165/1/1 166/2/1 167/3/1 168/4/1
f 169/1/1 170/2/1 171/3/1 172/4/1
f 173/1/1 174/2/1 175/3/1 176/4/1
f 177/1/1 178/2/1 179/3/1 180/4/1
f 181/1/1 182/2/1 183/3/1 184/4/1
f 185/1/1 186/2/1 187/3/1 188/4/1
f 189/1/1 190/2/1 191/3/1 192/4/1
f 193/1/1 194/2/1 195/3/1 196/4/1
f 197/1/1 198/2/1 199/3/1 200/4/1
f 201/1/1 202/2/1 203/3/1 204/4/1
f 205/1/1 206/2/1 207/3/1 208/4/1
f 209/1/1 210/2/1 211/3/1 212/4/1
f 213/1/1 214/2/1 215/3/1 216/4/1
f 217/1/1 218/2/1 219/3/1 220/4/1
f 221/1/1 222/2/1 223/3/1 224/4/1
f 225/1/1 226/2/1 227/3/1 228/4/1
f 229/1/1 230/2/1 231/3/1 232/4/1
f 233/1/1 234/2/1 235/3/1 236/4/1
f 237/1/1 238/2/1 239/3/1 240/4/1
f 241/1/1 242/2/1 243/3/1 244/4/1
f 245/1/1 246/2/1 247/3/1 248/4/1
f 249/1/1 250/2/1 251/3/1 252/4/1
f 253/1/1 254/2/1 255/3/1 256/4/1
f 257/1/1 258/2/1 259/3/1 260/4/1
f 261/1/1 262/2/1 263/3/1 264/4/1
f 265/1/1 266/2/1 267/3/1 268/4/1
f 269/1/1 270/2/1 271/3/1 272/4/1
f 273/1/1 274/2/1 275/3/1 276/4/1
f 277/1/1 278/2/1 279/3/1 280/4/1
f 281/1/1 282/2/1 283/3/1 284/4/1
f 285/1/1 286/2/1 287/3/1 288/4/1
f 289/1/1 290/2/1 291/3/1 292/4/1
f 293/1/1 294/2/1 295/3/1 296/4/1
f 297/1/1 298/2/1 299/3/1 300/4/1
f 301/1/1 302/2/1 303/3/1 304/4/1
f 305/1/1 306/2/1 307/3/1 308/4/1
f 309/1/1 310/2/1 311/3/1 312/4/1
f 313/1/1 314/2/1 315/3/1 316/4/1
f 317/1/1 318/2/1 319/3/1 320/4/1
f 321/1/1 322/2/1 323/3/1 324/4/1
f 325/1/1 326/2/1 327/3/1 328/4/1
f 329/1/1 330/2/1 331/3/1 332/4/1
f 333/1/1 334/2/1 335/3/1 336/4/1
f 337/1/1 338/2/1 339/3/1 340/4/1
f 341/1/1 342/2/1 343/3/1 344/4/1
f 345/1/1 346/2/1 347/3/1 348/4/1
f 349/1/1 350/2/1 351/3/1 352/4/1
f 353/1/1 354/2/1 355/3/1 356/4/1
f 357/1/1 358/2/1 359/3/1 360/4/1
f 361/1/1 362/2/1 363/3/1 364/4/1
f 365/1/1 366/2/1 367/3/1 368/4/1
f 369/1/1 370/2/1 371/3/1 372/4/1
f 373/1/1 374/2/1 375/3/1 376/4/1
f 377/1/1 378/2/1 379/3/1 380/4/1
f 381/1/1 382/2/1 383/3/1 384/4/1
f 385/1/1 386/2/1 387/3/1 388/4/1
f 389/1/1 390/2/1 391/3/1 392/4/1
f 393/1/1 394/2/1 395/3/1 396/4/1
f 397/1/1 398/2/1 399/3/1 400/4/1
f 401/1/1 402/2/1 403/3/1 404/4/1
f 405/1/1 406/2/1 407/3/1 408/4/1
f 409/1/1 410/2/1 411/3/1 412/4/1
f 413/1/1 414/2/1 415/3/1 416/4/1
f 417/1/1 418/2/1 419/3/1 420/4/1
f 421/1/1 422/2/1 423/3/1 424/4/1
f 425/1/1 426/2/1 427/3/1 428/4/1
f 429/1/1 430/2/1 431/3/1 432/4/1
f 433/1/1 434/2/1 435/3/1 436/4/1
f 437/1/1 438/2/1 439/3/1 440/4/1
f 441/1/1 442/2/1 443/3/1 444/4/1
f 445/1/1 446/2/1 447/3/1 448/4/1
f 449/1/1 450/2/1 451/3/1 452/4/1
f 453/1/1 454/2/1 455/3/1 456/4/1
f 457/1/1 458/2/1 459/3/1 460/4/1
f 461/1/1 462/2/1 463/3/1 464/4/1
f 465/1/1 466/2/1 467/3/1 468/4/1
f 469/1/1 470/2/1 471/3/1 472/4/1
f 473/1/1 474/2/1 475/3/1 476/4/1
f 477/1/1 478/2/1 479/3/1 480/4/1
f 481/1/1 482/2/1 483/3/1 484/4/1
f 485/1/1 486/2/1 487/3/1 488/4/1
f 489/1/1 490/2/1 491/3/1 492/4/1
f 493/1/1 494/2/1 495/3/1 496/4/1
f 497/1/1 498/2/1 499/3/1 500/4/1
f 501/1/1 502/2/1 503/3/1 504/4/1
f 505/1/1 506/2/1 507/3/1 508/4/1
f 509/1/1 510/2/1 511/3/1 512/4/1
f 513/1/1 514/2/1 515/3/1 516/4/1
f 517/1/1 518/2/1 519/3/1 520/4/1
f 521/1/1 522/2/1 523/3/1 524/4/1
f 525/1/1 526/2/1 527/3/1 528/4/1
f 529/1/1 530/2/1 531/3/1 532/4/1
f 533/1/1 534/2/1 535/3/1 536/4/1
f 537/1/1 538/2/1 539/3/1 540/4/1
f 541/1/1 542/2/1 543/3/1 544/4/1
f 545/1/1 546/2/1 547/3/1 548/4/1
f 549/1/1 550/2/1 551/3/1 552/4/1
f 553/1/1 554/2/1 555/3/1 556/4/1
f 557/1/1 558/2/1 559/3/1 560/4/1
f 561/1/1 562/2/1 563/3/1 564/4/1
f 565/1/1 566/2/1 567/3/1 568/4/1
f 569/1/1 570/2/1 571/3/1 572/4/1
f 573/1/1 574/2/1 575/3/1 576/4/1
f 577/1/1 578/2/1 579/3/1 580/4/1
f 581/1/1 582/2/1 583/3/1 584/4/1
f 585/1/1 586/2/1 587/3/1 588/4/1
f 589/1/1 590/2/1 591/3/1 592/4/1
f 593/1/1 594/2/1 595/3/1 596/4/1
f 597/1/1 598/2/1 599/3/1 600/4/1
f 601/1/1 602/2/1 603/3/1 604/4/1
f 605/1/1 606/2/1 607/3/1 608/4/1
f 609/1/1 610/2/1 611/3/1 612/4/1
f 613/1/1 614/2/1 615/3/1 616/4/1
f 617/1/1 618/2/1 619/3/1 620/4/1
f 621/1/1 622/2/1 623/3/1 624/4/1
f 625/1/1 626/2/1 627/3/1 628/4/1
f 629/1/1 630/2/1 631/3/1 632/4/1
f 633/1/1 634/2/1 635/3/1 636/4/1
f 637/1/1 638/2/1 639/3/1 640/4/1
f 641/1/1 642/2/1 643/3/1 644/4/1
f 645/1/1 646/2/1 647/3/1 648/4/1
f 649/1/1 650/2/1 651/3/1 652/4/1
f 653/1/1 654/2/1 655/3/1 656/4/1
f 657/1/1 658/2/1 659/3/1 660/4/1
f 661/1/1 662/2/1 663/3/1 664/4/1
f 665/1/1 666/2/1 667/3/1 668/4/1
f 669/1/1 670/2/1 671/3/1 672/4/1
f 673/1/1 674/2/1 675/3/1 676/4/1
f 677/1/1 678/2/1 679/3/1 680/4/1
f 681/1/1 682/2/1 683/3/1 684/4/1
f 685/1/1 686/2/1 687/3/1 688/4/1
f 689/1/1 690/2/1 691/3/1 692/4/1
f 693/1/1 694/2/1 695/3/1 696/4/1

