# Tiled2Unity generated file. Do not modify by hand.
# Wavefront file for 'GameMap_mesh_0039.obj'

# Vertices (Count = 88)
v -147.06 -68.75 0
v -150.48 -68.75 0
v -150.48 -65.26 0
v -147.06 -65.26 0
v -160.74 -81.25 0
v -164.16 -81.25 0
v -164.16 -77.75999 0
v -160.74 -77.75999 0
v -172.71 -92.5 0
v -176.13 -92.5 0
v -176.13 -89.00999 0
v -172.71 -89.00999 0
v -138.51 -70 0
v -141.93 -70 0
v -141.93 -66.51 0
v -138.51 -66.51 0
v -159.03 -85 0
v -162.45 -85 0
v -162.45 -81.50999 0
v -159.03 -81.50999 0
v -147.06 -78.75 0
v -150.48 -78.75 0
v -150.48 -75.25999 0
v -147.06 -75.25999 0
v -136.8 -73.75 0
v -140.22 -73.75 0
v -140.22 -70.26 0
v -136.8 -70.26 0
v -155.61 -92.5 0
v -159.03 -92.5 0
v -159.03 -89.00999 0
v -155.61 -89.00999 0
v -141.93 -87.5 0
v -145.35 -87.5 0
v -145.35 -84.00999 0
v -141.93 -84.00999 0
v -159.03 -102.5 0
v -162.45 -102.5 0
v -162.45 -99.00999 0
v -159.03 -99.00999 0
v -141.93 -95 0
v -145.35 -95 0
v -145.35 -91.50999 0
v -141.93 -91.50999 0
v -145.35 -110 0
v -148.77 -110 0
v -148.77 -106.51 0
v -145.35 -106.51 0
v -153.9 -118.75 0
v -157.32 -118.75 0
v -157.32 -115.26 0
v -153.9 -115.26 0
v -150.48 -121.25 0
v -153.9 -121.25 0
v -153.9 -117.76 0
v -150.48 -117.76 0
v -145.35 -127.5 0
v -148.77 -127.5 0
v -148.77 -124.01 0
v -145.35 -124.01 0
v -138.51 -130 0
v -141.93 -130 0
v -141.93 -126.51 0
v -138.51 -126.51 0
v -133.38 -131.25 0
v -136.8 -131.25 0
v -136.8 -127.76 0
v -133.38 -127.76 0
v -136.8 -133.75 0
v -140.22 -133.75 0
v -140.22 -130.26 0
v -136.8 -130.26 0
v -147.06 -141.25 0
v -150.48 -141.25 0
v -150.48 -137.76 0
v -147.06 -137.76 0
v -124.83 -150 0
v -128.25 -150 0
v -128.25 -146.51 0
v -124.83 -146.51 0
v -64.98 -116.25 0
v -68.4 -116.25 0
v -68.4 -112.76 0
v -64.98 -112.76 0
v -66.68999 -122.5 0
v -70.11 -122.5 0
v -70.11 -119.01 0
v -66.68999 -119.01 0

# Texture cooridinates (Count = 4)
vt 0 0
vt 1 0
vt 1 1
vt 0 1

# Normal
vn 0 0 -1

# Mesh description
g GameMap_mesh_0039

# Faces
f 1/1/1 2/2/1 3/3/1 4/4/1
f 5/1/1 6/2/1 7/3/1 8/4/1
f 9/1/1 10/2/1 11/3/1 12/4/1
f 13/3/1 14/4/1 15/1/1 16/2/1
f 17/1/1 18/2/1 19/3/1 20/4/1
f 21/1/1 22/2/1 23/3/1 24/4/1
f 25/3/1 26/4/1 27/1/1 28/2/1
f 29/1/1 30/2/1 31/3/1 32/4/1
f 33/1/1 34/2/1 35/3/1 36/4/1
f 37/1/1 38/2/1 39/3/1 40/4/1
f 41/1/1 42/2/1 43/3/1 44/4/1
f 45/1/1 46/2/1 47/3/1 48/4/1
f 49/1/1 50/2/1 51/3/1 52/4/1
f 53/1/1 54/2/1 55/3/1 56/4/1
f 57/1/1 58/2/1 59/3/1 60/4/1
f 61/1/1 62/2/1 63/3/1 64/4/1
f 65/1/1 66/2/1 67/3/1 68/4/1
f 69/1/1 70/2/1 71/3/1 72/4/1
f 73/1/1 74/2/1 75/3/1 76/4/1
f 77/1/1 78/2/1 79/3/1 80/4/1
f 81/3/1 82/4/1 83/1/1 84/2/1
f 85/3/1 86/4/1 87/1/1 88/2/1

