# Tiled2Unity generated file. Do not modify by hand.
# Wavefront file for 'GameMap_mesh_0029.obj'

# Vertices (Count = 92)
v -184.68 -88.75 0
v -188.1 -88.75 0
v -188.1 -86.25 0
v -184.68 -86.25 0
v -167.58 -78.75 0
v -171 -78.75 0
v -171 -76.25 0
v -167.58 -76.25 0
v -179.55 -90 0
v -182.97 -90 0
v -182.97 -87.5 0
v -179.55 -87.5 0
v -194.94 -103.75 0
v -198.36 -103.75 0
v -198.36 -101.25 0
v -194.94 -101.25 0
v -191.52 -103.75 0
v -194.94 -103.75 0
v -194.94 -101.25 0
v -191.52 -101.25 0
v -184.68 -103.75 0
v -188.1 -103.75 0
v -188.1 -101.25 0
v -184.68 -101.25 0
v -177.84 -101.25 0
v -181.26 -101.25 0
v -181.26 -98.75 0
v -177.84 -98.75 0
v -174.42 -101.25 0
v -177.84 -101.25 0
v -177.84 -98.75 0
v -174.42 -98.75 0
v -171 -101.25 0
v -174.42 -101.25 0
v -174.42 -98.75 0
v -171 -98.75 0
v -164.16 -103.75 0
v -167.58 -103.75 0
v -167.58 -101.25 0
v -164.16 -101.25 0
v -159.03 -105 0
v -162.45 -105 0
v -162.45 -102.5 0
v -159.03 -102.5 0
v -135.09 -155 0
v -138.51 -155 0
v -138.51 -152.5 0
v -135.09 -152.5 0
v -123.12 -161.25 0
v -126.54 -161.25 0
v -126.54 -158.75 0
v -123.12 -158.75 0
v -116.28 -163.75 0
v -119.7 -163.75 0
v -119.7 -161.25 0
v -116.28 -161.25 0
v -112.86 -163.75 0
v -116.28 -163.75 0
v -116.28 -161.25 0
v -112.86 -161.25 0
v -107.73 -165 0
v -111.15 -165 0
v -111.15 -162.5 0
v -107.73 -162.5 0
v -104.31 -165 0
v -107.73 -165 0
v -107.73 -162.5 0
v -104.31 -162.5 0
v -99.18 -166.25 0
v -102.6 -166.25 0
v -102.6 -163.75 0
v -99.18 -163.75 0
v -92.34 -168.75 0
v -95.75999 -168.75 0
v -95.75999 -166.25 0
v -92.34 -166.25 0
v -85.5 -171.25 0
v -88.92 -171.25 0
v -88.92 -168.75 0
v -85.5 -168.75 0
v -76.95 -175 0
v -80.37 -175 0
v -80.37 -172.5 0
v -76.95 -172.5 0
v -70.11 -177.5 0
v -73.53 -177.5 0
v -73.53 -175 0
v -70.11 -175 0
v -63.27 -180 0
v -66.68999 -180 0
v -66.68999 -177.5 0
v -63.27 -177.5 0

# Texture cooridinates (Count = 4)
vt 0 0
vt 1 0
vt 1 1
vt 0 1

# Normal
vn 0 0 -1

# Mesh description
g GameMap_mesh_0029

# Faces
f 1/1/1 2/2/1 3/3/1 4/4/1
f 5/1/1 6/2/1 7/3/1 8/4/1
f 9/1/1 10/2/1 11/3/1 12/4/1
f 13/3/1 14/4/1 15/1/1 16/2/1
f 17/3/1 18/4/1 19/1/1 20/2/1
f 21/4/1 22/3/1 23/2/1 24/1/1
f 25/4/1 26/3/1 27/2/1 28/1/1
f 29/3/1 30/4/1 31/1/1 32/2/1
f 33/3/1 34/4/1 35/1/1 36/2/1
f 37/3/1 38/4/1 39/1/1 40/2/1
f 41/3/1 42/4/1 43/1/1 44/2/1
f 45/3/1 46/4/1 47/1/1 48/2/1
f 49/3/1 50/4/1 51/1/1 52/2/1
f 53/3/1 54/4/1 55/1/1 56/2/1
f 57/3/1 58/4/1 59/1/1 60/2/1
f 61/3/1 62/4/1 63/1/1 64/2/1
f 65/3/1 66/4/1 67/1/1 68/2/1
f 69/3/1 70/4/1 71/1/1 72/2/1
f 73/3/1 74/4/1 75/1/1 76/2/1
f 77/3/1 78/4/1 79/1/1 80/2/1
f 81/3/1 82/4/1 83/1/1 84/2/1
f 85/3/1 86/4/1 87/1/1 88/2/1
f 89/3/1 90/4/1 91/1/1 92/2/1

